<svg width="349" height="342" viewBox="0 0 349 342" xmlns="http://www.w3.org/2000/svg"><title>center sphere</title><desc>Created with Sketch.</desc><g fill="#47C2CA"><path d="M250.764 20.892l-57.102-6.65-37.529-8.463 94.63 15.113zm92.021 178.697l-12.992-45.564-.145-55.524 13.137 101.088zm-326.302-58.247l13.972 96.991-24.247-42.685 10.275-54.306zm302.154 7.511l10.709-51.057.147 56.249.004.019.001.02 13.03 45.698-23.892-50.931zm-26.939 141.485l4.016-64.122 47.057-24.902-.426.853-50.349 87.739-.297.433zm-93.509 41.324l43.119-45.353 49.901 4.479-.516.276-92.347 40.552-.157.046zm-36.093-45.34l35.543 45.457-.086.004-98.233-20.397 62.776-25.063zm-73.133-30.285l9.981 55.128-.015-.009-68.072-72.092 58.106 16.972zm-72.388-115.177l46.372 41.314-32.289 56.517-14.088-97.802.005-.029zm45.297-88.776l4.986 51.887-50.189 36.444 45.138-88.249.065-.082zm90.629-46.711l-22.567 48.632-67.711-2.284.028-.024 90.027-46.25.222-.074zm-22.386 48.596l22.58-48.659.205.046 53.578 28.875-76.363 19.738zm71.407 38.572l-71.34-38.436 76.413-19.751-5.074 58.187zm.148.028l5.073-58.185 69.377 44.095-74.45 14.09zm59.164 61.395l15.519-75.245 42.08 70.081-57.599 5.164zm.021.147l57.601-5.164-22.832 77.018-34.769-71.854zm-40.739 74.622l75.352-2.482-54.162 59.841-21.19-57.359zm-.136.064l21.192 57.362h-78.871l57.68-57.362zm-83.206-16.182l25.222 73.486-72.831-30.145 47.609-43.341zm-.103-.108l-47.609 43.342-25.894-73.558 73.504 30.216zm-11.012-82.27l-62.534 51.756 3.88-77.875 58.654 26.119zm.071-.131l-58.652-26.118 62.819-49.747-4.167 75.865zm.151-.011l4.169-75.894 71.376 38.456-75.545 37.438zm75.855-37.388l74.487-14.097-15.527 75.283-58.96-61.186zm59.001 61.503l34.787 71.891-75.386 2.483 40.599-74.374zm-40.879 74.498l-57.706 57.388-25.232-73.515 82.938 16.128zm-83.142-16.343l-73.532-30.228 62.558-51.776 10.974 82.004zm53.767-49.457l-64.518-32.689 75.526-37.429-11.008 70.118zm.147.027l11.007-70.115 58.947 61.172-69.954 8.942zm.02.147l69.955-8.943-40.589 74.355-29.367-65.413zm-53.787 49.25l-10.971-81.982 64.52 32.69-53.549 49.293zm53.652-49.185l29.368 65.416-82.917-16.124 53.549-49.293zm-128.488-111.258l.028-.024 67.721 2.284-62.779 49.715-4.991-51.949.021-.027zm-45.42 88.799l.009-.049 50.237-36.479-3.879 77.842-46.368-41.31.001-.004zm14.143 98.17l-.004-.005-.002-.006-.002-.003 32.282-56.504 25.884 73.529-58.146-16.984-.013-.027zm68.391 72.426h-.001l-.001-.001-.026-.015-9.987-55.165 72.797 30.131-62.767 25.06-.015-.009zm98.68 20.489l-35.548-45.464h78.833l-43.202 45.44-.083.024zm93.672-41.134l-.047.025-50.012-4.489 54.119-59.793-4.021 64.2-.039.057zm51.401-89.571l-.01.02-47.121 24.936 22.811-76.949 24.21 51.609.109.384zm-13.551-104.272l.001.284-10.82 51.584-42.037-70.009 52.805 18.09.051.051zm-73.467-75.006l.067.07 20.231 56.48-69.311-44.053 48.888-12.511.124.014zm34.265 35.654l.001.001 38.913 39.062-52.678-18.046-20.18-56.337 33.943 35.319.001.001zm-96.538-42.907l.011.001.004.001 61.723 7.188-48.652 12.451-53.252-28.699 40.165 9.057zm-99.949 10.502l57.695-19.278-88.6 45.517 30.905-26.238zm-69.415 74.738l37.09-47.003-44.581 87.161 7.491-40.158zm26.787 183.319l-19.996-43.626 67.44 71.422-47.444-27.796zm86.27 51.267l-37.605-22.746 97.258 20.195-59.653 2.552zm97.859-13.538l-35.698 10.468 89.559-39.327-53.861 28.859zm80.808-65.838l-22.919 33.391 48.143-83.894-25.224 50.503zm27.238-53.891l-.003-.031-.002-.022-.136-.476-13.418-103.248-.002-.584-.004-.018-.008-.038-.022-.034-.009-.014-39.244-39.394-34.299-35.69-.016-.012-.026-.018-.029-.009-.02-.007-1.731-.202-100.381-16.031-1.136-.256h-.01l-.031-.001-.029.004-.011.001-59.103 19.749h-.001l-.002.001-.022.013-.028.015-.002.001-31.659 26.878-.009.012-.011.01-37.819 47.927-.003.005-.013.027-.011.027-.002.005-7.639 40.947-10.41 55.016v.051000000000000004l.01.03.006.019 24.561 43.237 20.292 44.274.011.018.008.013.039.035.001.001 48.154 28.212 38.192 23.101.015.006.013.006.05.01h.007l60.586-2.592.008-.002.029-.004 37.37-10.959.005-.003.023-.009 56.382-30.209.002-.001.002-.002.038-.032.007-.008.005-.005 24.497-35.69.003-.007.007-.011 26.96-53.979.006-.02.009-.032z" opacity=".442"/><path d="M237.479 102.856l53.158-45.141 39.052 95.705-92.21-50.564zm78.944 151.849l-61.445-21.812 74.885-78.217-13.44 100.029zm-61.686-21.386l.046-.023 61.378 21.788-80.193 65.228 18.769-86.993zm-117.588 53.316l97.524 34.159-96.931 13.385-.593-47.545zm-.536-.105l.085.086.591 47.423-85.375-50.649 84.698 3.14zm-88.1-92.861l.069.062 2.218 88.427-44.316-86.315 42.029-2.175zm-24.276-92.941l24.27 92.473-.016.024-42.09 2.178 17.837-94.675zm69.425-75.353l13.927 55.131-.051.081-82.681 18.742 68.805-73.954zm14.352 54.977l-13.954-55.237 99.159-10.403-85.206 65.64zm129.095 22.233l-.007-.001-42.654-87.723 95.865 42.543-53.204 45.18zm17.697 129.842l-17.425-129.116 92.487 50.716-75.062 78.401zm-.56 1.037l-18.798 87.13-97.829-34.266 116.627-52.865zm-117.971 52.609l-85.006-3.151-2.227-88.802 87.233 91.953zm-87.433-93.366l-24.365-92.836 82.884-18.788-58.519 111.624zm59.656-112.164l85.4-65.789 42.7 87.817-128.099-22.028zm43.54 101.492l84.783-78.39 17.374 128.739-102.157-50.349zm-.349.655l102.109 50.325-116.425 52.773 14.316-103.098zm-.737-.141l-14.309 103.044-87.15-91.865 101.459-11.179zm-42.492-101.412l127.834 21.982-84.769 78.377-43.065-100.359zm42.387 100.678l-101.481 11.181 58.442-111.478 43.038 100.297zm179.591-27.985l-.124-.068-39.377-96.501-.006-.012-.009-.017-.005-.008-.012-.016-.007-.01-.003-.002-.006-.006-.015-.013-.012-.011-.006-.004-.017-.009-.017-.009-.003-.002-96.749-42.936-.008-.003-.012-.005-.003-.001-.014-.004-.014-.003-.011-.002-.004-.001-.014-.001h-.026000000000000002l-.006.001h-.004l-100.2 10.512-.015.003-.016.002-.007.002-.023.008-.006.002-.004.001-.008.004-.019.011-.018.012-.016.014-.009.008-.001.001-69.578 74.785-.001.001-.011.015-.011.015-.003.005-.009.017-.008.016-.002.005-.001.001-.001.001-.005.018-.002.006-.003.01v.002l-18.074 95.932v.003l-.001.007-.001.02-.001.018v.006l.003.018.003.02.001.006.005.014.001.003.006.018.003.007.001.002 44.922 87.496.004.005.009.016.005.007.011.013.008.01.004.003.006.006.013.01.014.011.009.005.003.002h.001l86.47 51.298.007.003.027.013.007.002.007.002.013.004.053.007h.003l.005-.001.024-.002 98.094-13.546.03-.007.009-.002.004-.001h.001l.049-.025.01-.007.001-.001.007-.004.001-.001 80.996-65.881.003-.003.005-.005.026-.026.003-.005.015-.023.003-.004.01-.024.003-.006.002-.006.006-.024.004-.015v-.001l13.543-100.796c.061-.013.116-.05.149-.108.06-.107.021-.242-.087-.302z" opacity=".442"/><g><path d="M114.305 81.18c0 3.683-3.017 6.669-6.738 6.669-3.722 0-6.738-2.986-6.738-6.669 0-3.683 3.017-6.669 6.738-6.669 3.722 0 6.738 2.986 6.738 6.669"/><path d="M199.882 14.787c0 3.478-2.849 6.298-6.364 6.298-3.515 0-6.364-2.82-6.364-6.298s2.849-6.298 6.364-6.298c3.515 0 6.364 2.82 6.364 6.298"/><path d="M241.446 321.562c0 3.478-2.849 6.298-6.364 6.298-3.515 0-6.364-2.82-6.364-6.298s2.849-6.298 6.364-6.298c3.515 0 6.364 2.82 6.364 6.298"/><path d="M158.113 182.669c0 3.888-3.185 7.039-7.113 7.039-3.928 0-7.113-3.152-7.113-7.039 0-3.888 3.184-7.039 7.113-7.039 3.928 0 7.113 3.152 7.113 7.039"/><path d="M158.113 182.669c0 3.888-3.185 7.039-7.113 7.039-3.928 0-7.113-3.152-7.113-7.039 0-3.888 3.184-7.039 7.113-7.039 3.928 0 7.113 3.152 7.113 7.039"/><path d="M296.091 57.765c0 3.274-2.682 5.928-5.99 5.928-3.308 0-5.99-2.654-5.99-5.928s2.682-5.928 5.99-5.928c3.308 0 5.99 2.654 5.99 5.928"/><path d="M11.979 196.193c0 3.274-2.682 5.928-5.99 5.928-3.308 0-5.99-2.654-5.99-5.928s2.682-5.928 5.99-5.928c3.308 0 5.99 2.654 5.99 5.928"/><path d="M99.481 25.309c0 3.274-2.682 5.928-5.99 5.928-3.308 0-5.99-2.654-5.99-5.928s2.682-5.928 5.99-5.928c3.308 0 5.99 2.654 5.99 5.928"/><path d="M57.199 283.773c0 3.478-2.849 6.298-6.364 6.298-3.515 0-6.364-2.82-6.364-6.298s2.849-6.298 6.364-6.298c3.515 0 6.364 2.82 6.364 6.298"/><path d="M321.928 255.617c0 3.274-2.682 5.928-5.99 5.928-3.308 0-5.99-2.654-5.99-5.928s2.682-5.928 5.99-5.928c3.308 0 5.99 2.654 5.99 5.928"/><path d="M243.382 103.409c0 3.683-3.017 6.669-6.738 6.669-3.722 0-6.738-2.986-6.738-6.669 0-3.683 3.017-6.669 6.738-6.669 3.722 0 6.738 2.986 6.738 6.669"/><path d="M30.397 100.166c0 3.478-2.849 6.298-6.364 6.298-3.515 0-6.364-2.82-6.364-6.298s2.849-6.298 6.364-6.298c3.515 0 6.364 2.82 6.364 6.298"/><path d="M143.296 286.959c0 3.683-3.017 6.669-6.738 6.669-3.722 0-6.738-2.986-6.738-6.669 0-3.683 3.017-6.669 6.738-6.669 3.722 0 6.738 2.986 6.738 6.669"/><path d="M260.752 233.576c0 3.683-3.017 6.669-6.738 6.669-3.722 0-6.738-2.986-6.738-6.669 0-3.683 3.017-6.669 6.738-6.669 3.722 0 6.738 2.986 6.738 6.669"/><path d="M143.146 335.121c0 3.274-2.682 5.928-5.99 5.928-3.308 0-5.99-2.654-5.99-5.928s2.682-5.928 5.99-5.928c3.308 0 5.99 2.654 5.99 5.928"/><path d="M335.997 154.537c0 3.478-2.849 6.298-6.364 6.298-3.515 0-6.364-2.82-6.364-6.298s2.849-6.298 6.364-6.298c3.515 0 6.364 2.82 6.364 6.298"/><path d="M55.327 193.983c0 3.683-3.017 6.669-6.738 6.669-3.722 0-6.738-2.986-6.738-6.669 0-3.683 3.017-6.669 6.738-6.669 3.722 0 6.738 2.986 6.738 6.669"/></g><g opacity=".341"><path d="M141.155 212.463c0 2.453-2.012 4.442-4.495 4.442-2.482 0-4.495-1.989-4.495-4.442 0-2.453 2.012-4.442 4.495-4.442 2.482 0 4.495 1.989 4.495 4.442"/><path d="M265.122 154.045c0 2.453-2.012 4.442-4.495 4.442-2.482 0-4.495-1.989-4.495-4.442 0-2.453 2.012-4.442 4.495-4.442 2.482 0 4.495 1.989 4.495 4.442"/><path d="M224.38 228.637c0 2.453-2.012 4.442-4.495 4.442-2.482 0-4.495-1.989-4.495-4.442 0-2.453 2.012-4.442 4.495-4.442 2.482 0 4.495 1.989 4.495 4.442"/><path d="M205.952 92.676c0 2.453-2.012 4.442-4.495 4.442-2.482 0-4.495-1.989-4.495-4.442 0-2.453 2.012-4.442 4.495-4.442 2.482 0 4.495 1.989 4.495 4.442"/><path d="M130.143 130.223c0 2.453-2.012 4.442-4.495 4.442-2.482 0-4.495-1.989-4.495-4.442 0-2.453 2.012-4.442 4.495-4.442 2.482 0 4.495 1.989 4.495 4.442"/><path d="M194.528 163.016c0 2.249-1.845 4.071-4.12 4.071-2.276 0-4.12-1.823-4.12-4.071 0-2.249 1.845-4.071 4.12-4.071 2.275 0 4.12 1.823 4.12 4.071"/><path d="M67.369 182.149c0 2.453-2.012 4.442-4.495 4.442-2.482 0-4.495-1.989-4.495-4.442 0-2.453 2.012-4.442 4.495-4.442 2.482 0 4.495 1.989 4.495 4.442"/><path d="M71.264 104.019c0 2.453-2.012 4.442-4.495 4.442-2.482 0-4.495-1.989-4.495-4.442 0-2.453 2.012-4.442 4.495-4.442 2.482 0 4.495 1.989 4.495 4.442"/><path d="M134.327 54.108c0 2.453-2.012 4.442-4.495 4.442-2.482 0-4.495-1.989-4.495-4.442 0-2.453 2.012-4.442 4.495-4.442 2.482 0 4.495 1.989 4.495 4.442"/><path d="M211.046 34.289c0 2.453-2.012 4.442-4.495 4.442-2.482 0-4.495-1.989-4.495-4.442 0-2.453 2.012-4.442 4.495-4.442 2.482 0 4.495 1.989 4.495 4.442"/><path d="M280.704 78.537c0 2.453-2.012 4.442-4.495 4.442-2.482 0-4.495-1.989-4.495-4.442 0-2.453 2.012-4.442 4.495-4.442 2.482 0 4.495 1.989 4.495 4.442"/><path d="M322.955 148.863c0 2.453-2.012 4.442-4.495 4.442-2.482 0-4.495-1.989-4.495-4.442 0-2.453 2.012-4.442 4.495-4.442 2.482 0 4.495 1.989 4.495 4.442"/><path d="M300.031 226.147c0 2.453-2.012 4.442-4.495 4.442-2.482 0-4.495-1.989-4.495-4.442 0-2.453 2.012-4.442 4.495-4.442 2.482 0 4.495 1.989 4.495 4.442"/><path d="M245.654 286.19c0 2.453-2.012 4.442-4.495 4.442-2.482 0-4.495-1.989-4.495-4.442 0-2.453 2.012-4.442 4.495-4.442 2.482 0 4.495 1.989 4.495 4.442"/><path d="M166.475 286.19c0 2.453-2.012 4.442-4.495 4.442-2.482 0-4.495-1.989-4.495-4.442 0-2.453 2.012-4.442 4.495-4.442 2.482 0 4.495 1.989 4.495 4.442"/><path d="M93.363 255.946c0 2.453-2.012 4.442-4.495 4.442-2.482 0-4.495-1.989-4.495-4.442 0-2.453 2.012-4.442 4.495-4.442 2.482 0 4.495 1.989 4.495 4.442"/><path d="M202.956 331.862c0 2.862-2.348 5.182-5.244 5.182s-5.244-2.32-5.244-5.182c0-2.862 2.348-5.182 5.244-5.182s5.244 2.32 5.244 5.182"/><path d="M21.524 140.661c0 2.862-2.348 5.182-5.244 5.182s-5.244-2.32-5.244-5.182c0-2.862 2.348-5.182 5.244-5.182s5.244 2.32 5.244 5.182"/><path d="M157.785 5.198c0 2.862-2.348 5.182-5.244 5.182s-5.244-2.32-5.244-5.182c0-2.862 2.348-5.182 5.244-5.182s5.244 2.32 5.244 5.182"/><path d="M348.206 201.064c0 2.862-2.348 5.182-5.244 5.182s-5.244-2.32-5.244-5.182c0-2.862 2.348-5.182 5.244-5.182s5.244 2.32 5.244 5.182"/><path d="M104.15 311.358c0 2.862-2.348 5.182-5.244 5.182s-5.244-2.32-5.244-5.182c0-2.862 2.348-5.182 5.244-5.182s5.244 2.32 5.244 5.182"/><path d="M296.735 290.706c0 2.862-2.348 5.182-5.244 5.182s-5.244-2.32-5.244-5.182c0-2.862 2.348-5.182 5.244-5.182s5.244 2.32 5.244 5.182"/><path d="M66.995 51.814c0 2.862-2.348 5.182-5.244 5.182s-5.244-2.32-5.244-5.182c0-2.862 2.348-5.182 5.244-5.182s5.244 2.32 5.244 5.182"/><path d="M261.076 21.685c0 2.862-2.348 5.182-5.244 5.182s-5.244-2.32-5.244-5.182c0-2.862 2.348-5.182 5.244-5.182s5.244 2.32 5.244 5.182"/><path d="M35.682 238.889c0 2.862-2.348 5.182-5.244 5.182s-5.244-2.32-5.244-5.182c0-2.862 2.348-5.182 5.244-5.182s5.244 2.32 5.244 5.182"/><path d="M334.642 96.748c0 2.862-2.348 5.182-5.244 5.182s-5.244-2.32-5.244-5.182c0-2.862 2.348-5.182 5.244-5.182s5.244 2.32 5.244 5.182"/></g></g></svg>