<svg width="51" height="42" viewBox="0 0 51 42" xmlns="http://www.w3.org/2000/svg"><title>CNBC_logo</title><desc>Created with Sketch.</desc><g fill-rule="nonzero" fill="none"><path d="M25.034 4.686c-.781-1.947-2.682-4.05-6.244-3.761-4.537.493-5.951 4.836-5.265 7.427-1.807-1.222-4.88-1.76-7.561.535-3.463 3.468-1.611 8.157.293 9.282-2.098-.194-5.414 1.222-6.147 4.927-.78 4.599 2.729 7.281 6.147 7.281h37.897c3.952 0 6.145-3.415 5.899-6.637-.388-4.204-4.238-5.817-6.339-5.471 1.755-.978 4.099-5.573.535-9.185-2.829-2.688-6.435-1.71-7.703-.538.684-2.246-.437-6.888-5.026-7.622-.317-.035-.623-.054-.914-.054-3.503 0-5.078 2.558-5.572 3.816" fill="#fff"/><path d="M6.141 9.381c-2.008 1.824-2.738 5.956.881 8.372l14.438 9.941-7-16.095c-1.467-3.798-5.48-4.626-8.318-2.218" fill="#A0B0B1"/><path d="M18.812 1.792c-2.254.048-5.638 2.834-4.132 7.089l6.953 17.025 2.443-17.907c.565-4.449-2.678-6.503-5.265-6.207" fill="#A0B0B1"/><path d="M25.041 7.346h1.312s.7 0 .796.343c-.516.438-1.921.493-1.735 2.832l2.205 15.384 6.889-17.044c1.409-3.806-1.549-6.984-4.172-7.081l-.373-.017c-2.355 0-5.054 1.778-4.922 5.582" fill="#A0B0B1"/><path d="M34.577 11.719l-6.859 15.975 14.555-10.039c3.355-2.379 2.814-6.183.936-8.063-.787-.885-2.233-1.569-3.764-1.569-1.809 0-3.746.959-4.868 3.696" fill="#A0B0B1"/><path d="M41.204 19.722l-13.485 9.761h16.604c3.407 0 5.596-3.64 4.623-6.98-.652-2.099-2.58-3.747-4.819-3.75-.942 0-1.941.294-2.923.969" fill="#A0B0B1"/><path d="M6.111 29.482h16.243l-13.393-9.717c-3.094-2.065-6.573-.857-7.829 2.571-1.065 3.923 1.594 7.146 4.979 7.146" fill="#A0B0B1"/><path d="M0 35.703c0 1.599 1.325 4.509 6.382 4.509 4.663 0 6.136-2.111 6.136-3.08h-3.61s-.171 1.279-2.208 1.279c-2.038 0-2.589-1.678-2.589-2.649 0-.967.551-2.555 2.589-2.555 2.036 0 2.208 1.114 2.208 1.114h3.61c0-.969-1.081-3.051-6.136-3.051-5.058 0-6.382 3.1-6.382 4.432M37.554 35.703c0 1.599 1.326 4.509 6.382 4.509 4.663 0 6.136-2.111 6.136-3.08h-3.607s-.172 1.279-2.209 1.279c-2.038 0-2.59-1.678-2.59-2.649 0-.967.552-2.555 2.59-2.555 2.037 0 2.209 1.114 2.209 1.114h3.607c0-.969-1.079-3.051-6.136-3.051-5.056 0-6.382 3.1-6.382 4.432M21.94 32.165v5.645l-4.014-5.645h-4.515v8.941h3.095v-5.71l3.943 5.71h4.585v-8.941h-3.095" id="Shape" fill="#A0B0B1"/><path d="M32.82 38.97v.012h-2.67v-1.642h2.67v.005c.57 0 1.031.365 1.031.814 0 .448-.461.811-1.031.811zm-2.645-5.066h2.573v.004c.436 0 .789.298.789.666 0 .369-.353.665-.789.665v.004h-2.573v-1.338zm5.267 2.449c.583 0 1.803-.705 1.803-2.07 0-1.944-3.478-2.118-4.012-2.118h-6.409v8.941h6.409c3.082 0 4.321-1.013 4.321-2.706 0-1.692-2.112-2.048-2.112-2.048z" fill="#A0B0B1"/></g></svg>