<svg width="167" height="158" viewBox="0 0 167 158" xmlns="http://www.w3.org/2000/svg"><title>digitalinnovation</title><desc>Created with Sketch.</desc><g fill="#A0B0B1"><path d="M161.27 95.365c4.086-2.096 5.361-7.32 5.361-7.32s-6.312-.604-10.114 2.174c-1.191.874-2.292 2.397-3.147 3.83.647-2.924 1.082-5.913 1.295-8.952 1.482-.239 4.829-1.035 8.154-3.533 3.567-2.678 3.849-7.925 3.849-7.925s-6.199.43-9.363 3.72c-1.024 1.066-1.824 2.78-2.394 4.337.16-3.212.054-6.395-.28-9.524 1.406-.481 4.46-1.787 7.194-4.706 2.955-3.152 2.282-8.261 2.282-8.261s-5.909 1.407-8.366 5.087c-.81 1.215-1.273 3.041-1.541 4.656-.513-3.246-1.263-6.426-2.224-9.51 1.187-.625 4.041-2.379 6.239-5.77 2.287-3.517.711-8.339.711-8.339s-5.449 2.302-7.158 6.248c-.633 1.471-.703 3.623-.622 5.347-1.166-3.307-2.569-6.491-4.153-9.53.973-.728 3.52-2.897 5.079-6.643 1.565-3.759-.826-8.163-.826-8.163s-4.838 3.094-5.774 7.177c-.374 1.646.037 3.967.463 5.668-1.816-3.244-3.838-6.298-6.007-9.116.819-.876 2.86-3.369 3.681-7.204.83-3.88-2.272-7.747-2.272-7.747s-4.115 3.761-4.277 7.851c-.063 1.609.71 3.712 1.418 5.276-2.377-2.888-4.898-5.501-7.498-7.773.629-.969 2.154-3.707 2.255-7.553.1-3.878-3.597-7.112-3.597-7.112s-3.288 4.288-2.702 8.26c.241 1.644 1.474 3.667 2.469 5.078-.928-.755-1.861-1.47-2.799-2.134-2.112-1.604-4.193-3.016-6.217-4.273.369-.833 1.531-3.855.891-7.828-.606-3.758-4.759-6.288-4.759-6.288s-2.402 4.663-1.116 8.406c.607 1.774 2.564 3.818 3.808 4.993-3.783-2.259-7.321-3.941-10.419-5.2.192-.77.824-3.935-.545-7.762-1.262-3.529-5.731-5.306-5.731-5.306s-1.466 4.885.449 8.291c.968 1.725 3.484 3.504 4.855 4.39-2.127-.829-4.016-1.448-5.597-1.916-.477-.566-2.804-3.17-5.649-3.628-2.277-.363-6.101 1.015-6.101 1.015s1.834 2.349 5.538 3.546c2.484.802 5.227-.312 6.052-.694 1.921.624 4.314 1.484 7.03 2.673-1.593-.258-4.843-.654-6.877-.029-3.888 1.198-6.439 5.675-6.439 5.675s4.526 1.637 8.041-.082c3.76-1.831 5.636-4.47 6.101-5.196 3.047 1.376 6.473 3.167 10.081 5.487-1.672-.531-4.425-1.257-6.358-.997-4.133.556-7.54 4.629-7.54 4.629s4.242 2.399 8.097 1.259c3.913-1.153 6.265-3.321 7.012-4.099 1.598 1.069 3.227 2.237 4.877 3.527 1.468 1.075 2.926 2.264 4.36 3.558-1.572-.815-4.253-2.038-6.277-2.1-4.26-.132-8.448 3.396-8.448 3.396s3.811 3.116 7.901 2.613c4.188-.513 6.97-2.328 7.838-2.968 2.587 2.444 5.076 5.223 7.39 8.278-1.455-1.067-3.665-2.492-5.504-2.854-4.258-.843-9.128 2.002-9.128 2.002s3.24 3.768 7.442 3.944c4.121.176 7.168-1.063 8.291-1.606 2.014 2.804 3.878 5.816 5.536 9.002-1.253-1.261-2.999-2.787-4.605-3.391-4.118-1.556-9.552.492-9.552.492s2.547 4.325 6.737 5.202c3.94.83 7.137.183 8.478-.188 1.491 3.102 2.787 6.35 3.836 9.708-1.023-1.471-2.482-3.276-3.973-4.148-3.842-2.251-9.689-1.098-9.689-1.098s1.744 4.772 5.789 6.352c3.805 1.489 7.14 1.373 8.559 1.224.923 3.363 1.589 6.827 1.966 10.352-.75-1.672-1.906-3.831-3.284-4.993-3.44-2.9-9.534-2.715-9.534-2.715s.855 5.083 4.624 7.347c3.567 2.146 6.962 2.575 8.399 2.657.224 3.276.192 6.6-.138 9.943-.45-1.74-1.176-3.859-2.254-5.149-2.912-3.491-9.069-4.32-9.069-4.32s-.1 5.251 3.262 8.154c3.094 2.676 6.329 3.693 7.815 4.041-.347 3.21-.958 6.354-1.788 9.411-.127-1.814-.46-4.034-1.294-5.497-2.266-3.992-8.298-5.851-8.298-5.851s-1.091 5.262 1.739 8.735c2.574 3.164 5.586 4.724 7.038 5.341-.946 2.95-2.095 5.815-3.418 8.575.186-1.777.23-3.886-.298-5.396-1.529-4.39-7.237-7.262-7.237-7.262s-2.087 5.104.103 9.068c1.947 3.529 4.601 5.585 5.971 6.481-1.438 2.683-3.034 5.255-4.758 7.696.486-1.702.871-3.682.639-5.209-.708-4.664-5.902-8.503-5.902-8.503s-3.063 4.782-1.609 9.131c1.272 3.815 3.508 6.31 4.734 7.458-1.979 2.537-4.081 4.915-6.274 7.101.853-1.681 1.695-3.73 1.753-5.388.165-4.804-4.335-9.527-4.335-9.527s-3.97 4.295-3.33 8.905c.573 4.139 2.417 7.056 3.416 8.376-2.461 2.23-5.004 4.229-7.578 5.96 1.196-1.56 2.469-3.522 2.842-5.207 1.07-4.801-2.559-10.298-2.559-10.298s-4.802 3.653-5.029 8.396c-.202 4.223 1.086 7.444 1.842 8.951-.989.584-1.977 1.132-2.965 1.634-1.792.987-3.542 1.859-5.251 2.641 1.409-1.321 2.882-2.952 3.529-4.469 1.979-4.65-.63-10.778-.63-10.778s-5.516 2.872-6.637 7.598c-.978 4.119-.34 7.518.135 9.2-3.133 1.257-6.054 2.201-8.681 2.911 1.643-1.087 3.395-2.459 4.318-3.858 2.867-4.342 1.397-10.935 1.397-10.935s-6.081 1.965-8.099 6.53c-1.744 3.948-1.759 7.444-1.604 9.227-4.3.916-7.31.888-8.59 1.014-1.331.114-3.656.22-6.332-.076-1.528-.174-4.243-.164-7.877-.938.155-1.783.143-5.279-1.604-9.227-2.016-4.564-8.098-6.53-8.098-6.53s-1.471 6.593 1.393 10.935c.923 1.399 2.677 2.771 4.321 3.858-2.627-.71-5.549-1.654-8.681-2.911.475-1.682 1.113-5.081.135-9.2-1.121-4.726-6.638-7.598-6.638-7.598s-2.609 6.128-.631 10.778c.648 1.516 2.122 3.148 3.53 4.469-1.709-.782-3.462-1.654-5.254-2.641-.985-.502-1.974-1.05-2.962-1.634.757-1.507 2.044-4.728 1.841-8.951-.225-4.743-5.029-8.396-5.029-8.396s-3.63 5.497-2.559 10.298c.375 1.685 1.646 3.647 2.841 5.209-2.572-1.733-5.116-3.731-7.577-5.962.998-1.32 2.844-4.237 3.414-8.376.643-4.61-3.332-8.905-3.332-8.905s-4.496 4.723-4.334 9.527c.058 1.658.901 3.709 1.754 5.389-2.194-2.186-4.295-4.565-6.271-7.1 1.223-1.15 3.459-3.644 4.73-7.46 1.453-4.349-1.606-9.131-1.606-9.131s-5.196 3.839-5.904 8.503c-.232 1.527.153 3.507.638 5.209-1.721-2.441-3.316-5.012-4.758-7.696 1.37-.896 4.028-2.952 5.971-6.481 2.189-3.964.103-9.068.103-9.068s-5.709 2.873-7.238 7.262c-.526 1.511-.483 3.619-.298 5.396-1.324-2.76-2.472-5.625-3.418-8.575 1.451-.617 4.463-2.177 7.038-5.341 2.829-3.473 1.741-8.735 1.741-8.735s-6.032 1.859-8.298 5.851c-.835 1.462-1.166 3.683-1.293 5.497-.833-3.057-1.444-6.201-1.791-9.411 1.486-.349 4.721-1.365 7.815-4.041 3.362-2.903 3.262-8.154 3.262-8.154s-6.157.829-9.066 4.32c-1.081 1.291-1.805 3.409-2.256 5.147-.331-3.34-.363-6.664-.135-9.94 1.436-.082 4.828-.512 8.395-2.657 3.768-2.264 4.624-7.347 4.624-7.347s-6.095-.185-9.534 2.715c-1.378 1.162-2.534 3.32-3.285 4.993.378-3.525 1.044-6.988 1.967-10.352 1.419.148 4.753.265 8.558-1.224 4.046-1.581 5.792-6.352 5.792-6.352s-5.849-1.153-9.695 1.098c-1.488.871-2.946 2.675-3.97 4.145 1.051-3.357 2.344-6.603 3.835-9.705 1.344.371 4.538 1.018 8.478.188 4.192-.877 6.737-5.202 6.737-5.202s-5.432-2.049-9.554-.492c-1.604.605-3.35 2.13-4.603 3.389 1.658-3.184 3.522-6.196 5.536-8.999 1.125.543 4.17 1.782 8.29 1.606 4.203-.176 7.443-3.944 7.443-3.944s-4.871-2.846-9.129-2.002c-1.836.362-4.045 1.786-5.504 2.854 2.314-3.056 4.804-5.834 7.39-8.277.868.639 3.65 2.454 7.837 2.967 4.091.503 7.903-2.613 7.903-2.613s-4.19-3.528-8.453-3.396c-2.019.062-4.701 1.284-6.272 2.1 1.432-1.294 2.89-2.483 4.361-3.558 1.646-1.29 3.275-2.457 4.875-3.527.749.778 3.1 2.946 7.013 4.099 3.852 1.14 8.095-1.259 8.095-1.259s-3.407-4.073-7.543-4.629c-1.929-.26-4.683.464-6.357.997 3.612-2.32 7.035-4.11 10.082-5.486.466.726 2.342 3.364 6.102 5.196 3.515 1.719 8.041.082 8.041.082s-2.552-4.476-6.44-5.675c-2.031-.625-5.281-.229-6.875.029 2.717-1.189 5.106-2.049 7.027-2.673.828.382 3.57 1.496 6.052.694 3.705-1.197 5.539-3.546 5.539-3.546s-3.825-1.378-6.099-1.015c-2.847.459-5.173 3.062-5.651 3.628-1.581.468-3.47 1.088-5.596 1.916 1.371-.884 3.885-2.664 4.856-4.39 1.917-3.406.448-8.291.448-8.291s-4.468 1.777-5.732 5.306c-1.368 3.827-.735 6.992-.545 7.762-3.095 1.259-6.635 2.941-10.415 5.198 1.241-1.172 3.2-3.217 3.805-4.99 1.286-3.742-1.113-8.406-1.113-8.406s-4.153 2.53-4.758 6.288c-.64 3.973.518 6.994.888 7.828-2.024 1.257-4.105 2.669-6.216 4.273-.939.664-1.872 1.38-2.8 2.134.995-1.411 2.229-3.434 2.472-5.078.585-3.972-2.702-8.26-2.702-8.26s-3.699 3.234-3.6 7.112c.1 3.846 1.626 6.584 2.254 7.553-2.599 2.272-5.123 4.885-7.495 7.773.706-1.565 1.479-3.668 1.416-5.276-.162-4.09-4.278-7.851-4.278-7.851s-3.104 3.866-2.271 7.747c.821 3.835 2.862 6.328 3.68 7.204-2.169 2.817-4.19 5.869-6.007 9.115.427-1.702.84-4.021.463-5.667-.933-4.083-5.774-7.177-5.774-7.177s-2.391 4.404-.825 8.163c1.559 3.746 4.105 5.915 5.078 6.643-1.584 3.039-2.987 6.223-4.153 9.53.08-1.723.01-3.876-.625-5.347-1.707-3.946-7.155-6.248-7.155-6.248s-1.574 4.822.71 8.339c2.199 3.392 5.051 5.145 6.242 5.77-.964 3.084-1.714 6.263-2.227 9.507-.267-1.614-.73-3.44-1.541-4.654-2.457-3.68-8.366-5.087-8.366-5.087s-.673 5.11 2.282 8.261c2.734 2.919 5.789 4.225 7.192 4.706-.332 3.13-.435 6.311-.278 9.524-.57-1.556-1.37-3.273-2.394-4.337-3.165-3.29-9.364-3.72-9.364-3.72s.283 5.248 3.848 7.925c3.325 2.498 6.674 3.293 8.155 3.533.213 3.039.651 6.028 1.296 8.952-.855-1.432-1.956-2.955-3.147-3.83-3.802-2.778-10.114-2.174-10.114-2.174s1.275 5.224 5.363 7.32c3.753 1.926 7.213 2.187 8.786 2.191.826 2.938 1.852 5.801 3.05 8.572-1.138-1.311-2.549-2.693-3.932-3.383-4.345-2.16-10.572-.499-10.572-.499s2.264 5.037 6.765 6.463c4.157 1.315 7.698.992 9.266.735 1.376 2.788 2.924 5.467 4.606 8.022-1.407-1.151-3.115-2.333-4.661-2.801-4.769-1.447-10.717 1.259-10.717 1.259s3.227 4.683 8.018 5.365c4.431.63 7.933-.288 9.457-.807 1.781 2.443 3.68 4.752 5.671 6.91-1.536-.834-3.284-1.607-4.786-1.802-5.066-.658-10.535 3.052-10.535 3.052s4.125 4.169 9.069 4.057c4.403-.102 7.665-1.501 9.182-2.299 2.114 2.055 4.303 3.942 6.532 5.638-1.581-.516-3.294-.913-4.706-.865-5.213.182-10.012 4.822-10.012 4.822s4.931 3.503 9.88 2.565c4.325-.821 7.31-2.715 8.716-3.783 1.579 1.023 3.16 1.953 4.741 2.772 1.001.561 1.989 1.088 2.967 1.583-1.744-.273-3.63-.414-5.101-.117-5.204 1.052-9.151 6.511-9.151 6.511s5.616 2.701 10.413.933c4.253-1.568 6.912-4.022 8.098-5.312 2.882 1.267 5.616 2.277 8.14 3.077-1.778.021-3.657.198-5.053.732-5.034 1.925-7.971 8.071-7.971 8.071s6.152 1.775 10.638-.801c3.957-2.269 6.164-5.155 7.122-6.659l.678.166c2.723.633 13.301 2.75 24.498.501.896-.195 1.847-.415 2.857-.667.958 1.503 3.165 4.389 7.122 6.659 4.486 2.576 10.637.801 10.637.801s-2.937-6.147-7.97-8.071c-1.396-.534-3.275-.711-5.053-.732 2.524-.8 5.258-1.81 8.14-3.077 1.186 1.291 3.845 3.745 8.098 5.312 4.796 1.767 10.412-.933 10.412-.933s-3.948-5.459-9.151-6.511c-1.471-.297-3.355-.156-5.104.117.981-.496 1.969-1.022 2.97-1.583 1.578-.82 3.165-1.749 4.738-2.772 1.406 1.065 4.393 2.962 8.718 3.783 4.949.938 9.88-2.565 9.88-2.565s-4.796-4.64-10.012-4.822c-1.411-.049-3.125.349-4.706.865 2.229-1.696 4.418-3.583 6.535-5.638 1.513.798 4.776 2.198 9.18 2.299 4.943.112 9.069-4.057 9.069-4.057s-5.469-3.71-10.535-3.052c-1.501.195-3.25.968-4.786 1.802 1.991-2.158 3.89-4.466 5.671-6.91 1.523.519 5.023 1.438 9.457.807 4.794-.682 8.02-5.365 8.02-5.365s-5.949-2.706-10.72-1.259c-1.548.468-3.254 1.651-4.661 2.801 1.682-2.555 3.227-5.234 4.606-8.022 1.569.257 5.108.58 9.264-.735 4.504-1.426 6.767-6.463 6.767-6.463s-6.23-1.661-10.572.499c-1.384.69-2.794 2.071-3.933 3.383 1.196-2.771 2.224-5.633 3.05-8.572 1.573-.004 5.034-.265 8.789-2.191"/><path d="M35.357 74.084c.463 0 .866.061 1.207.183.341.122.626.296.855.521.229.225.404.498.526.817.122.319.196.676.221 1.07.025.463.025.926 0 1.389-.025.394-.099.751-.221 1.07-.122.319-.296.591-.521.817-.225.225-.506.399-.841.521-.335.122-.728.183-1.179.183h-2.368c-.069 0-.128-.025-.179-.075-.05-.05-.075-.11-.075-.178v-6.064c0-.069.025-.128.075-.178.05-.05.11-.075.179-.075h2.321zm1.541 2.591c-.013-.2-.052-.386-.117-.559-.066-.172-.163-.322-.291-.451-.128-.128-.29-.228-.484-.3-.194-.072-.426-.108-.695-.108h-1.259v4.224h1.306c.257 0 .479-.036.667-.108.188-.072.344-.171.47-.296.125-.125.221-.275.287-.451.066-.175.105-.363.117-.563.025-.463.025-.926 0-1.389zm3.636 3.727c0 .069-.025.128-.075.178-.05.05-.11.075-.179.075h-.714c-.069 0-.128-.025-.179-.075-.05-.05-.075-.11-.075-.178v-4.374c0-.069.025-.128.075-.178.05-.05.11-.075.179-.075h.714c.069 0 .128.025.179.075.05.05.075.11.075.178v4.374zm-.207-6.411c.069 0 .128.025.179.075.05.05.075.11.075.178v.732c0 .069-.025.128-.075.178-.05.05-.11.075-.179.075h-.808c-.069 0-.128-.025-.179-.075-.05-.05-.075-.11-.075-.178v-.732c0-.069.025-.128.075-.178.05-.05.11-.075.179-.075h.808zm3.636 7.604c.132 0 .266-.02.404-.061.138-.041.263-.105.376-.192.113-.088.205-.199.277-.333.072-.135.108-.293.108-.474v-.347l-.197.183c-.081.066-.18.127-.296.183-.116.056-.251.103-.404.141-.153.038-.327.056-.521.056-.313 0-.597-.061-.85-.183-.254-.122-.47-.285-.648-.488-.179-.203-.319-.438-.423-.704-.103-.266-.161-.543-.174-.831l-.009-.329.009-.329c.013-.288.07-.565.174-.831.103-.266.244-.501.423-.704.179-.203.395-.366.648-.488.254-.122.537-.183.85-.183.194 0 .368.019.521.056.153.038.288.084.404.141.116.056.215.117.296.183l.197.183v-.216c0-.069.025-.128.075-.178.05-.05.11-.075.179-.075h.714c.069 0 .128.025.179.075.05.05.075.11.075.178v4.403c0 .757-.211 1.328-.634 1.713-.423.385-1.007.577-1.752.577-.319 0-.615-.042-.888-.127-.272-.084-.509-.197-.709-.338-.2-.141-.36-.3-.479-.479-.119-.178-.185-.361-.197-.549-.006-.069.017-.128.07-.178.053-.05.114-.075.183-.075h.639c.088 0 .163.03.225.089l.16.164c.081.106.193.194.334.263.141.069.362.103.662.103zm-1.127-3.642c-.019.175-.019.35 0 .526.038.407.163.699.376.878.213.178.473.268.78.268.307 0 .565-.091.775-.272.21-.181.33-.441.362-.779l.019-.357-.019-.357c-.031-.325-.152-.582-.362-.77-.21-.188-.468-.282-.775-.282s-.567.089-.78.268c-.213.178-.338.471-.376.878zm6.032 2.45c0 .069-.025.128-.075.178-.05.05-.11.075-.179.075h-.714c-.069 0-.128-.025-.179-.075-.05-.05-.075-.11-.075-.178v-4.374c0-.069.025-.128.075-.178.05-.05.11-.075.179-.075h.714c.069 0 .128.025.179.075.05.05.075.11.075.178v4.374zm-.207-6.411c.069 0 .128.025.179.075.05.05.075.11.075.178v.732c0 .069-.025.128-.075.178-.05.05-.11.075-.179.075h-.808c-.069 0-.128-.025-.179-.075-.05-.05-.075-.11-.075-.178v-.732c0-.069.025-.128.075-.178.05-.05.11-.075.179-.075h.808zm3.147 4.9c0 .194.052.349.155.465.103.116.296.174.578.174h.573c.069 0 .128.025.179.075.05.05.075.11.075.178v.62c0 .069-.025.128-.075.178-.05.05-.11.075-.179.075h-.695c-.589 0-1.041-.142-1.358-.427-.316-.285-.474-.721-.474-1.31v-2.018h-.62c-.069 0-.128-.025-.179-.075-.05-.05-.075-.11-.075-.178v-.62c0-.069.025-.128.075-.178.05-.05.11-.075.179-.075h.62v-1.53c0-.069.025-.128.075-.178.05-.05.11-.075.179-.075h.714c.069 0 .128.025.179.075.05.05.075.11.075.178v1.53h1.212c.069 0 .128.025.179.075.05.05.075.11.075.178v.62c0 .069-.025.128-.075.178-.05.05-.11.075-.179.075h-1.212v1.99zm2.48-1.915c.025-.131.083-.272.174-.422.091-.15.219-.291.385-.422s.37-.239.611-.324c.241-.084.521-.127.841-.127.319 0 .608.042.864.127.257.084.478.208.662.371.185.163.327.368.427.615.1.247.15.53.15.85v2.76c0 .069-.025.128-.075.178-.05.05-.11.075-.179.075h-.714c-.069 0-.128-.025-.179-.075-.05-.05-.075-.11-.075-.178v-.31c-.132.181-.321.336-.568.465-.247.128-.562.192-.944.192-.269 0-.51-.036-.723-.108-.213-.072-.391-.174-.536-.305-.144-.131-.255-.286-.334-.465-.078-.178-.117-.374-.117-.587 0-.432.153-.77.46-1.014.307-.244.717-.41 1.231-.498l1.531-.263c0-.257-.085-.438-.254-.544-.169-.106-.379-.16-.629-.16-.157 0-.279.022-.366.066-.088.044-.172.103-.254.178l-.155.103-.155.028h-.874l-.16-.056c-.044-.038-.06-.088-.047-.15zm1.569 2.647c.213 0 .402-.03.568-.089.166-.059.305-.139.418-.239.113-.1.197-.213.254-.338.056-.125.085-.253.085-.385v-.094l-1.278.225c-.257.044-.442.108-.554.192-.113.084-.169.199-.169.343 0 .131.067.228.202.291.135.063.293.094.474.094zm5.017.779c0 .069-.025.128-.075.178-.05.05-.11.075-.179.075h-.714c-.069 0-.128-.025-.179-.075-.05-.05-.075-.11-.075-.178v-6.158c0-.069.025-.128.075-.178.05-.05.11-.075.179-.075h.714c.069 0 .128.025.179.075.05.05.075.11.075.178v6.158zm3.777.253c-.069 0-.128-.025-.179-.075-.05-.05-.075-.11-.075-.178v-6.064c0-.069.025-.128.075-.178.05-.05.11-.075.179-.075h.761c.069 0 .128.025.179.075.05.05.075.11.075.178v6.064c0 .069-.025.128-.075.178-.05.05-.11.075-.179.075h-.761zm6.98-.253c0 .069-.025.128-.075.178-.05.05-.11.075-.179.075h-.714c-.069 0-.128-.025-.179-.075-.05-.05-.075-.11-.075-.178v-2.384c0-.375-.088-.676-.263-.901-.175-.225-.445-.338-.808-.338-.332 0-.593.113-.784.338-.191.225-.287.526-.287.901v2.384c0 .069-.025.128-.075.178-.05.05-.11.075-.179.075h-.714c-.069 0-.128-.025-.179-.075-.05-.05-.075-.11-.075-.178v-4.374c0-.069.025-.128.075-.178.05-.05.11-.075.179-.075h.714c.069 0 .128.025.179.075.05.05.075.11.075.178v.216c.163-.163.354-.297.573-.404.219-.106.479-.16.78-.16.382 0 .701.059.958.178s.463.278.62.479c.157.2.268.433.334.699.066.266.099.546.099.84v2.525zm5.834 0c0 .069-.025.128-.075.178-.05.05-.11.075-.179.075h-.714c-.069 0-.128-.025-.179-.075-.05-.05-.075-.11-.075-.178v-2.384c0-.375-.088-.676-.263-.901-.175-.225-.445-.338-.808-.338-.332 0-.593.113-.784.338-.191.225-.287.526-.287.901v2.384c0 .069-.025.128-.075.178-.05.05-.11.075-.179.075h-.714c-.069 0-.128-.025-.179-.075-.05-.05-.075-.11-.075-.178v-4.374c0-.069.025-.128.075-.178.05-.05.11-.075.179-.075h.714c.069 0 .128.025.179.075.05.05.075.11.075.178v.216c.163-.163.354-.297.573-.404.219-.106.479-.16.78-.16.382 0 .701.059.958.178s.463.278.62.479c.157.2.268.433.334.699.066.266.099.546.099.84v2.525zm3.401-4.722c.344 0 .656.053.935.16.279.106.52.253.723.441.204.188.366.407.489.657.122.25.193.519.211.807l.009.216v.521l-.009.211c-.025.288-.097.557-.216.807s-.28.468-.484.652c-.204.185-.445.33-.723.437-.279.106-.59.16-.935.16-.344 0-.656-.053-.935-.16-.279-.106-.52-.252-.723-.437-.204-.185-.365-.402-.484-.652s-.191-.519-.216-.807l-.014-.211-.005-.258.005-.263.014-.216c.019-.288.089-.557.211-.807s.285-.469.489-.657c.204-.188.445-.335.723-.441.279-.106.59-.16.935-.16zm1.137 2.112c-.019-.194-.064-.355-.136-.483-.072-.128-.161-.23-.268-.305-.106-.075-.222-.127-.348-.155-.125-.028-.254-.042-.385-.042-.132 0-.26.014-.385.042-.125.028-.241.08-.348.155-.106.075-.196.177-.268.305-.072.128-.117.289-.136.483l-.014.188-.005.235.005.239.014.183c.019.194.064.355.136.483.072.128.161.23.268.305.106.075.222.127.348.155.125.028.254.042.385.042.132 0 .26-.014.385-.042.125-.028.241-.08.348-.155.106-.075.196-.177.268-.305.072-.128.117-.289.136-.483l.009-.183v-.474l-.009-.188zm4.106 2.863c-.094 0-.163-.025-.207-.075l-.103-.16-1.888-4.328-.009-.066c0-.069.025-.128.075-.178.05-.05.11-.075.179-.075h.705c.094 0 .163.025.207.075l.103.15 1.25 2.91 1.25-2.91.103-.15c.044-.05.113-.075.207-.075h.705c.069 0 .128.025.179.075.05.05.075.11.075.178l-.009.066-1.888 4.328-.103.16c-.044.05-.113.075-.207.075h-.62zm3.72-3.68c.025-.131.083-.272.174-.422.091-.15.219-.291.385-.422s.37-.239.611-.324c.241-.084.521-.127.841-.127.319 0 .608.042.864.127.257.084.478.208.662.371.185.163.327.368.427.615.1.247.15.53.15.85v2.76c0 .069-.025.128-.075.178-.05.05-.11.075-.179.075h-.714c-.069 0-.128-.025-.179-.075-.05-.05-.075-.11-.075-.178v-.31c-.132.181-.321.336-.568.465-.247.128-.562.192-.944.192-.269 0-.51-.036-.723-.108-.213-.072-.391-.174-.536-.305-.144-.131-.255-.286-.334-.465-.078-.178-.117-.374-.117-.587 0-.432.153-.77.46-1.014.307-.244.717-.41 1.231-.498l1.531-.263c0-.257-.085-.438-.254-.544-.169-.106-.379-.16-.629-.16-.157 0-.279.022-.366.066-.088.044-.172.103-.254.178l-.155.103-.155.028h-.874l-.16-.056c-.044-.038-.06-.088-.047-.15zm1.569 2.647c.213 0 .402-.03.568-.089.166-.059.305-.139.418-.239.113-.1.197-.213.254-.338.056-.125.085-.253.085-.385v-.094l-1.278.225c-.257.044-.442.108-.554.192-.113.084-.169.199-.169.343 0 .131.067.228.202.291.135.063.293.094.474.094zm5.44-.732c0 .194.052.349.155.465.103.116.296.174.578.174h.573c.069 0 .128.025.179.075.05.05.075.11.075.178v.62c0 .069-.025.128-.075.178-.05.05-.11.075-.179.075h-.695c-.589 0-1.041-.142-1.358-.427-.316-.285-.474-.721-.474-1.31v-2.018h-.62c-.069 0-.128-.025-.179-.075-.05-.05-.075-.11-.075-.178v-.62c0-.069.025-.128.075-.178.05-.05.11-.075.179-.075h.62v-1.53c0-.069.025-.128.075-.178.05-.05.11-.075.179-.075h.714c.069 0 .128.025.179.075.05.05.075.11.075.178v1.53h1.212c.069 0 .128.025.179.075.05.05.075.11.075.178v.62c0 .069-.025.128-.075.178-.05.05-.11.075-.179.075h-1.212v1.99zm3.702 1.511c0 .069-.025.128-.075.178-.05.05-.11.075-.179.075h-.714c-.069 0-.128-.025-.179-.075-.05-.05-.075-.11-.075-.178v-4.374c0-.069.025-.128.075-.178.05-.05.11-.075.179-.075h.714c.069 0 .128.025.179.075.05.05.075.11.075.178v4.374zm-.207-6.411c.069 0 .128.025.179.075.05.05.075.11.075.178v.732c0 .069-.025.128-.075.178-.05.05-.11.075-.179.075h-.808c-.069 0-.128-.025-.179-.075-.05-.05-.075-.11-.075-.178v-.732c0-.069.025-.128.075-.178.05-.05.11-.075.179-.075h.808zm3.655 1.69c.344 0 .656.053.935.16.279.106.52.253.723.441.204.188.366.407.489.657.122.25.193.519.211.807l.009.216v.521l-.009.211c-.025.288-.097.557-.216.807s-.28.468-.484.652c-.204.185-.445.33-.723.437-.279.106-.59.16-.935.16-.344 0-.656-.053-.935-.16-.279-.106-.52-.252-.723-.437-.204-.185-.365-.402-.484-.652s-.191-.519-.216-.807l-.014-.211-.005-.258.005-.263.014-.216c.019-.288.089-.557.211-.807s.285-.469.489-.657c.204-.188.445-.335.723-.441.279-.106.59-.16.935-.16zm1.137 2.112c-.019-.194-.064-.355-.136-.483-.072-.128-.161-.23-.268-.305-.106-.075-.222-.127-.348-.155-.125-.028-.254-.042-.385-.042-.132 0-.26.014-.385.042-.125.028-.241.08-.348.155-.106.075-.196.177-.268.305-.072.128-.117.289-.136.483l-.014.188-.005.235.005.239.014.183c.019.194.064.355.136.483.072.128.161.23.268.305.106.075.222.127.348.155.125.028.254.042.385.042.132 0 .26-.014.385-.042.125-.028.241-.08.348-.155.106-.075.196-.177.268-.305.072-.128.117-.289.136-.483l.009-.183v-.474l-.009-.188zm6.886 2.61c0 .069-.025.128-.075.178-.05.05-.11.075-.179.075h-.714c-.069 0-.128-.025-.179-.075-.05-.05-.075-.11-.075-.178v-2.384c0-.375-.088-.676-.263-.901-.175-.225-.445-.338-.808-.338-.332 0-.593.113-.784.338-.191.225-.287.526-.287.901v2.384c0 .069-.025.128-.075.178-.05.05-.11.075-.179.075h-.714c-.069 0-.128-.025-.179-.075-.05-.05-.075-.11-.075-.178v-4.374c0-.069.025-.128.075-.178.05-.05.11-.075.179-.075h.714c.069 0 .128.025.179.075.05.05.075.11.075.178v.216c.163-.163.354-.297.573-.404.219-.106.479-.16.78-.16.382 0 .701.059.958.178s.463.278.62.479c.157.2.268.433.334.699.066.266.099.546.099.84v2.525zm6.567-6.318c.1 0 .175.027.225.08.05.053.094.133.132.239l2.302 5.933.009.066c0 .069-.025.128-.075.178-.05.05-.11.075-.179.075h-.676c-.125 0-.213-.027-.263-.08l-.103-.155-.404-1.042h-2.969l-.404 1.042-.103.155c-.05.053-.138.08-.263.08h-.676c-.069 0-.128-.025-.179-.075-.05-.05-.075-.11-.075-.178l.009-.066 2.302-5.933c.038-.106.081-.186.132-.239.05-.053.125-.08.225-.08h1.033zm.517 4.121l-1.033-2.675-1.033 2.675h2.067zm5.581 1.051c0-.069-.022-.125-.066-.169-.044-.044-.121-.084-.23-.122-.11-.038-.255-.075-.437-.113l-.695-.15c-.276-.063-.504-.141-.686-.235-.182-.094-.327-.203-.437-.329-.11-.125-.186-.268-.23-.427-.044-.16-.066-.333-.066-.521s.044-.372.132-.554c.088-.181.215-.343.38-.483.166-.141.368-.255.606-.343.238-.088.51-.131.817-.131.307 0 .581.034.822.103.241.069.446.16.615.272.169.113.301.243.395.39.094.147.147.296.16.446.006.069-.017.128-.07.178-.053.05-.114.075-.183.075h-.723c-.094 0-.164-.017-.211-.052l-.155-.117-.225-.117c-.094-.034-.235-.052-.423-.052s-.354.028-.498.084c-.144.056-.216.156-.216.3l.052.174c.034.047.1.089.197.127.097.038.232.077.404.117l.672.146c.557.119.95.305 1.179.559.229.253.343.568.343.943 0 .188-.047.371-.141.549-.094.178-.23.338-.409.479-.179.141-.398.253-.658.338-.26.084-.553.127-.878.127-.332 0-.625-.039-.878-.117-.254-.078-.468-.18-.644-.305-.175-.125-.31-.266-.404-.422-.094-.156-.144-.31-.15-.46-.006-.069.017-.128.07-.178.053-.05.114-.075.183-.075h.723c.094 0 .164.022.211.066l.16.15c.06.056.142.106.249.15.106.044.266.066.479.066l.291-.019.277-.061.211-.113c.056-.047.085-.105.085-.174zm3.448 1.145c0 .069-.025.128-.075.178-.05.05-.11.075-.179.075h-.714c-.069 0-.128-.025-.179-.075-.05-.05-.075-.11-.075-.178v-4.374c0-.069.025-.128.075-.178.05-.05.11-.075.179-.075h.714c.069 0 .128.025.179.075.05.05.075.11.075.178v4.374zm-.207-6.411c.069 0 .128.025.179.075.05.05.075.11.075.178v.732c0 .069-.025.128-.075.178-.05.05-.11.075-.179.075h-.808c-.069 0-.128-.025-.179-.075-.05-.05-.075-.11-.075-.178v-.732c0-.069.025-.128.075-.178.05-.05.11-.075.179-.075h.808zm1.503 2.985c.025-.131.083-.272.174-.422.091-.15.219-.291.385-.422s.37-.239.611-.324c.241-.084.521-.127.841-.127.319 0 .608.042.864.127.257.084.478.208.662.371.185.163.327.368.427.615.1.247.15.53.15.85v2.76c0 .069-.025.128-.075.178-.05.05-.11.075-.179.075h-.714c-.069 0-.128-.025-.179-.075-.05-.05-.075-.11-.075-.178v-.31c-.132.181-.321.336-.568.465-.247.128-.562.192-.944.192-.269 0-.51-.036-.723-.108-.213-.072-.391-.174-.536-.305-.144-.131-.255-.286-.334-.465-.078-.178-.117-.374-.117-.587 0-.432.153-.77.46-1.014.307-.244.717-.41 1.231-.498l1.531-.263c0-.257-.085-.438-.254-.544-.169-.106-.379-.16-.629-.16-.157 0-.279.022-.366.066-.088.044-.172.103-.254.178l-.155.103-.155.028h-.874l-.16-.056c-.044-.038-.06-.088-.047-.15zm1.569 2.647c.213 0 .402-.03.568-.089.166-.059.305-.139.418-.239.113-.1.197-.213.254-.338.056-.125.085-.253.085-.385v-.094l-1.278.225c-.257.044-.442.108-.554.192-.113.084-.169.199-.169.343 0 .131.067.228.202.291.135.063.293.094.474.094zm-89.805 13.94h-5.543l-.971 2.503-.11.149c-.052.057-.13.086-.235.086h-.313c-.084 0-.157-.031-.219-.094-.063-.063-.094-.136-.094-.219l.031-.172 3.962-10.154c.042-.104.097-.183.164-.235.068-.052.164-.078.29-.078h.532c.125 0 .222.026.29.078.068.052.123.13.164.235l3.962 10.154.031.172c0 .083-.031.156-.094.219s-.136.094-.219.094h-.313c-.104 0-.183-.029-.235-.086l-.11-.149-.971-2.503zm-5.167-.939h4.791l-2.396-6.164-2.396 6.164zm16.786 1.877l1.832-8.918c.031-.156.146-.235.344-.235h.329c.084 0 .157.031.219.094.063.063.094.136.094.219l-.031.188-2.145 10.076c-.063.25-.209.375-.438.375h-.235c-.251 0-.412-.125-.485-.375l-2.083-6.602-2.083 6.602c-.084.25-.245.375-.485.375h-.235c-.23 0-.376-.125-.438-.375l-2.145-10.076-.031-.188c0-.083.031-.156.094-.219s.136-.094.219-.094h.329c.198 0 .313.078.344.235l1.832 8.918 1.942-6.368c.031-.094.084-.177.157-.25.073-.073.183-.11.329-.11h.344c.146 0 .256.037.329.11.073.073.125.156.157.25l1.942 6.368zm11.963-.939h-5.543l-.971 2.503-.11.149c-.052.057-.13.086-.235.086h-.313c-.084 0-.157-.031-.219-.094-.063-.063-.094-.136-.094-.219l.031-.172 3.962-10.154c.042-.104.097-.183.164-.235.068-.052.164-.078.29-.078h.532c.125 0 .222.026.29.078.068.052.123.13.164.235l3.962 10.154.031.172c0 .083-.031.156-.094.219s-.136.094-.219.094h-.313c-.104 0-.183-.029-.235-.086l-.11-.149-.971-2.503zm-5.167-.939h4.791l-2.396-6.164-2.396 6.164zm13.889-7.275c1.096 0 1.97.261 2.623.782.652.522.979 1.314.979 2.378 0 .845-.206 1.515-.619 2.01-.412.495-.994.832-1.746 1.009l2.521 4.287.047.172c0 .083-.031.156-.094.219s-.136.094-.219.094h-.188c-.177 0-.305-.042-.384-.125-.078-.083-.149-.183-.211-.297l-2.49-4.209h-3.226v4.287c0 .229-.12.344-.36.344h-.282c-.23 0-.344-.115-.344-.344v-10.248c0-.24.115-.36.344-.36h3.648zm-3.006 5.382h2.928c1.795 0 2.693-.741 2.693-2.222 0-1.481-.898-2.222-2.693-2.222h-2.928v4.443zm13.654-5.382c.825 0 1.514.091 2.067.274.553.183.997.454 1.331.814.334.36.574.803.72 1.33.146.527.224 1.129.235 1.807.01.469.016.884.016 1.244s-.005.774-.016 1.244c-.021.72-.102 1.346-.243 1.877-.141.532-.376.973-.705 1.322-.329.349-.765.61-1.307.782-.543.172-1.216.258-2.02.258h-3.413c-.23 0-.344-.115-.344-.344v-10.248c0-.24.115-.36.344-.36h3.335zm3.367 4.302c-.01-.574-.078-1.072-.204-1.494-.125-.422-.324-.772-.595-1.048-.271-.276-.624-.482-1.057-.618-.433-.136-.963-.203-1.589-.203h-2.615v9.074h2.693c.626 0 1.151-.063 1.574-.188.423-.125.765-.321 1.026-.587.261-.266.451-.613.572-1.04.12-.428.185-.949.196-1.565l.008-.626.008-.54-.008-.532-.008-.634zm9.301-.907c-.219 0-.329-.099-.329-.297.01-.355.084-.725.219-1.111.136-.386.342-.738.619-1.056.277-.318.629-.579 1.057-.782.428-.203.939-.305 1.535-.305.595 0 1.101.089 1.519.266.418.177.759.412 1.026.704.266.292.459.631.579 1.017.12.386.18.782.18 1.189 0 .647-.141 1.22-.423 1.721-.282.501-.71 1.017-1.284 1.549l-3.664 3.724h5.246c.24 0 .36.12.36.36v.235c0 .229-.12.344-.36.344h-6.42c-.23 0-.344-.115-.344-.344v-.235c0-.104.029-.206.086-.305.057-.099.159-.216.305-.352l4.055-4.052c.292-.271.532-.516.72-.735.188-.219.337-.43.446-.634.11-.203.185-.407.227-.61.042-.203.063-.425.063-.665 0-.699-.198-1.246-.595-1.643-.397-.396-.971-.595-1.722-.595-.72 0-1.284.206-1.691.618-.407.412-.652.957-.736 1.635-.021.125-.07.216-.149.274-.078.057-.149.086-.211.086h-.313zm9.473.767c.01-.574.078-1.121.204-1.643.125-.522.334-.98.626-1.377.292-.396.676-.712 1.151-.947s1.067-.352 1.777-.352 1.302.117 1.777.352c.475.235.856.55 1.143.947.287.396.496.855.626 1.377s.201 1.069.211 1.643c.021.897.021 1.773 0 2.628-.021.574-.094 1.121-.219 1.643s-.331.98-.618 1.377c-.287.396-.668.712-1.143.947s-1.067.352-1.777.352-1.302-.117-1.777-.352c-.475-.235-.856-.55-1.143-.947-.287-.396-.496-.855-.626-1.377s-.201-1.069-.211-1.643c-.021-.855-.021-1.731 0-2.628zm6.529.078c-.021-1.053-.258-1.893-.712-2.519-.454-.626-1.14-.939-2.059-.939-.929 0-1.618.313-2.067.939-.449.626-.684 1.465-.705 2.519-.01.438-.016.847-.016 1.228s.005.795.016 1.244c.021 1.074.256 1.919.705 2.535.449.615 1.138.923 2.067.923.929 0 1.618-.308 2.067-.923.449-.615.684-1.46.705-2.535.01-.449.016-.863.016-1.244s-.005-.79-.016-1.228zm7.954 6.368c0 .229-.115.344-.344.344h-.298c-.23 0-.344-.115-.344-.344v-9.325l-2.803 2.159c-.188.136-.35.115-.485-.063l-.172-.219c-.063-.083-.089-.169-.078-.258.01-.089.057-.164.141-.227l3.335-2.566.204-.094.204-.016h.298c.23 0 .344.115.344.344v10.263zm9.379-3.16c0-.407-.073-.769-.219-1.087-.146-.318-.344-.587-.595-.806-.251-.219-.545-.386-.885-.501-.339-.115-.702-.172-1.088-.172-.397 0-.718.05-.963.149-.245.099-.454.206-.626.321l-.454.321c-.13.099-.279.149-.446.149h-.282c-.094 0-.177-.034-.251-.102-.073-.068-.104-.149-.094-.243l.47-5.116c.021-.24.136-.36.344-.36h5.105c.23 0 .344.115.344.344v.25c0 .229-.115.344-.344.344h-4.494l-.329 3.536c.104-.073.321-.18.65-.321.329-.141.786-.211 1.37-.211.522 0 1.013.076 1.472.227.459.151.859.375 1.198.673.339.297.608.662.806 1.095.198.433.298.936.298 1.51 0 .615-.099 1.15-.298 1.604-.198.454-.467.834-.806 1.142-.339.308-.739.537-1.198.688-.459.151-.95.227-1.472.227-.574 0-1.08-.083-1.519-.25-.438-.167-.809-.386-1.112-.657-.303-.271-.538-.579-.705-.923-.167-.344-.256-.699-.266-1.064-.01-.094.016-.167.078-.219.063-.052.141-.078.235-.078h.298c.084 0 .159.021.227.063.068.042.123.141.164.297.084.344.211.636.384.876.172.24.376.435.611.587.235.151.491.261.767.329.277.068.556.102.838.102.386 0 .749-.06 1.088-.18.339-.12.634-.295.885-.524.251-.229.449-.514.595-.853.146-.339.219-.728.219-1.166z"/><path d="M50.385 63.462l-1.327 4.609c-.051.154-.116.28-.193.378-.077.098-.193.146-.347.146h-1.25c-.154 0-.275-.049-.363-.146-.087-.098-.147-.224-.177-.378l-1.975-9.727-.015-.123c0-.113.041-.211.123-.293.082-.082.18-.123.293-.123h1.142c.103 0 .201.031.293.092.093.062.154.17.185.324l1.296 6.536 1.142-4.116c.021-.072.069-.164.147-.277.077-.113.208-.17.393-.17h1.265c.185 0 .316.057.393.17.077.113.126.206.147.277l1.142 4.116 1.296-6.536c.031-.154.093-.262.185-.324.093-.062.19-.092.293-.092h1.142c.113 0 .211.041.293.123.082.082.123.18.123.293l-.015.123-1.975 9.727c-.031.154-.09.28-.177.378-.087.098-.208.146-.363.146h-1.25c-.154 0-.27-.049-.347-.146-.077-.098-.141-.224-.193-.378l-1.327-4.609zm11.663 5.133c-.113 0-.211-.041-.293-.123-.082-.082-.123-.18-.123-.293v-9.958c0-.113.041-.211.123-.293.082-.082.18-.123.293-.123h1.25c.113 0 .211.041.293.123.082.082.123.18.123.293v9.958c0 .113-.041.211-.123.293-.082.082-.18.123-.293.123h-1.25zm14.934 0c-.175 0-.309-.046-.401-.139l-.201-.216-4.32-6.412v6.351c0 .113-.041.211-.123.293-.082.082-.18.123-.293.123h-1.25c-.113 0-.211-.041-.293-.123-.082-.082-.123-.18-.123-.293v-9.958c0-.113.041-.211.123-.293.082-.082.18-.123.293-.123h1.08c.175 0 .309.046.401.139l.201.216 4.32 6.412v-6.351c0-.113.041-.211.123-.293.082-.082.18-.123.293-.123h1.25c.113 0 .211.041.293.123.082.082.123.18.123.293v9.958c0 .113-.041.211-.123.293-.082.082-.18.123-.293.123h-1.08zm14.764 0c-.175 0-.309-.046-.401-.139l-.201-.216-4.32-6.412v6.351c0 .113-.041.211-.123.293-.082.082-.18.123-.293.123h-1.25c-.113 0-.211-.041-.293-.123-.082-.082-.123-.18-.123-.293v-9.958c0-.113.041-.211.123-.293.082-.082.18-.123.293-.123h1.08c.175 0 .309.046.401.139l.201.216 4.32 6.412v-6.351c0-.113.041-.211.123-.293.082-.082.18-.123.293-.123h1.25c.113 0 .211.041.293.123.082.082.123.18.123.293v9.958c0 .113-.041.211-.123.293-.082.082-.18.123-.293.123h-1.08zm14.949-1.927c.113 0 .211.041.293.123.082.082.123.18.123.293v1.094c0 .113-.041.211-.123.293-.082.082-.18.123-.293.123h-6.773c-.113 0-.211-.041-.293-.123-.082-.082-.123-.18-.123-.293v-9.958c0-.113.041-.211.123-.293.082-.082.18-.123.293-.123h6.649c.113 0 .211.041.293.123.082.082.123.18.123.293v1.094c0 .113-.041.211-.123.293-.082.082-.18.123-.293.123h-4.983v2.451h4.644c.113 0 .211.041.293.123.082.082.123.18.123.293v1.094c0 .113-.041.211-.123.293-.082.082-.18.123-.293.123h-4.644v2.559h5.106zm10.583-8.863c1.286 0 2.263.298 2.931.894.669.596 1.003 1.423 1.003 2.482 0 .75-.172 1.39-.517 1.919-.345.529-.851.922-1.52 1.179l2.129 3.807.046.17c0 .092-.033.172-.1.239s-.147.1-.239.1h-1.311c-.206 0-.357-.049-.455-.146-.098-.098-.167-.188-.208-.27l-2.021-3.592h-2.052v3.592c0 .113-.041.211-.123.293-.082.082-.18.123-.293.123h-1.25c-.113 0-.211-.041-.293-.123-.082-.082-.123-.18-.123-.293v-9.958c0-.113.041-.211.123-.293.082-.082.18-.123.293-.123h3.98zm-2.314 4.856h2.237c.586 0 1.054-.103 1.404-.308.35-.206.525-.596.525-1.172 0-.575-.175-.961-.525-1.156-.35-.195-.818-.293-1.404-.293h-2.237v2.929z"/></g></svg>