<svg width="167" height="158" viewBox="0 0 167 158" xmlns="http://www.w3.org/2000/svg"><title>forbes</title><desc>Created with Sketch.</desc><g fill="#A0B0B1"><path d="M166.631 88.045s-6.312-.604-10.114 2.174c-1.191.874-2.292 2.397-3.147 3.83.647-2.924 1.082-5.913 1.295-8.952 1.482-.239 4.829-1.035 8.154-3.533 3.567-2.678 3.849-7.925 3.849-7.925s-6.199.43-9.363 3.72c-1.024 1.066-1.824 2.78-2.394 4.337.16-3.212.054-6.395-.28-9.524 1.406-.481 4.46-1.787 7.194-4.706 2.955-3.152 2.282-8.261 2.282-8.261s-5.909 1.407-8.366 5.087c-.81 1.215-1.273 3.041-1.541 4.656-.513-3.246-1.263-6.426-2.224-9.51 1.187-.625 4.041-2.379 6.239-5.77 2.287-3.517.711-8.339.711-8.339s-5.449 2.302-7.158 6.248c-.633 1.471-.703 3.623-.622 5.347-1.166-3.307-2.569-6.491-4.153-9.53.973-.728 3.52-2.897 5.079-6.643 1.565-3.759-.826-8.163-.826-8.163s-4.838 3.094-5.774 7.177c-.374 1.646.037 3.967.463 5.668-1.816-3.244-3.838-6.298-6.007-9.116.819-.876 2.86-3.369 3.681-7.204.83-3.88-2.272-7.747-2.272-7.747s-4.115 3.761-4.277 7.851c-.063 1.609.71 3.712 1.418 5.276-2.377-2.888-4.898-5.501-7.498-7.773.629-.969 2.154-3.707 2.255-7.553.1-3.878-3.597-7.112-3.597-7.112s-3.288 4.288-2.702 8.26c.241 1.644 1.474 3.667 2.469 5.078-.928-.755-1.861-1.47-2.799-2.134-2.112-1.604-4.193-3.016-6.217-4.273.369-.833 1.531-3.855.891-7.828-.606-3.758-4.759-6.288-4.759-6.288s-2.402 4.663-1.116 8.406c.607 1.774 2.564 3.818 3.808 4.993-3.783-2.259-7.321-3.941-10.419-5.2.192-.77.824-3.935-.545-7.762-1.262-3.529-5.731-5.306-5.731-5.306s-1.466 4.885.449 8.291c.968 1.725 3.484 3.504 4.855 4.39-2.127-.829-4.016-1.448-5.597-1.916-.477-.566-2.804-3.17-5.649-3.628-2.277-.363-6.101 1.015-6.101 1.015s1.834 2.349 5.538 3.546c2.484.802 5.227-.312 6.052-.694 1.921.624 4.314 1.484 7.03 2.673-1.593-.258-4.843-.654-6.877-.029-3.888 1.198-6.439 5.675-6.439 5.675s4.526 1.637 8.041-.082c3.76-1.831 5.636-4.47 6.101-5.196 3.047 1.376 6.473 3.167 10.081 5.487-1.672-.531-4.425-1.257-6.358-.997-4.133.556-7.54 4.629-7.54 4.629s4.242 2.399 8.097 1.259c3.913-1.153 6.265-3.321 7.012-4.099 1.598 1.069 3.227 2.237 4.877 3.527 1.468 1.075 2.926 2.264 4.36 3.558-1.572-.815-4.253-2.038-6.277-2.1-4.26-.132-8.448 3.396-8.448 3.396s3.811 3.116 7.901 2.613c4.188-.513 6.97-2.328 7.838-2.968 2.587 2.444 5.076 5.223 7.39 8.278-1.455-1.067-3.665-2.492-5.504-2.854-4.258-.843-9.128 2.002-9.128 2.002s3.24 3.768 7.442 3.944c4.121.176 7.168-1.063 8.291-1.606 2.014 2.804 3.878 5.816 5.536 9.002-1.253-1.261-2.999-2.787-4.605-3.391-4.118-1.556-9.552.492-9.552.492s2.547 4.325 6.737 5.202c3.94.83 7.137.183 8.478-.188 1.491 3.102 2.787 6.35 3.836 9.708-1.023-1.471-2.482-3.276-3.973-4.148-3.842-2.251-9.689-1.098-9.689-1.098s1.744 4.772 5.789 6.352c3.805 1.489 7.14 1.373 8.559 1.224.923 3.363 1.589 6.827 1.966 10.352-.75-1.672-1.906-3.831-3.284-4.993-3.44-2.9-9.534-2.715-9.534-2.715s.855 5.083 4.624 7.347c3.567 2.146 6.962 2.575 8.399 2.657.224 3.276.192 6.6-.138 9.943-.45-1.74-1.176-3.859-2.254-5.149-2.912-3.491-9.069-4.32-9.069-4.32s-.1 5.251 3.262 8.154c3.094 2.676 6.329 3.693 7.815 4.041-.347 3.21-.958 6.354-1.788 9.411-.127-1.814-.46-4.034-1.294-5.497-2.266-3.992-8.298-5.851-8.298-5.851s-1.091 5.262 1.739 8.735c2.574 3.164 5.586 4.724 7.038 5.341-.946 2.95-2.095 5.815-3.418 8.575.186-1.777.23-3.886-.298-5.396-1.529-4.39-7.237-7.262-7.237-7.262s-2.087 5.104.103 9.068c1.947 3.529 4.601 5.585 5.971 6.481-1.438 2.683-3.034 5.255-4.758 7.696.486-1.702.871-3.682.639-5.209-.708-4.664-5.902-8.503-5.902-8.503s-3.063 4.782-1.609 9.131c1.272 3.815 3.508 6.31 4.734 7.458-1.979 2.537-4.081 4.915-6.274 7.101.853-1.681 1.695-3.73 1.753-5.388.165-4.804-4.335-9.527-4.335-9.527s-3.97 4.295-3.33 8.905c.573 4.139 2.417 7.056 3.416 8.376-2.461 2.23-5.004 4.229-7.578 5.96 1.196-1.56 2.469-3.522 2.842-5.207 1.07-4.801-2.559-10.298-2.559-10.298s-4.802 3.653-5.029 8.396c-.202 4.223 1.086 7.444 1.842 8.951-.989.584-1.977 1.132-2.965 1.634-1.792.987-3.542 1.859-5.251 2.641 1.409-1.321 2.882-2.952 3.529-4.469 1.979-4.65-.63-10.778-.63-10.778s-5.516 2.872-6.637 7.598c-.978 4.119-.34 7.518.135 9.2-3.133 1.257-6.054 2.201-8.681 2.911 1.643-1.087 3.395-2.459 4.318-3.858 2.867-4.342 1.397-10.935 1.397-10.935s-6.081 1.965-8.099 6.53c-1.744 3.948-1.759 7.444-1.604 9.227-4.3.916-7.31.888-8.59 1.014-1.331.114-3.656.22-6.332-.076-1.528-.174-4.243-.164-7.877-.938.155-1.783.143-5.279-1.604-9.227-2.016-4.564-8.098-6.53-8.098-6.53s-1.471 6.593 1.393 10.935c.923 1.399 2.677 2.771 4.321 3.858-2.627-.71-5.549-1.654-8.681-2.911.475-1.682 1.113-5.081.135-9.2-1.121-4.726-6.638-7.598-6.638-7.598s-2.609 6.128-.631 10.778c.648 1.516 2.122 3.148 3.53 4.469-1.709-.782-3.462-1.654-5.254-2.641-.985-.502-1.974-1.05-2.962-1.634.757-1.507 2.044-4.728 1.841-8.951-.225-4.743-5.029-8.396-5.029-8.396s-3.63 5.497-2.559 10.298c.375 1.685 1.646 3.647 2.841 5.209-2.572-1.733-5.116-3.731-7.577-5.962.998-1.32 2.844-4.237 3.414-8.376.643-4.61-3.332-8.905-3.332-8.905s-4.496 4.723-4.334 9.527c.058 1.658.901 3.709 1.754 5.389-2.194-2.186-4.295-4.565-6.271-7.1 1.223-1.15 3.459-3.644 4.73-7.46 1.453-4.349-1.606-9.131-1.606-9.131s-5.196 3.839-5.904 8.503c-.232 1.527.153 3.507.638 5.209-1.721-2.441-3.316-5.012-4.758-7.696 1.37-.896 4.028-2.952 5.971-6.481 2.189-3.964.103-9.068.103-9.068s-5.709 2.873-7.238 7.262c-.526 1.511-.483 3.619-.298 5.396-1.324-2.76-2.472-5.625-3.418-8.575 1.451-.617 4.463-2.177 7.038-5.341 2.829-3.473 1.741-8.735 1.741-8.735s-6.032 1.859-8.298 5.851c-.835 1.462-1.166 3.683-1.293 5.497-.833-3.057-1.444-6.201-1.791-9.411 1.486-.349 4.721-1.365 7.815-4.041 3.362-2.903 3.262-8.154 3.262-8.154s-6.157.829-9.066 4.32c-1.081 1.291-1.805 3.409-2.256 5.147-.331-3.34-.363-6.664-.135-9.94 1.436-.082 4.828-.512 8.395-2.657 3.768-2.264 4.624-7.347 4.624-7.347s-6.095-.185-9.534 2.715c-1.378 1.162-2.534 3.32-3.285 4.993.378-3.525 1.044-6.988 1.967-10.352 1.419.148 4.753.265 8.558-1.224 4.046-1.581 5.792-6.352 5.792-6.352s-5.849-1.153-9.695 1.098c-1.488.871-2.946 2.675-3.97 4.145 1.051-3.357 2.344-6.603 3.835-9.705 1.344.371 4.538 1.018 8.478.188 4.192-.877 6.737-5.202 6.737-5.202s-5.432-2.049-9.554-.492c-1.604.605-3.35 2.13-4.603 3.389 1.658-3.184 3.522-6.196 5.536-8.999 1.125.543 4.17 1.782 8.29 1.606 4.203-.176 7.443-3.944 7.443-3.944s-4.871-2.846-9.129-2.002c-1.836.362-4.045 1.786-5.504 2.854 2.314-3.056 4.804-5.834 7.39-8.277.868.639 3.65 2.454 7.837 2.967 4.091.503 7.903-2.613 7.903-2.613s-4.19-3.528-8.453-3.396c-2.019.062-4.701 1.284-6.272 2.1 1.432-1.294 2.89-2.483 4.361-3.558 1.646-1.29 3.275-2.457 4.875-3.527.749.778 3.1 2.946 7.013 4.099 3.852 1.14 8.095-1.259 8.095-1.259s-3.407-4.073-7.543-4.629c-1.929-.26-4.683.464-6.357.997 3.612-2.32 7.035-4.11 10.082-5.486.466.726 2.342 3.364 6.102 5.196 3.515 1.719 8.041.082 8.041.082s-2.552-4.476-6.44-5.675c-2.031-.625-5.281-.229-6.875.029 2.717-1.189 5.106-2.049 7.027-2.673.828.382 3.57 1.496 6.052.694 3.705-1.197 5.539-3.546 5.539-3.546s-3.825-1.378-6.099-1.015c-2.847.459-5.173 3.062-5.651 3.628-1.581.468-3.47 1.088-5.596 1.916 1.371-.884 3.885-2.664 4.856-4.39 1.917-3.406.448-8.291.448-8.291s-4.468 1.777-5.732 5.306c-1.368 3.827-.735 6.992-.545 7.762-3.095 1.259-6.635 2.941-10.415 5.198 1.241-1.172 3.2-3.217 3.805-4.99 1.286-3.742-1.113-8.406-1.113-8.406s-4.153 2.53-4.758 6.288c-.64 3.973.518 6.994.888 7.828-2.024 1.257-4.105 2.669-6.216 4.273-.939.664-1.872 1.38-2.8 2.134.995-1.411 2.229-3.434 2.472-5.078.585-3.972-2.702-8.26-2.702-8.26s-3.699 3.234-3.6 7.112c.1 3.846 1.626 6.584 2.254 7.553-2.599 2.272-5.123 4.885-7.495 7.773.706-1.565 1.479-3.668 1.416-5.276-.162-4.09-4.278-7.851-4.278-7.851s-3.104 3.866-2.271 7.747c.821 3.835 2.862 6.328 3.68 7.204-2.169 2.817-4.19 5.869-6.007 9.115.427-1.702.84-4.021.463-5.667-.933-4.083-5.774-7.177-5.774-7.177s-2.391 4.404-.825 8.163c1.559 3.746 4.105 5.915 5.078 6.643-1.584 3.039-2.987 6.223-4.153 9.53.08-1.723.01-3.876-.625-5.347-1.707-3.946-7.155-6.248-7.155-6.248s-1.574 4.822.71 8.339c2.199 3.392 5.051 5.145 6.242 5.77-.964 3.084-1.714 6.263-2.227 9.507-.267-1.614-.73-3.44-1.541-4.654-2.457-3.68-8.366-5.087-8.366-5.087s-.673 5.11 2.282 8.261c2.734 2.919 5.789 4.225 7.192 4.706-.332 3.13-.435 6.311-.278 9.524-.57-1.556-1.37-3.273-2.394-4.337-3.165-3.29-9.364-3.72-9.364-3.72s.283 5.248 3.848 7.925c3.325 2.498 6.674 3.293 8.155 3.533.213 3.039.651 6.028 1.296 8.952-.855-1.432-1.956-2.955-3.147-3.83-3.802-2.778-10.114-2.174-10.114-2.174s1.275 5.224 5.363 7.32c3.753 1.926 7.213 2.187 8.786 2.191.826 2.938 1.852 5.801 3.05 8.572-1.138-1.311-2.549-2.693-3.932-3.383-4.345-2.16-10.572-.499-10.572-.499s2.264 5.037 6.765 6.463c4.157 1.315 7.698.992 9.266.735 1.376 2.788 2.924 5.467 4.606 8.022-1.407-1.151-3.115-2.333-4.661-2.801-4.769-1.447-10.717 1.259-10.717 1.259s3.227 4.683 8.018 5.365c4.431.63 7.933-.288 9.457-.807 1.781 2.443 3.68 4.752 5.671 6.91-1.536-.834-3.284-1.607-4.786-1.802-5.066-.658-10.535 3.052-10.535 3.052s4.125 4.169 9.069 4.057c4.403-.102 7.665-1.501 9.182-2.299 2.114 2.055 4.303 3.942 6.532 5.638-1.581-.516-3.294-.913-4.706-.865-5.213.182-10.012 4.822-10.012 4.822s4.931 3.503 9.88 2.565c4.325-.821 7.31-2.715 8.716-3.783 1.579 1.023 3.16 1.953 4.741 2.772 1.001.561 1.989 1.088 2.967 1.583-1.744-.273-3.63-.414-5.101-.117-5.204 1.052-9.151 6.511-9.151 6.511s5.616 2.701 10.413.933c4.253-1.568 6.912-4.022 8.098-5.312 2.882 1.267 5.616 2.277 8.14 3.077-1.778.021-3.657.198-5.053.732-5.034 1.925-7.971 8.071-7.971 8.071s6.152 1.775 10.638-.801c3.957-2.269 6.164-5.155 7.122-6.659l.678.166c2.723.633 13.301 2.75 24.498.501.896-.195 1.847-.415 2.857-.667.958 1.503 3.165 4.389 7.122 6.659 4.486 2.576 10.637.801 10.637.801s-2.937-6.147-7.97-8.071c-1.396-.534-3.275-.711-5.053-.732 2.524-.8 5.258-1.81 8.14-3.077 1.186 1.291 3.845 3.745 8.098 5.312 4.796 1.767 10.412-.933 10.412-.933s-3.948-5.459-9.151-6.511c-1.471-.297-3.355-.156-5.104.117.981-.496 1.969-1.022 2.97-1.583 1.578-.82 3.165-1.749 4.738-2.772 1.406 1.065 4.393 2.962 8.718 3.783 4.949.938 9.88-2.565 9.88-2.565s-4.796-4.64-10.012-4.822c-1.411-.049-3.125.349-4.706.865 2.229-1.696 4.418-3.583 6.535-5.638 1.513.798 4.776 2.198 9.18 2.299 4.943.112 9.069-4.057 9.069-4.057s-5.469-3.71-10.535-3.052c-1.501.195-3.25.968-4.786 1.802 1.991-2.158 3.89-4.466 5.671-6.91 1.523.519 5.023 1.438 9.457.807 4.794-.682 8.02-5.365 8.02-5.365s-5.949-2.706-10.72-1.259c-1.548.468-3.254 1.651-4.661 2.801 1.682-2.555 3.227-5.234 4.606-8.022 1.569.257 5.108.58 9.264-.735 4.504-1.426 6.767-6.463 6.767-6.463s-6.23-1.661-10.572.499c-1.384.69-2.794 2.071-3.933 3.383 1.196-2.771 2.224-5.633 3.05-8.572 1.573-.004 5.034-.265 8.789-2.191 4.086-2.096 5.361-7.32 5.361-7.32z"/><path d="M55.273 61.403c.095 0 .177.035.247.104.069.069.104.151.104.246v1.374c0 .095-.035.177-.104.246-.069.069-.151.104-.247.104h-3.879v1.776h3.62c.095 0 .177.035.247.104.069.069.104.151.104.246v1.374c0 .095-.035.177-.104.246-.069.069-.151.104-.247.104h-3.62v2.8c0 .095-.035.177-.104.246-.069.069-.151.104-.247.104h-1.7c-.095 0-.177-.035-.247-.104-.069-.069-.104-.151-.104-.246v-8.375c0-.095.035-.177.104-.246.069-.069.151-.104.247-.104h5.929zm4.58 3.384c.026-.484.132-.94.318-1.368.186-.428.45-.799.791-1.115.342-.315.757-.566 1.246-.752.489-.186 1.053-.279 1.693-.279.631 0 1.194.093 1.687.279.493.186.91.436 1.252.752.342.315.605.687.791 1.115.186.428.292.884.318 1.368.017.372.026.761.026 1.167s-.009.786-.026 1.141c-.026.484-.132.94-.318 1.368-.186.428-.45.802-.791 1.121-.342.32-.759.57-1.252.752-.493.181-1.055.272-1.687.272-.64 0-1.204-.091-1.693-.272-.489-.181-.904-.432-1.246-.752-.342-.32-.605-.694-.791-1.121-.186-.428-.292-.884-.318-1.368-.017-.354-.026-.735-.026-1.141s.009-.795.026-1.167zm5.696 2.243l.026-.519.013-.583-.013-.577-.026-.499c-.017-.216-.063-.415-.136-.596-.074-.181-.177-.339-.311-.473-.134-.134-.301-.24-.5-.318-.199-.078-.432-.117-.701-.117-.268 0-.502.039-.701.117-.199.078-.365.184-.5.318-.134.134-.238.292-.311.473-.074.181-.119.38-.136.596-.017.147-.028.313-.032.499l-.006.577.006.583c.004.19.015.363.032.519.035.432.184.791.448 1.076.264.285.664.428 1.2.428.536 0 .934-.143 1.194-.428.259-.285.411-.644.454-1.076zm11.028-5.626c.571 0 1.081.06 1.531.181.45.121.833.302 1.148.544.316.242.558.551.727.927.169.376.253.815.253 1.316 0 .648-.134 1.186-.402 1.614-.268.428-.649.754-1.142.979l1.609 3.085.039.143c0 .078-.028.145-.084.201-.056.056-.123.084-.201.084h-1.765c-.173 0-.296-.039-.37-.117l-.175-.233-1.44-2.774h-1.194v2.774c0 .095-.035.177-.104.246-.069.069-.151.104-.247.104h-1.7c-.095 0-.177-.035-.247-.104-.069-.069-.104-.151-.104-.246v-8.375c0-.095.035-.177.104-.246.069-.069.151-.104.247-.104h3.516zm-1.466 3.928h1.466c.363 0 .664-.069.902-.207.238-.138.357-.389.357-.752s-.119-.614-.357-.752-.538-.207-.902-.207h-1.466v1.919zm10.211 5.147c-.095 0-.177-.035-.247-.104-.069-.069-.104-.151-.104-.246v-8.375c0-.095.035-.177.104-.246.069-.069.151-.104.247-.104h4.178c.58 0 1.068.08 1.466.24.398.16.716.367.954.622s.409.544.512.869c.104.324.156.646.156.966 0 .251-.028.469-.084.655-.056.186-.123.346-.201.48-.078.134-.158.242-.24.324l-.201.188c.337.233.573.503.707.81.134.307.201.676.201 1.108 0 .354-.052.7-.156 1.037-.104.337-.275.637-.512.901-.238.264-.547.475-.928.635-.381.16-.848.24-1.401.24h-4.45zm4.852-6.326c0-.225-.067-.404-.201-.538s-.331-.201-.59-.201h-2.011v1.478h2.011c.259 0 .456-.067.59-.201.134-.134.201-.313.201-.538zm-2.802 4.317h2.141c.259 0 .467-.076.623-.227.156-.151.234-.339.234-.564 0-.225-.078-.413-.234-.564-.156-.151-.363-.227-.623-.227h-2.141v1.582zm16.581-.065c.095 0 .177.035.247.104.069.069.104.151.104.246v1.374c0 .095-.035.177-.104.246-.069.069-.151.104-.247.104h-6.15c-.095 0-.177-.035-.247-.104-.069-.069-.104-.151-.104-.246v-8.375c0-.095.035-.177.104-.246.069-.069.151-.104.247-.104h6.046c.095 0 .177.035.247.104.069.069.104.151.104.246v1.374c0 .095-.035.177-.104.246-.069.069-.151.104-.247.104h-3.996v1.4h3.711c.095 0 .177.035.247.104.069.069.104.151.104.246v1.374c0 .095-.035.177-.104.246-.069.069-.151.104-.247.104h-3.711v1.452h4.1zm8.459-7.13c.554 0 1.062.08 1.524.24.463.16.863.365 1.2.616.337.251.601.527.791.83.19.302.29.592.298.869 0 .078-.028.145-.084.201-.056.056-.119.084-.188.084h-1.7c-.121 0-.218-.017-.292-.052l-.227-.156-.123-.13c-.056-.06-.136-.123-.24-.188-.104-.065-.234-.121-.389-.169-.156-.048-.346-.071-.571-.071-.164 0-.322.011-.474.032-.151.022-.285.056-.402.104-.117.048-.212.115-.285.201-.074.086-.11.194-.11.324s.041.238.123.324c.082.086.221.166.415.24.195.073.452.145.772.214l1.194.246c.476.095.891.216 1.246.363s.651.331.889.551c.238.22.415.48.532.778.117.298.175.65.175 1.057 0 .441-.099.834-.298 1.18-.199.346-.478.642-.837.888s-.783.434-1.271.564c-.489.13-1.023.194-1.602.194-.588 0-1.124-.078-1.609-.233-.484-.156-.902-.361-1.252-.616s-.625-.542-.824-.862c-.199-.32-.303-.644-.311-.972 0-.078.028-.145.084-.201.056-.056.119-.084.188-.084h1.7c.121 0 .216.015.285.045l.208.136.156.169c.069.078.162.158.279.24.117.082.264.153.441.214.177.06.396.091.655.091.458 0 .841-.05 1.148-.149.307-.099.461-.279.461-.538 0-.13-.056-.238-.169-.324-.112-.086-.281-.166-.506-.24-.225-.073-.512-.145-.863-.214-.35-.069-.763-.156-1.239-.259-.891-.19-1.542-.508-1.953-.953-.411-.445-.616-1.039-.616-1.783 0-.372.084-.726.253-1.063.169-.337.413-.635.733-.894s.707-.465 1.161-.616c.454-.151.962-.227 1.524-.227zm-69.993 16.14c.114 0 .213.041.296.124.083.083.125.181.125.296v1.105c0 .114-.039.22-.117.319l-.226.257-2.273 2.396c.467.062.89.176 1.269.342.379.166.703.381.973.646.27.264.477.578.623.941.145.363.218.767.218 1.213 0 .539-.106 1.019-.319 1.439-.213.42-.509.775-.887 1.066-.379.29-.825.513-1.339.669-.514.156-1.072.233-1.674.233-.727 0-1.357-.086-1.892-.257-.535-.171-.981-.392-1.339-.661-.358-.27-.631-.576-.817-.918-.187-.342-.296-.679-.327-1.011-.01-.124.029-.226.117-.303.088-.078.189-.117.304-.117h1.23c.104 0 .189.034.257.101.067.067.138.163.21.288.062.124.145.241.249.35.104.109.241.207.413.296.171.088.387.158.646.21.259.052.576.078.95.078.633 0 1.144-.127 1.534-.381.389-.254.584-.614.584-1.081 0-.467-.195-.801-.584-1.003-.389-.202-.9-.303-1.534-.303h-1.292c-.114 0-.213-.041-.296-.124-.083-.083-.125-.181-.125-.296v-1.105c0-.114.039-.22.117-.319l.226-.257 2.18-2.287h-4.297c-.114 0-.213-.041-.296-.124-.083-.083-.125-.181-.125-.296v-1.105c0-.114.042-.213.125-.296.083-.083.182-.124.296-.124h6.819zm11.825 4.06l.016.653v1.462c0 .239-.005.456-.016.653-.031.602-.122 1.159-.272 1.672-.151.513-.389.959-.716 1.338-.327.379-.753.674-1.277.887-.524.213-1.165.319-1.923.319-.768 0-1.412-.106-1.931-.319-.519-.213-.942-.508-1.269-.887-.327-.379-.566-.824-.716-1.338-.151-.513-.241-1.071-.272-1.672-.021-.394-.031-.843-.031-1.346 0-.503.01-.952.031-1.346.031-.602.122-1.164.272-1.688.151-.524.389-.977.716-1.361.327-.384.75-.687 1.269-.91.519-.223 1.162-.334 1.931-.334.758 0 1.399.106 1.923.319.524.213.95.508 1.277.887.327.379.566.824.716 1.338.151.513.241 1.071.272 1.672zm-6.274 2.691c.052.747.231 1.325.537 1.735.306.41.823.614 1.549.614.727 0 1.243-.205 1.549-.614.306-.41.485-.988.537-1.735.021-.394.031-.83.031-1.307s-.01-.913-.031-1.307c-.052-.747-.231-1.325-.537-1.735-.306-.41-.823-.614-1.549-.614-.727 0-1.243.205-1.549.614-.306.41-.485.988-.537 1.735-.021.394-.031.83-.031 1.307s.01.913.031 1.307zm16.542-6.394c0-.239.119-.358.358-.358h.28c.228 0 .343.119.343.358v6.316c0 1.514-.348 2.621-1.043 3.321-.695.7-1.681 1.05-2.958 1.05-.633 0-1.199-.086-1.697-.257s-.919-.436-1.261-.793c-.343-.358-.605-.812-.786-1.361-.182-.55-.272-1.203-.272-1.96v-6.316c0-.239.114-.358.343-.358h.28c.239 0 .358.119.358.358v6.363c0 1.172.272 2.03.817 2.575.545.544 1.284.817 2.219.817.934 0 1.671-.272 2.211-.817.54-.544.81-1.403.81-2.575v-6.363zm5.768 1.602v8.587c0 .228-.119.342-.358.342h-.28c-.228 0-.343-.114-.343-.342v-10.189c0-.239.114-.358.343-.358h.327c.104 0 .179.026.226.078l.101.109 5.745 8.774v-8.603c0-.239.114-.358.343-.358h.28c.239 0 .358.119.358.358v10.174c0 .239-.114.358-.343.358h-.343c-.104 0-.179-.026-.226-.078l-.101-.109-5.729-8.743zm14.3-1.96c.82 0 1.505.091 2.055.272.55.181.991.451 1.323.809.332.358.571.799.716 1.322.145.524.223 1.123.234 1.797.01.467.016.879.016 1.237 0 .358-.005.77-.016 1.237-.021.716-.101 1.338-.241 1.867-.14.529-.374.967-.701 1.315-.327.347-.76.607-1.3.778-.54.171-1.209.257-2.008.257h-3.394c-.228 0-.343-.114-.343-.342v-10.189c0-.239.114-.358.343-.358h3.316zm3.347 4.278c-.01-.57-.078-1.066-.202-1.486-.125-.42-.322-.767-.592-1.042-.27-.275-.62-.48-1.051-.614-.431-.135-.958-.202-1.58-.202h-2.6v9.023h2.678c.623 0 1.144-.062 1.565-.187.42-.124.76-.319 1.02-.583.259-.264.449-.609.568-1.035.119-.425.184-.944.195-1.556l.008-.622.008-.537-.008-.529-.008-.63zm11.046 5.678c.239 0 .358.119.358.358v.233c0 .228-.119.342-.358.342h-6.197c-.228 0-.343-.114-.343-.342v-10.189c0-.239.114-.358.343-.358h6.072c.239 0 .358.119.358.358v.233c0 .228-.119.342-.358.342h-5.434v3.967h5.091c.239 0 .358.119.358.358v.233c0 .228-.119.342-.358.342h-5.091v4.122h5.558zm7.621-9.956c1.09 0 1.959.259 2.608.778s.973 1.307.973 2.365c0 .84-.205 1.506-.615 1.999-.41.493-.989.827-1.736 1.003l2.507 4.262.047.171c0 .083-.031.156-.093.218s-.135.093-.218.093h-.187c-.176 0-.304-.041-.381-.124-.078-.083-.148-.181-.21-.296l-2.475-4.185h-3.207v4.262c0 .228-.119.342-.358.342h-.28c-.228 0-.343-.114-.343-.342v-10.189c0-.239.114-.358.343-.358h3.628zm-2.989 5.351h2.911c1.785 0 2.678-.736 2.678-2.209s-.893-2.209-2.678-2.209h-2.911v4.418zm16.791-5.351c.114 0 .213.041.296.124.083.083.125.181.125.296v1.105c0 .114-.039.22-.117.319l-.226.257-2.273 2.396c.467.062.89.176 1.269.342.379.166.703.381.973.646.27.264.477.578.623.941.145.363.218.767.218 1.213 0 .539-.106 1.019-.319 1.439-.213.42-.509.775-.887 1.066-.379.29-.825.513-1.339.669-.514.156-1.072.233-1.674.233-.727 0-1.357-.086-1.892-.257-.535-.171-.981-.392-1.339-.661-.358-.27-.631-.576-.817-.918-.187-.342-.296-.679-.327-1.011-.01-.124.029-.226.117-.303.088-.078.189-.117.304-.117h1.23c.104 0 .189.034.257.101.067.067.138.163.21.288.062.124.145.241.249.35.104.109.241.207.413.296.171.088.387.158.646.21.259.052.576.078.95.078.633 0 1.144-.127 1.534-.381.389-.254.584-.614.584-1.081 0-.467-.195-.801-.584-1.003-.389-.202-.9-.303-1.534-.303h-1.292c-.114 0-.213-.041-.296-.124-.083-.083-.125-.181-.125-.296v-1.105c0-.114.039-.22.117-.319l.226-.257 2.18-2.287h-4.297c-.114 0-.213-.041-.296-.124-.083-.083-.125-.181-.125-.296v-1.105c0-.114.042-.213.125-.296.083-.083.182-.124.296-.124h6.819zm11.825 4.06l.016.653v1.462c0 .239-.005.456-.016.653-.031.602-.122 1.159-.272 1.672-.151.513-.389.959-.716 1.338-.327.379-.753.674-1.277.887-.524.213-1.165.319-1.923.319-.768 0-1.412-.106-1.931-.319-.519-.213-.942-.508-1.269-.887-.327-.379-.566-.824-.716-1.338-.151-.513-.241-1.071-.272-1.672-.021-.394-.031-.843-.031-1.346 0-.503.01-.952.031-1.346.031-.602.122-1.164.272-1.688.151-.524.389-.977.716-1.361.327-.384.75-.687 1.269-.91.519-.223 1.162-.334 1.931-.334.758 0 1.399.106 1.923.319.524.213.95.508 1.277.887.327.379.566.824.716 1.338.151.513.241 1.071.272 1.672zm-6.274 2.691c.052.747.231 1.325.537 1.735.306.41.823.614 1.549.614.727 0 1.243-.205 1.549-.614.306-.41.485-.988.537-1.735.021-.394.031-.83.031-1.307s-.01-.913-.031-1.307c-.052-.747-.231-1.325-.537-1.735-.306-.41-.823-.614-1.549-.614-.727 0-1.243.205-1.549.614-.306.41-.485.988-.537 1.735-.021.394-.031.83-.031 1.307s.01.913.031 1.307zm-64.089 11.722c.166 0 .291.044.374.132.083.088.156.22.218.397l3.814 9.832.016.109c0 .114-.042.213-.125.296-.083.083-.182.124-.296.124h-1.121c-.208 0-.353-.044-.436-.132-.083-.088-.14-.174-.171-.257l-.669-1.727h-4.92l-.669 1.727c-.031.083-.088.169-.171.257-.083.088-.228.132-.436.132h-1.121c-.114 0-.213-.041-.296-.124-.083-.083-.125-.181-.125-.296l.016-.109 3.814-9.832c.062-.176.135-.309.218-.397.083-.088.208-.132.374-.132h1.713zm.856 6.829l-1.713-4.434-1.713 4.434h3.425zm13.768-6.985c.695 0 1.308.093 1.837.28.529.187.97.42 1.323.7.353.28.62.589.802.926.182.337.283.656.304.957.01.124-.029.226-.117.303-.088.078-.189.117-.304.117h-1.09c-.176 0-.309-.034-.397-.101-.088-.067-.169-.158-.241-.272-.156-.259-.392-.485-.708-.677-.317-.192-.786-.288-1.409-.288-.27 0-.527.029-.771.086-.244.057-.457.14-.638.249-.182.109-.324.241-.428.397-.104.156-.156.332-.156.529 0 .239.049.433.148.583.099.15.265.28.498.389.234.109.542.21.926.303s.861.202 1.432.327c.623.135 1.16.293 1.611.474.452.181.82.399 1.105.653.285.254.498.547.638.879.14.332.21.71.21 1.136 0 .467-.104.9-.311 1.299-.208.399-.503.742-.887 1.027-.384.285-.856.511-1.417.677-.56.166-1.188.249-1.884.249-.581 0-1.137-.07-1.666-.21-.529-.14-.999-.342-1.409-.607-.41-.264-.74-.583-.989-.957-.249-.373-.389-.788-.42-1.245-.01-.124.029-.226.117-.303.088-.078.189-.117.304-.117h1.09c.176 0 .311.031.405.093.093.062.171.156.234.28.073.135.161.27.265.404.104.135.244.254.42.358.176.104.397.189.662.257.265.067.594.101.989.101.311 0 .612-.023.903-.07.291-.047.545-.124.763-.233.218-.109.394-.244.529-.404.135-.161.202-.36.202-.599 0-.228-.073-.415-.218-.56-.145-.145-.366-.27-.662-.373-.296-.104-.662-.202-1.098-.296-.436-.093-.939-.213-1.51-.358-.519-.124-.973-.272-1.362-.443-.389-.171-.711-.381-.965-.63s-.444-.542-.568-.879c-.125-.337-.187-.739-.187-1.206 0-.467.104-.897.311-1.291.208-.394.493-.731.856-1.011.363-.28.797-.5 1.3-.661.503-.161 1.046-.241 1.627-.241zm11.962 11.045c-.114 0-.213-.041-.296-.124-.083-.083-.125-.181-.125-.296v-10.049c0-.114.042-.213.125-.296.083-.083.182-.124.296-.124h1.261c.114 0 .213.041.296.124.083.083.125.181.125.296v10.049c0 .114-.042.213-.125.296-.083.083-.182.124-.296.124h-1.261zm14.422-10.89c.166 0 .291.044.374.132.083.088.156.22.218.397l3.814 9.832.016.109c0 .114-.042.213-.125.296-.083.083-.182.124-.296.124h-1.121c-.208 0-.353-.044-.436-.132-.083-.088-.14-.174-.171-.257l-.669-1.727h-4.92l-.669 1.727c-.031.083-.088.169-.171.257-.083.088-.228.132-.436.132h-1.121c-.114 0-.213-.041-.296-.124-.083-.083-.125-.181-.125-.296l.016-.109 3.814-9.832c.062-.176.135-.309.218-.397.083-.088.208-.132.374-.132h1.713zm.856 6.829l-1.713-4.434-1.713 4.434h3.425z"/></g></svg>