<svg width="170" height="110" viewBox="0 0 170 110" xmlns="http://www.w3.org/2000/svg" xmlns:xlink="http://www.w3.org/1999/xlink"><title>intel</title><desc>Created with Sketch.</desc><defs><path id="a" d="M13.879 11.516v-11.31h-13.568v11.31h13.568z"/><path id="c" d="M.173 10.937h17.639v-10.934h-17.639v10.934z"/><path id="e" d="M10.355.265h-10.245v16.648h10.245v-16.648z"/><path id="g" d="M0 .206v11.31h13.568v-11.31h-13.568z"/><path id="i" d="M.005 10.937h17.639v-10.934h-17.639z"/><path id="k" d="M10.607.265h-10.245v16.648h10.245v-16.648z"/></defs><g fill="none"><g><path d="M157.685 31.478c-.781 2.506-.339 5.303 1.313 8.309l.172.311.336-.113c5.776-1.901 7.799-7.216 5.844-15.368l-.119-.521-.481.243c-3.809 1.92-6.187 4.323-7.065 7.14" fill="#A0B0B1"/><path d="M152.182 38.959c1.305.637 2.773 1.121 4.378 1.451l.462.093.043-.471c.501-5.315-3.282-10.099-10.94-13.836-.47-.231-.914-.436-1.324-.619l-.644-.288.052.703c.288 4.28 1.912 10.009 7.974 12.967" fill="#A0B0B1"/><path d="M159.817 45.412c-1.254 2.165-1.44 4.796-.556 7.825l.104.343.349-.038c6.279-.662 9.624-5.279 9.672-13.36l.006-.543-.528.131c-4.48 1.103-7.525 2.999-9.046 5.641" fill="#A0B0B1"/><path d="M157.056 53.522l.154-.41c1.929-5.202-1.111-10.762-8.788-16.08l-.537-.373-.125.641c-.921 4.925-.358 11.601 7.534 15.451.43.212.883.414 1.362.606l.4.166z" fill="#A0B0B1"/><g transform="translate(155.864 54.927)"><mask id="b"><use xlink:href="#a"/></mask><path d="M13.305.226c-4.945.159-8.543 1.428-10.71 3.763-1.644 1.773-2.406 4.151-2.268 7.058l.013.367.368.037c6.471.612 10.974-3.088 13.025-10.691l.147-.553-.574.02z" fill="#A0B0B1" mask="url(#b)"/></g><path d="M153.881 65.826l.233-.329c3.254-4.558 1.568-10.419-4.878-16.948l-.422-.43-.261.543c-2.319 4.805-3.333 11.643 4.985 16.944l.342.219z" fill="#A0B0B1"/><path d="M149.933 77.387l-.082.382.38.108c6.358 1.841 11.796-.764 15.734-7.526l.312-.532-.613-.098c-6.221-1.01-14.003-.502-15.731 7.666" fill="#A0B0B1"/><path d="M147.37 76.557l.273.255.288-.239c4.412-3.672 4.161-9.545-.735-16.987l-.307-.471-.367.425c-3.536 4.089-6.258 10.36.847 17.017" fill="#A0B0B1"/><path d="M140.802 86.913l-.192.381.529.261c5.895 2.878 11.956 1.466 17.535-4.082l.471-.468-.628-.227c-6.011-2.174-13.957-3.218-17.715 4.135" fill="#A0B0B1"/><path d="M138.64 85.958l.322-.156c5.352-2.594 6.551-8.195 3.457-16.197l-.194-.501-.445.306c-3.349 2.312-5.3 4.95-5.803 7.831-.466 2.678.365 5.514 2.454 8.426l.209.292z" fill="#A0B0B1"/><path d="M145.927 92.553c-6.938-3.384-12.706-2.845-16.687 1.559l-.307.342.366.277c.792.599 1.625 1.114 2.471 1.528 4.726 2.306 10.365 1.675 16.307-1.823l.617-.365-.62-.362c-.669-.395-1.391-.785-2.148-1.155" fill="#A0B0B1"/><path d="M127.299 92.827l.341-.077c6.031-1.392 8.618-6.445 7.483-14.614l-.071-.528-.503.191c-4.098 1.584-6.756 3.786-7.908 6.549-.997 2.373-.821 5.118.516 8.156l.143.323z" fill="#A0B0B1"/><path d="M129.227 98.152c-4.843-2.363-9.368-2.196-13.436.497l-.41.272.334.364c1.219 1.356 2.642 2.436 4.222 3.208 3.982 1.943 8.942 2.007 14.749.186l.727-.224-.573-.497c-1.862-1.613-3.748-2.894-5.613-3.805" fill="#A0B0B1"/><path d="M114.093 96.734l.07.354.356-.009c6.396-.129 10.252-4.386 11.135-12.32l.06-.551-.545.085c-4.7.722-7.994 2.37-9.787 4.896-1.422 2.01-1.855 4.549-1.289 7.545" fill="#A0B0B1"/><path d="M101.099 100.293l-.48.176.258.434c1.336 2.264 3.249 4.011 5.68 5.199l.006.002c3.296 1.608 7.534 2.194 12.594 1.737l.777-.064-.477-.614c-5.312-6.803-11.777-9.278-18.358-6.87" fill="#A0B0B1"/><path d="M99.856 98.523l.371.066c6.462 1.128 11.379-2.13 14.232-9.423l.214-.544-.591-.032c-6.213-.309-13.723 1.102-14.205 9.557l-.022.376z" fill="#A0B0B1"/><g transform="translate(85.193 98.798)"><mask id="d"><use xlink:href="#c"/></mask><path d="M.676.161l-.503.072.152.48c1.083 3.289 3.469 5.855 7.092 7.623 2.613 1.274 5.851 2.122 9.63 2.518l.765.082-.337-.687c-3.709-7.496-9.573-11.066-16.799-10.089" fill="#A0B0B1" mask="url(#d)"/></g><path d="M102.081 91.128l.377-.51-.617-.153c-6.172-1.5-14.072-1.638-16.657 6.223l-.122.384.376.143c6.228 2.332 11.98.226 16.643-6.087" fill="#A0B0B1"/><path d="M156.609 26.36l.322-.142c5.596-2.385 7.156-7.851 4.515-15.808l-.165-.509-.457.287c-3.635 2.232-5.795 4.828-6.43 7.71-.562 2.565.115 5.31 2.019 8.167l.197.295z" fill="#A0B0B1"/><path d="M148.392 25.317c1.646.802 3.54 1.33 5.639 1.574l.469.053.004-.472c.05-5.676-4.469-10.217-13.448-13.354l-.669-.238.109.697c.602 3.892 2.46 9.085 7.897 11.74" fill="#A0B0B1"/><g transform="translate(143.409 .058)"><mask id="f"><use xlink:href="#e"/></mask><path d="M7.697 16.116c.458.224.94.44 1.449.641l.397.156.156-.39c2.093-5.136-.851-10.634-8.498-15.9l-.522-.358-.136.615c-1.065 4.839-.687 11.411 7.153 15.236" fill="#A0B0B1" mask="url(#f)"/></g><path d="M10.238 39.985l.336.113.171-.311c1.651-3.006 2.094-5.803 1.312-8.309-.878-2.817-3.256-5.219-7.063-7.14l-.483-.243-.118.52c-1.956 8.153.065 13.467 5.845 15.369" fill="#A0B0B1"/><path d="M13.184 40.41c1.603-.33 3.071-.814 4.378-1.451 6.061-2.958 7.687-8.687 7.974-12.967l.052-.703-.644.288c-.41.183-.853.388-1.326.619-7.655 3.737-11.439 8.52-10.938 13.836l.044.471.461-.093z" fill="#A0B0B1"/><path d="M10.031 53.543l.349.038.104-.343c.883-3.029.699-5.661-.556-7.825-1.522-2.642-4.567-4.538-9.047-5.641l-.529-.131.007.543c.045 8.081 3.393 12.698 9.672 13.36" fill="#A0B0B1"/><path d="M12.534 53.112l.153.41.401-.166c.478-.192.932-.394 1.363-.606 7.889-3.85 8.453-10.526 7.533-15.451l-.124-.641-.54.373c-7.679 5.318-10.718 10.878-8.788 16.08" fill="#A0B0B1"/><g transform="translate(0 54.927)"><mask id="h"><use xlink:href="#g"/></mask><path d="M13.171 11.451l.368-.038.014-.366c.138-2.908-.624-5.285-2.27-7.058-2.168-2.335-5.765-3.604-10.709-3.763l-.574-.021.148.554c2.05 7.603 6.554 11.302 13.023 10.691" fill="#A0B0B1" mask="url(#h)"/></g><path d="M15.863 65.826l.342-.219c8.318-5.301 7.305-12.139 4.987-16.944l-.261-.543-.423.43c-6.445 6.528-8.13 12.39-4.879 16.948l.234.329z" fill="#A0B0B1"/><path d="M19.512 77.878l.382-.108-.086-.382c-1.726-8.168-9.506-8.677-15.73-7.666l-.612.098.313.532c3.938 6.762 9.377 9.368 15.733 7.527" fill="#A0B0B1"/><path d="M21.811 76.573l.288.239.274-.255c7.106-6.658 4.383-12.928.849-17.017l-.369-.426-.307.471c-4.895 7.443-5.146 13.316-.735 16.988" fill="#A0B0B1"/><path d="M28.605 87.556l.527-.261-.191-.381c-3.756-7.353-11.705-6.309-17.716-4.135l-.628.226.471.468c5.578 5.549 11.64 6.96 17.536 4.083" fill="#A0B0B1"/><path d="M27.518 69.104l-.195.501c-3.092 8.003-1.894 13.603 3.459 16.198l.322.156.209-.292c2.089-2.912 2.922-5.748 2.455-8.426-.505-2.881-2.456-5.519-5.804-7.83l-.445-.306z" fill="#A0B0B1"/><path d="M40.444 94.731l.364-.278-.306-.341c-3.98-4.405-9.749-4.943-16.685-1.559-.757.369-1.477.76-2.149 1.155l-.618.362.616.365c5.94 3.498 11.58 4.13 16.307 1.823.846-.414 1.678-.929 2.471-1.528" fill="#A0B0B1"/><path d="M42.102 92.75l.341.077.143-.323c1.338-3.038 1.513-5.783.517-8.156-1.151-2.762-3.81-4.965-7.909-6.549l-.504-.19-.07.528c-1.137 8.169 1.451 13.221 7.481 14.613" fill="#A0B0B1"/><path d="M54.029 99.284l.334-.364-.408-.271c-4.069-2.694-8.594-2.86-13.439-.497-1.862.911-3.752 2.192-5.614 3.805l-.572.497.728.224c5.805 1.821 10.766 1.757 14.748-.186 1.58-.771 3.004-1.852 4.223-3.208" fill="#A0B0B1"/><path d="M55.226 97.079l.354.009.07-.354c.567-2.997.133-5.535-1.29-7.545-1.791-2.527-5.085-4.173-9.785-4.896l-.547-.085.061.551c.886 7.934 4.741 12.19 11.138 12.32" fill="#A0B0B1"/><path d="M68.867 100.904l.257-.434-.48-.176c-6.582-2.409-13.047.067-18.359 6.87l-.476.614.776.064c5.063.456 9.3-.129 12.596-1.737l.004-.002c2.433-1.187 4.345-2.935 5.682-5.199" fill="#A0B0B1"/><path d="M69.516 98.589l.371-.066-.02-.376c-.483-8.456-7.994-9.865-14.205-9.557l-.592.032.214.545c2.853 7.292 7.771 10.551 14.232 9.422" fill="#A0B0B1"/><g transform="translate(66.735 98.798)"><mask id="j"><use xlink:href="#i"/></mask><path d="M.342 10.25l-.337.687.764-.082c3.78-.396 7.018-1.243 9.633-2.518 3.621-1.768 6.006-4.334 7.089-7.623l.153-.48-.503-.072c-7.226-.977-13.092 2.593-16.799 10.089" fill="#A0B0B1" mask="url(#j)"/></g><path d="M67.904 90.465l-.619.154.377.509c4.663 6.313 10.416 8.42 16.645 6.087l.376-.142-.122-.384c-2.584-7.861-10.484-7.723-16.657-6.224" fill="#A0B0B1"/><path d="M12.813 26.219l.32.142.197-.295c1.905-2.857 2.581-5.602 2.02-8.167-.634-2.882-2.796-5.477-6.43-7.71l-.456-.287-.165.509c-2.645 7.958-1.084 13.424 4.514 15.808" fill="#A0B0B1"/><path d="M15.239 26.472l.005.472.466-.053c2.101-.244 3.997-.773 5.641-1.574 5.437-2.655 7.295-7.847 7.897-11.74l.11-.697-.671.238c-8.979 3.138-13.497 7.679-13.448 13.354" fill="#A0B0B1"/><g transform="translate(15.619 .058)"><mask id="l"><use xlink:href="#k"/></mask><path d="M1.173 16.913l.395-.156c.509-.201.992-.417 1.452-.641 7.838-3.825 8.217-10.397 7.152-15.236l-.136-.615-.521.358c-7.648 5.266-10.59 10.764-8.499 15.9l.157.39z" fill="#A0B0B1" mask="url(#l)"/></g></g><path d="M46.01 26.14c-.08 0-.148-.029-.206-.087-.058-.058-.087-.126-.087-.205v-6.986c0-.079.029-.148.087-.205.058-.058.127-.087.206-.087h.88c.08 0 .148.029.206.087.058.058.087.126.087.205v6.986c0 .079-.029.148-.087.205-.058.058-.127.087-.206.087h-.88zm8.615 0c-.123 0-.217-.032-.282-.097l-.141-.151-3.042-4.499v4.456c0 .079-.029.148-.087.205-.058.058-.127.087-.206.087h-.88c-.08 0-.148-.029-.206-.087-.058-.058-.087-.126-.087-.205v-6.986c0-.079.029-.148.087-.205.058-.058.127-.087.206-.087h.76c.123 0 .217.032.282.097l.141.151 3.042 4.499v-4.456c0-.079.029-.148.087-.205.058-.058.127-.087.206-.087h.88c.08 0 .148.029.206.087.058.058.087.126.087.205v6.986c0 .079-.029.148-.087.205-.058.058-.127.087-.206.087h-.76zm8.626-7.57c.08 0 .148.029.206.087.058.058.087.126.087.205v.768c0 .079-.029.148-.087.205-.058.058-.127.087-.206.087h-1.955v5.926c0 .079-.029.148-.087.205-.058.058-.127.087-.206.087h-.88c-.08 0-.148-.029-.206-.087-.058-.058-.087-.126-.087-.205v-5.926h-1.955c-.08 0-.148-.029-.206-.087-.058-.058-.087-.126-.087-.205v-.768c0-.079.029-.148.087-.205.058-.058.127-.087.206-.087h5.378zm7.257 6.218c.08 0 .148.029.206.087.058.058.087.126.087.205v.768c0 .079-.029.148-.087.205-.058.058-.127.087-.206.087h-4.769c-.08 0-.148-.029-.206-.087-.058-.058-.087-.126-.087-.205v-6.986c0-.079.029-.148.087-.205.058-.058.127-.087.206-.087h4.682c.08 0 .148.029.206.087.058.058.087.126.087.205v.768c0 .079-.029.148-.087.205-.058.058-.127.087-.206.087h-3.509v1.72h3.27c.08 0 .148.029.206.087.058.058.087.126.087.205v.768c0 .079-.029.148-.087.205-.058.058-.127.087-.206.087h-3.27v1.795h3.596zm7.507 0c.08 0 .148.029.206.087.058.058.087.126.087.205v.768c0 .079-.029.148-.087.205-.058.058-.127.087-.206.087h-4.758c-.08 0-.148-.029-.206-.087-.058-.058-.087-.126-.087-.205v-6.986c0-.079.029-.148.087-.205.058-.058.127-.087.206-.087h.88c.08 0 .148.029.206.087.058.058.087.126.087.205v5.926h3.585zm8.68-2.249l-.934 3.234c-.036.108-.081.196-.136.265-.054.068-.136.103-.244.103h-.88c-.109 0-.194-.034-.255-.103-.062-.068-.103-.157-.125-.265l-1.391-6.824-.011-.087c0-.079.029-.148.087-.205.058-.058.127-.087.206-.087h.804c.072 0 .141.022.206.065.065.043.109.119.13.227l.913 4.585.804-2.888.103-.195c.054-.079.147-.119.277-.119h.891c.13 0 .223.04.277.119l.103.195.804 2.888.913-4.585c.022-.108.065-.184.13-.227.065-.043.134-.065.206-.065h.804c.08 0 .148.029.206.087.058.058.087.126.087.205l-.011.087-1.391 6.824c-.022.108-.063.196-.125.265-.062.068-.147.103-.255.103h-.88c-.109 0-.19-.034-.244-.103-.054-.068-.1-.157-.136-.265l-.934-3.234zm5.682-1.146c.022-.404.1-.784.234-1.141s.331-.667.592-.93c.261-.263.587-.472.978-.627.391-.155.855-.233 1.391-.233.529 0 .989.076 1.38.227.391.151.717.36.978.627s.46.577.598.93c.138.353.217.735.239 1.146l.016.454.005.514-.005.514-.016.454c-.022.404-.1.784-.234 1.141s-.331.667-.592.93c-.261.263-.588.47-.983.622-.395.151-.856.227-1.385.227-.536 0-.999-.076-1.391-.227-.391-.151-.717-.359-.978-.622s-.458-.573-.592-.93c-.134-.357-.212-.737-.234-1.141l-.016-.454-.005-.514.005-.514.016-.454zm4.921.054c-.029-.519-.197-.921-.505-1.206-.308-.285-.715-.427-1.222-.427s-.914.142-1.222.427c-.308.285-.476.687-.505 1.206-.014.274-.022.579-.022.914 0 .335.007.64.022.914.029.519.197.919.505 1.2.308.281.715.422 1.222.422s.914-.141 1.222-.422c.308-.281.476-.681.505-1.2.014-.274.022-.579.022-.914 0-.335-.007-.64-.022-.914zm7.279.984l2.064-3.569.147-.173c.069-.079.176-.119.32-.119h.739c.08 0 .148.029.206.087.058.058.087.126.087.205v6.986c0 .079-.029.148-.087.205-.058.058-.127.087-.206.087h-.88c-.08 0-.148-.029-.206-.087-.058-.058-.087-.126-.087-.205v-4.229l-1.412 2.433-.152.178c-.065.061-.148.092-.25.092h-.565c-.101 0-.185-.031-.25-.092l-.152-.178-1.412-2.433v4.229c0 .079-.029.148-.087.205-.058.058-.127.087-.206.087h-.88c-.08 0-.148-.029-.206-.087-.058-.058-.087-.126-.087-.205v-6.986c0-.079.029-.148.087-.205.058-.058.127-.087.206-.087h.739c.145 0 .252.04.32.119l.147.173 2.064 3.569zm11.135 2.358c.08 0 .148.029.206.087.058.058.087.126.087.205v.768c0 .079-.029.148-.087.205-.058.058-.127.087-.206.087h-4.769c-.08 0-.148-.029-.206-.087-.058-.058-.087-.126-.087-.205v-6.986c0-.079.029-.148.087-.205.058-.058.127-.087.206-.087h4.682c.08 0 .148.029.206.087.058.058.087.126.087.205v.768c0 .079-.029.148-.087.205-.058.058-.127.087-.206.087h-3.509v1.72h3.27c.08 0 .148.029.206.087.058.058.087.126.087.205v.768c0 .079-.029.148-.087.205-.058.058-.127.087-.206.087h-3.27v1.795h3.596zm7.387 1.352c-.123 0-.217-.032-.282-.097l-.141-.151-3.042-4.499v4.456c0 .079-.029.148-.087.205-.058.058-.127.087-.206.087h-.88c-.08 0-.148-.029-.206-.087-.058-.058-.087-.126-.087-.205v-6.986c0-.079.029-.148.087-.205.058-.058.127-.087.206-.087h.76c.123 0 .217.032.282.097l.141.151 3.042 4.499v-4.456c0-.079.029-.148.087-.205.058-.058.127-.087.206-.087h.88c.08 0 .148.029.206.087.058.058.087.126.087.205v6.986c0 .079-.029.148-.087.205-.058.058-.127.087-.206.087h-.76zm-79.447 11.355c.08 0 .148.029.206.087.058.058.087.126.087.205v.768c0 .079-.029.148-.087.205-.058.058-.127.087-.206.087h-4.769c-.08 0-.148-.029-.206-.087-.058-.058-.087-.126-.087-.205v-6.986c0-.079.029-.148.087-.205.058-.058.127-.087.206-.087h4.682c.08 0 .148.029.206.087.058.058.087.126.087.205v.768c0 .079-.029.148-.087.205-.058.058-.127.087-.206.087h-3.509v1.72h3.27c.08 0 .148.029.206.087.058.058.087.126.087.205v.768c0 .079-.029.148-.087.205-.058.058-.127.087-.206.087h-3.27v1.795h3.596zm7.387 1.352c-.123 0-.217-.032-.282-.097l-.141-.151-3.042-4.499v4.456c0 .079-.029.148-.087.205-.058.058-.127.087-.206.087h-.88c-.08 0-.148-.029-.206-.087-.058-.058-.087-.126-.087-.205v-6.986c0-.079.029-.148.087-.205.058-.058.127-.087.206-.087h.76c.123 0 .217.032.282.097l.141.151 3.042 4.499v-4.456c0-.079.029-.148.087-.205.058-.058.127-.087.206-.087h.88c.08 0 .148.029.206.087.058.058.087.126.087.205v6.986c0 .079-.029.148-.087.205-.058.058-.127.087-.206.087h-.76zm8.626-7.57c.08 0 .148.029.206.087.058.058.087.126.087.205v.768c0 .079-.029.148-.087.205-.058.058-.127.087-.206.087h-1.955v5.926c0 .079-.029.148-.087.205-.058.058-.127.087-.206.087h-.88c-.08 0-.148-.029-.206-.087-.058-.058-.087-.126-.087-.205v-5.926h-1.955c-.08 0-.148-.029-.206-.087-.058-.058-.087-.126-.087-.205v-.768c0-.079.029-.148.087-.205.058-.058.127-.087.206-.087h5.378zm5.291 0c.905 0 1.593.209 2.064.627.471.418.706.999.706 1.741 0 .526-.121.975-.364 1.346-.243.371-.599.647-1.07.827l1.499 2.671.033.119c0 .065-.024.121-.071.168-.047.047-.103.07-.168.07h-.923c-.145 0-.252-.034-.32-.103l-.147-.189-1.423-2.52h-1.445v2.52c0 .079-.029.148-.087.205-.058.058-.127.087-.206.087h-.88c-.08 0-.148-.029-.206-.087-.058-.058-.087-.126-.087-.205v-6.986c0-.079.029-.148.087-.205.058-.058.127-.087.206-.087h2.803zm-1.63 3.407h1.575c.413 0 .742-.072.989-.216.246-.144.369-.418.369-.822 0-.404-.123-.674-.369-.811s-.576-.205-.989-.205h-1.575v2.055zm11.689 2.812c.08 0 .148.029.206.087.058.058.087.126.087.205v.768c0 .079-.029.148-.087.205-.058.058-.127.087-.206.087h-4.769c-.08 0-.148-.029-.206-.087-.058-.058-.087-.126-.087-.205v-6.986c0-.079.029-.148.087-.205.058-.058.127-.087.206-.087h4.682c.08 0 .148.029.206.087.058.058.087.126.087.205v.768c0 .079-.029.148-.087.205-.058.058-.127.087-.206.087h-3.509v1.72h3.27c.08 0 .148.029.206.087.058.058.087.126.087.205v.768c0 .079-.029.148-.087.205-.058.058-.127.087-.206.087h-3.27v1.795h3.596zm5.66-6.218c.876 0 1.557.205 2.042.616.485.411.728 1.013.728 1.806 0 .793-.243 1.399-.728 1.817-.485.418-1.166.627-2.042.627h-1.738v2.412c0 .079-.029.148-.087.205-.058.058-.127.087-.206.087h-.88c-.08 0-.148-.029-.206-.087-.058-.058-.087-.126-.087-.205v-6.986c0-.079.029-.148.087-.205.058-.058.127-.087.206-.087h2.911zm-1.738 3.515h1.684c.413 0 .742-.081.989-.243.246-.162.369-.445.369-.849 0-.404-.123-.683-.369-.838-.246-.155-.576-.233-.989-.233h-1.684v2.163zm9.604-3.515c.905 0 1.593.209 2.064.627.471.418.706.999.706 1.741 0 .526-.121.975-.364 1.346-.243.371-.599.647-1.07.827l1.499 2.671.033.119c0 .065-.024.121-.071.168-.047.047-.103.07-.168.07h-.923c-.145 0-.252-.034-.32-.103l-.147-.189-1.423-2.52h-1.445v2.52c0 .079-.029.148-.087.205-.058.058-.127.087-.206.087h-.88c-.08 0-.148-.029-.206-.087-.058-.058-.087-.126-.087-.205v-6.986c0-.079.029-.148.087-.205.058-.058.127-.087.206-.087h2.803zm-1.63 3.407h1.575c.413 0 .742-.072.989-.216.246-.144.369-.418.369-.822 0-.404-.123-.674-.369-.811s-.576-.205-.989-.205h-1.575v2.055zm11.689 2.812c.08 0 .148.029.206.087.058.058.087.126.087.205v.768c0 .079-.029.148-.087.205-.058.058-.127.087-.206.087h-4.769c-.08 0-.148-.029-.206-.087-.058-.058-.087-.126-.087-.205v-6.986c0-.079.029-.148.087-.205.058-.058.127-.087.206-.087h4.682c.08 0 .148.029.206.087.058.058.087.126.087.205v.768c0 .079-.029.148-.087.205-.058.058-.127.087-.206.087h-3.509v1.72h3.27c.08 0 .148.029.206.087.058.058.087.126.087.205v.768c0 .079-.029.148-.087.205-.058.058-.127.087-.206.087h-3.27v1.795h3.596zm7.387 1.352c-.123 0-.217-.032-.282-.097l-.141-.151-3.042-4.499v4.456c0 .079-.029.148-.087.205-.058.058-.127.087-.206.087h-.88c-.08 0-.148-.029-.206-.087-.058-.058-.087-.126-.087-.205v-6.986c0-.079.029-.148.087-.205.058-.058.127-.087.206-.087h.76c.123 0 .217.032.282.097l.141.151 3.042 4.499v-4.456c0-.079.029-.148.087-.205.058-.058.127-.087.206-.087h.88c.08 0 .148.029.206.087.058.058.087.126.087.205v6.986c0 .079-.029.148-.087.205-.058.058-.127.087-.206.087h-.76zm8.626-1.352c.08 0 .148.029.206.087.058.058.087.126.087.205v.768c0 .079-.029.148-.087.205-.058.058-.127.087-.206.087h-4.769c-.08 0-.148-.029-.206-.087-.058-.058-.087-.126-.087-.205v-6.986c0-.079.029-.148.087-.205.058-.058.127-.087.206-.087h4.682c.08 0 .148.029.206.087.058.058.087.126.087.205v.768c0 .079-.029.148-.087.205-.058.058-.127.087-.206.087h-3.509v1.72h3.27c.08 0 .148.029.206.087.058.058.087.126.087.205v.768c0 .079-.029.148-.087.205-.058.058-.127.087-.206.087h-3.27v1.795h3.596zm8.333-6.218c.08 0 .148.029.206.087.058.058.087.126.087.205v4.434c0 .447-.065.851-.196 1.211-.13.36-.326.671-.587.93-.261.26-.587.46-.978.6-.391.141-.844.211-1.358.211-.521 0-.976-.07-1.363-.211s-.712-.341-.972-.6c-.261-.26-.454-.57-.581-.93-.127-.36-.19-.764-.19-1.211v-4.434c0-.079.029-.148.087-.205.058-.058.127-.087.206-.087h.88c.08 0 .148.029.206.087.058.058.087.126.087.205v4.38c0 .296.04.548.12.757.08.209.192.38.337.514.145.133.319.231.521.292.203.061.424.092.663.092.239 0 .462-.031.668-.092.206-.061.382-.159.527-.292.145-.133.259-.305.342-.514.083-.209.125-.461.125-.757v-4.38c0-.079.029-.148.087-.205.058-.058.127-.087.206-.087h.869zm5.845 0c.905 0 1.593.209 2.064.627.471.418.706.999.706 1.741 0 .526-.121.975-.364 1.346-.243.371-.599.647-1.07.827l1.499 2.671.033.119c0 .065-.024.121-.071.168-.047.047-.103.07-.168.07h-.923c-.145 0-.252-.034-.32-.103l-.147-.189-1.423-2.52h-1.445v2.52c0 .079-.029.148-.087.205-.058.058-.127.087-.206.087h-.88c-.08 0-.148-.029-.206-.087-.058-.058-.087-.126-.087-.205v-6.986c0-.079.029-.148.087-.205.058-.058.127-.087.206-.087h2.803zm-1.63 3.407h1.575c.413 0 .742-.072.989-.216.246-.144.369-.418.369-.822 0-.404-.123-.674-.369-.811s-.576-.205-.989-.205h-1.575v2.055zm-65.025 9.301c.145 0 .255.04.331.119.076.079.129.159.158.238l2.368 6.813.043.162c0 .065-.024.121-.071.168-.047.047-.103.07-.168.07h-1.369c-.145 0-.248-.031-.31-.092s-.1-.121-.114-.178l-.304-.898h-2.89l-.304.898c-.014.058-.053.117-.114.178-.062.061-.165.092-.31.092h-1.369c-.065 0-.121-.023-.168-.07-.047-.047-.071-.103-.071-.168l.043-.162 2.368-6.813c.029-.079.081-.159.158-.238.076-.079.186-.119.331-.119h1.76zm-1.76 4.726h1.76l-.88-2.596-.88 2.596zm13.895-.779l.695-3.655c.022-.108.065-.184.13-.227.065-.043.134-.065.206-.065h1.423c.065 0 .121.023.168.07.047.047.071.103.071.168l-.011.087-1.401 6.835c-.014.101-.072.195-.174.281-.101.087-.225.13-.369.13h-.902c-.145 0-.263-.043-.353-.13-.091-.087-.154-.18-.19-.281l-.815-2.444-.815 2.444c-.036.101-.1.195-.19.281-.091.087-.208.13-.353.13h-.902c-.145 0-.268-.043-.369-.13-.101-.087-.159-.18-.174-.281l-1.401-6.835-.011-.087c0-.065.024-.121.071-.168.047-.047.103-.07.168-.07h1.423c.072 0 .141.022.206.065.065.043.109.119.13.227l.695 3.655.641-1.957.098-.195c.051-.079.141-.119.272-.119h1.021c.13 0 .221.04.272.119l.098.195.641 1.957zm10.853-3.947c.145 0 .255.04.331.119.076.079.129.159.158.238l2.368 6.813.043.162c0 .065-.024.121-.071.168-.047.047-.103.07-.168.07h-1.369c-.145 0-.248-.031-.31-.092s-.1-.121-.114-.178l-.304-.898h-2.89l-.304.898c-.014.058-.053.117-.114.178-.062.061-.165.092-.31.092h-1.369c-.065 0-.121-.023-.168-.07-.047-.047-.071-.103-.071-.168l.043-.162 2.368-6.813c.029-.079.081-.159.158-.238.076-.079.186-.119.331-.119h1.76zm-1.76 4.726h1.76l-.88-2.596-.88 2.596zm12.309-4.726c.478 0 .905.05 1.282.151.377.101.697.252.961.454s.467.46.608.773c.141.314.212.68.212 1.098 0 .541-.112.99-.337 1.346-.225.357-.543.629-.956.817l1.347 2.574.033.119c0 .065-.024.121-.071.168-.047.047-.103.07-.168.07h-1.477c-.145 0-.248-.032-.31-.097l-.147-.195-1.206-2.314h-.999v2.314c0 .079-.029.148-.087.205-.058.058-.127.087-.206.087h-1.423c-.08 0-.148-.029-.206-.087-.058-.058-.087-.126-.087-.205v-6.986c0-.079.029-.148.087-.205.058-.058.127-.087.206-.087h2.944zm-1.228 3.277h1.228c.304 0 .556-.058.755-.173.199-.115.299-.324.299-.627s-.1-.512-.299-.627c-.199-.115-.451-.173-.755-.173h-1.228v1.601zm12.244-3.277c.5 0 .956.074 1.369.222.413.148.77.355 1.07.622.301.267.536.586.706.957.17.371.266.777.288 1.217l.011.416v.719l-.011.4c-.022.447-.116.854-.282 1.222-.167.368-.397.685-.69.952-.293.267-.643.474-1.048.622-.406.148-.858.222-1.358.222h-2.933c-.08 0-.148-.029-.206-.087-.058-.058-.087-.126-.087-.205v-6.986c0-.079.029-.148.087-.205.058-.058.127-.087.206-.087h2.879zm1.423 2.974c-.043-.829-.536-1.244-1.477-1.244h-1.108v4.11h1.162c.913 0 1.387-.415 1.423-1.244l.011-.427v-.773l-.011-.422zm-72.923 9.733c.116 0 .203.031.261.092.058.061.109.153.152.276l2.662 6.835.011.076c0 .079-.029.148-.087.205-.058.058-.127.087-.206.087h-.782c-.145 0-.246-.031-.304-.092l-.12-.178-.467-1.2h-3.433l-.467 1.2-.12.178c-.058.061-.159.092-.304.092h-.782c-.08 0-.148-.029-.206-.087-.058-.058-.087-.126-.087-.205l.011-.076 2.662-6.835c.043-.123.094-.214.152-.276.058-.061.145-.092.261-.092h1.195zm.598 4.748l-1.195-3.082-1.195 3.082h2.39zm7.496-4.748c.876 0 1.557.205 2.042.616.485.411.728 1.013.728 1.806 0 .793-.243 1.399-.728 1.817-.485.418-1.166.627-2.042.627h-1.738v2.412c0 .079-.029.148-.087.205-.058.058-.127.087-.206.087h-.88c-.08 0-.148-.029-.206-.087-.058-.058-.087-.126-.087-.205v-6.986c0-.079.029-.148.087-.205.058-.058.127-.087.206-.087h2.911zm-1.738 3.515h1.684c.413 0 .742-.081.989-.243.246-.162.369-.445.369-.849 0-.404-.123-.683-.369-.838-.246-.155-.576-.233-.989-.233h-1.684v2.163zm11.57 2.704c.08 0 .148.029.206.087.058.058.087.126.087.205v.768c0 .079-.029.148-.087.205-.058.058-.127.087-.206.087h-4.769c-.08 0-.148-.029-.206-.087-.058-.058-.087-.126-.087-.205v-6.986c0-.079.029-.148.087-.205.058-.058.127-.087.206-.087h4.682c.08 0 .148.029.206.087.058.058.087.126.087.205v.768c0 .079-.029.148-.087.205-.058.058-.127.087-.206.087h-3.509v1.72h3.27c.08 0 .148.029.206.087.058.058.087.126.087.205v.768c0 .079-.029.148-.087.205-.058.058-.127.087-.206.087h-3.27v1.795h3.596zm7.061-1.049c.014-.094.053-.164.114-.211.062-.047.129-.07.201-.07h.88c.08 0 .15.027.212.081.062.054.089.124.081.211-.022.296-.096.591-.223.887-.127.296-.32.562-.581.8-.261.238-.59.433-.989.584-.398.151-.88.227-1.445.227-.5 0-.942-.074-1.325-.222-.384-.148-.71-.353-.978-.616s-.476-.579-.625-.946c-.148-.368-.237-.768-.266-1.2-.014-.274-.022-.577-.022-.908 0-.332.007-.634.022-.908.029-.433.118-.833.266-1.2.148-.368.357-.683.625-.946.268-.263.594-.469.978-.616.384-.148.826-.222 1.325-.222.565 0 1.047.076 1.445.227.398.151.728.346.989.584s.454.506.581.806c.127.299.201.593.223.881.007.087-.02.157-.081.211-.062.054-.132.081-.212.081h-.88c-.072 0-.141-.023-.206-.07-.065-.047-.105-.117-.12-.211-.022-.144-.072-.285-.152-.422s-.188-.26-.326-.368c-.138-.108-.311-.196-.521-.265-.21-.068-.456-.103-.739-.103-.282 0-.529.043-.739.13-.21.087-.386.202-.527.346-.141.144-.25.317-.326.519-.076.202-.121.415-.136.638-.014.274-.022.577-.022.908 0 .332.007.634.022.908.014.231.06.445.136.643.076.198.185.369.326.514.141.144.317.26.527.346.21.087.456.13.739.13.282 0 .529-.034.739-.103.21-.068.386-.157.527-.265.141-.108.252-.231.331-.368.08-.137.13-.278.152-.422zm6.605-2.347c.022-.404.1-.784.234-1.141s.331-.667.592-.93c.261-.263.587-.472.978-.627.391-.155.855-.233 1.391-.233.529 0 .989.076 1.38.227.391.151.717.36.978.627s.46.577.598.93c.138.353.217.735.239 1.146l.016.454.005.514-.005.514-.016.454c-.022.404-.1.784-.234 1.141s-.331.667-.592.93c-.261.263-.588.47-.983.622-.395.151-.856.227-1.385.227-.536 0-.999-.076-1.391-.227-.391-.151-.717-.359-.978-.622s-.458-.573-.592-.93c-.134-.357-.212-.737-.234-1.141l-.016-.454-.005-.514.005-.514.016-.454zm4.921.054c-.029-.519-.197-.921-.505-1.206-.308-.285-.715-.427-1.222-.427s-.914.142-1.222.427c-.308.285-.476.687-.505 1.206-.014.274-.022.579-.022.914 0 .335.007.64.022.914.029.519.197.919.505 1.2.308.281.715.422 1.222.422s.914-.141 1.222-.422c.308-.281.476-.681.505-1.2.014-.274.022-.579.022-.914 0-.335-.007-.64-.022-.914zm6.877.454c.217-.173.357-.35.418-.53.062-.18.092-.346.092-.497 0-.296-.091-.546-.272-.752-.181-.205-.482-.308-.902-.308-.398 0-.69.097-.875.292-.185.195-.317.443-.397.746-.022.094-.065.164-.13.211-.065.047-.13.07-.196.07h-.858c-.08 0-.15-.027-.212-.081-.062-.054-.089-.124-.081-.211.022-.324.105-.631.25-.919.145-.288.339-.541.581-.757.243-.216.527-.388.853-.514.326-.126.677-.189 1.054-.189.456 0 .851.074 1.184.222.333.148.608.339.826.573.217.234.378.494.483.779.105.285.158.568.158.849 0 .18-.011.351-.033.514-.022.162-.072.324-.152.487-.08.162-.196.332-.348.508-.152.177-.355.366-.608.568l-2.01 1.828h3.02c.08 0 .148.029.206.087.058.058.087.126.087.205v.768c0 .079-.029.148-.087.205-.058.058-.127.087-.206.087h-5.073c-.08 0-.148-.029-.206-.087-.058-.058-.087-.126-.087-.205v-.66c0-.123.036-.229.109-.319l.185-.189 3.227-2.779zm4.041-.508c.022-.404.1-.784.234-1.141s.331-.667.592-.93c.261-.263.587-.472.978-.627.391-.155.855-.233 1.391-.233.529 0 .989.076 1.38.227.391.151.717.36.978.627s.46.577.598.93c.138.353.217.735.239 1.146l.016.454.005.514-.005.514-.016.454c-.022.404-.1.784-.234 1.141s-.331.667-.592.93c-.261.263-.588.47-.983.622-.395.151-.856.227-1.385.227-.536 0-.999-.076-1.391-.227-.391-.151-.717-.359-.978-.622s-.458-.573-.592-.93c-.134-.357-.212-.737-.234-1.141l-.016-.454-.005-.514.005-.514.016-.454zm4.921.054c-.029-.519-.197-.921-.505-1.206-.308-.285-.715-.427-1.222-.427s-.914.142-1.222.427c-.308.285-.476.687-.505 1.206-.014.274-.022.579-.022.914 0 .335.007.64.022.914.029.519.197.919.505 1.2.308.281.715.422 1.222.422s.914-.141 1.222-.422c.308-.281.476-.681.505-1.2.014-.274.022-.579.022-.914 0-.335-.007-.64-.022-.914zm9.614-2.985c.485 0 .913.065 1.282.195s.677.292.923.487.433.409.559.643c.127.234.197.456.212.665.007.087-.02.157-.081.211-.062.054-.132.081-.212.081h-.76c-.123 0-.215-.023-.277-.07-.062-.047-.118-.11-.168-.189-.109-.18-.273-.337-.494-.47-.221-.133-.549-.2-.983-.2-.188 0-.368.02-.538.059-.17.04-.319.097-.445.173-.127.076-.226.168-.299.276-.072.108-.109.231-.109.368 0 .166.034.301.103.406.069.105.185.195.348.27.163.076.378.146.646.211s.601.141.999.227c.435.094.809.204 1.124.33.315.126.572.278.771.454.199.177.348.38.445.611.098.231.147.494.147.789 0 .324-.072.625-.217.903-.145.278-.351.515-.619.714-.268.198-.598.355-.989.47-.391.115-.829.173-1.315.173-.406 0-.793-.049-1.162-.146-.369-.097-.697-.238-.983-.422-.286-.184-.516-.406-.69-.665-.174-.26-.272-.548-.293-.865-.007-.087.02-.157.081-.211.062-.054.132-.081.212-.081h.76c.123 0 .217.022.282.065.065.043.12.108.163.195l.185.281c.072.094.17.177.293.249.123.072.277.132.462.178.185.047.415.07.69.07.217 0 .427-.016.63-.049.203-.032.38-.087.532-.162.152-.076.275-.169.369-.281.094-.112.141-.251.141-.416 0-.159-.051-.288-.152-.389-.101-.101-.255-.187-.462-.26-.206-.072-.462-.141-.766-.205-.304-.065-.655-.148-1.054-.249-.362-.087-.679-.189-.951-.308-.272-.119-.496-.265-.674-.438-.177-.173-.31-.377-.397-.611-.087-.234-.13-.514-.13-.838 0-.324.072-.624.217-.898.145-.274.344-.508.598-.703.253-.195.556-.348.907-.46.351-.112.73-.168 1.135-.168zm5.095 2.347c0-.079.029-.148.087-.205.058-.058.127-.087.206-.087h.826c.08 0 .148.029.206.087.058.058.087.126.087.205v2.747c0 .433.092.779.277 1.038.185.26.487.389.907.389.384 0 .677-.13.88-.389.203-.26.304-.606.304-1.038v-2.747c0-.079.029-.148.087-.205.058-.058.127-.087.206-.087h.826c.08 0 .148.029.206.087.058.058.087.126.087.205v5.04c0 .079-.029.148-.087.205-.058.058-.127.087-.206.087h-.826c-.08 0-.148-.029-.206-.087-.058-.058-.087-.126-.087-.205v-.249c-.167.166-.373.315-.619.449-.246.133-.543.2-.891.2-.442 0-.808-.068-1.097-.205-.29-.137-.521-.321-.695-.552-.174-.231-.297-.499-.369-.806-.072-.306-.109-.629-.109-.968v-2.909zm8.919.249c.174-.209.384-.369.63-.481.246-.112.503-.168.771-.168.456 0 .829.085 1.119.254.29.169.518.391.684.665.094-.144.21-.274.348-.389.138-.115.284-.213.44-.292.156-.079.317-.139.483-.178.167-.04.33-.059.489-.059.413 0 .757.068 1.032.205.275.137.498.321.668.552.17.231.29.499.359.806.069.306.103.629.103.968v2.909c0 .079-.029.148-.087.205-.058.058-.127.087-.206.087h-.826c-.08 0-.148-.029-.206-.087-.058-.058-.087-.126-.087-.205v-2.855c0-.49-.094-.833-.282-1.027-.188-.195-.453-.292-.793-.292-.29 0-.538.094-.744.281-.206.187-.317.515-.331.984v2.909c0 .079-.029.148-.087.205-.058.058-.127.087-.206.087h-.826c-.08 0-.148-.029-.206-.087-.058-.058-.087-.126-.087-.205v-2.855c0-.49-.094-.833-.282-1.027-.188-.195-.453-.292-.793-.292-.297 0-.55.099-.76.297-.21.198-.315.539-.315 1.022v2.855c0 .079-.029.148-.087.205-.058.058-.127.087-.206.087h-.826c-.08 0-.148-.029-.206-.087-.058-.058-.087-.126-.087-.205v-5.04c0-.079.029-.148.087-.205.058-.058.127-.087.206-.087h.826c.08 0 .148.029.206.087.058.058.087.126.087.205v.249zm10.799 0c.174-.209.384-.369.63-.481.246-.112.503-.168.771-.168.456 0 .829.085 1.119.254.29.169.518.391.684.665.094-.144.21-.274.348-.389.138-.115.284-.213.44-.292.156-.079.317-.139.483-.178.167-.04.33-.059.489-.059.413 0 .757.068 1.032.205.275.137.498.321.668.552.17.231.29.499.359.806.069.306.103.629.103.968v2.909c0 .079-.029.148-.087.205-.058.058-.127.087-.206.087h-.826c-.08 0-.148-.029-.206-.087-.058-.058-.087-.126-.087-.205v-2.855c0-.49-.094-.833-.282-1.027-.188-.195-.453-.292-.793-.292-.29 0-.538.094-.744.281-.206.187-.317.515-.331.984v2.909c0 .079-.029.148-.087.205-.058.058-.127.087-.206.087h-.826c-.08 0-.148-.029-.206-.087-.058-.058-.087-.126-.087-.205v-2.855c0-.49-.094-.833-.282-1.027-.188-.195-.453-.292-.793-.292-.297 0-.55.099-.76.297-.21.198-.315.539-.315 1.022v2.855c0 .079-.029.148-.087.205-.058.058-.127.087-.206.087h-.826c-.08 0-.148-.029-.206-.087-.058-.058-.087-.126-.087-.205v-5.04c0-.079.029-.148.087-.205.058-.058.127-.087.206-.087h.826c.08 0 .148.029.206.087.058.058.087.126.087.205v.249zm10.799 4.791c0 .079-.029.148-.087.205-.058.058-.127.087-.206.087h-.826c-.08 0-.148-.029-.206-.087-.058-.058-.087-.126-.087-.205v-5.04c0-.079.029-.148.087-.205.058-.058.127-.087.206-.087h.826c.08 0 .148.029.206.087.058.058.087.126.087.205v5.04zm-.239-7.386c.08 0 .148.029.206.087.058.058.087.126.087.205v.844c0 .079-.029.148-.087.205-.058.058-.127.087-.206.087h-.934c-.08 0-.148-.029-.206-.087-.058-.058-.087-.126-.087-.205v-.844c0-.079.029-.148.087-.205.058-.058.127-.087.206-.087h.934zm4.454 5.645c0 .224.06.402.179.535.12.133.342.2.668.2h.663c.08 0 .148.029.206.087.058.058.087.126.087.205v.714c0 .079-.029.148-.087.205-.058.058-.127.087-.206.087h-.804c-.681 0-1.204-.164-1.57-.492-.366-.328-.549-.831-.549-1.509v-2.325h-.717c-.08 0-.148-.029-.206-.087-.058-.058-.087-.126-.087-.205v-.714c0-.079.029-.148.087-.205.058-.058.127-.087.206-.087h.717v-1.763c0-.079.029-.148.087-.205.058-.058.127-.087.206-.087h.826c.08 0 .148.029.206.087.058.058.087.126.087.205v1.763h1.401c.08 0 .148.029.206.087.058.058.087.126.087.205v.714c0 .079-.029.148-.087.205-.058.058-.127.087-.206.087h-1.401v2.293zm-80.675 7.17c.167 0 .25.083.25.249v.162c0 .159-.083.238-.25.238h-2.14v6.683c0 .159-.083.238-.25.238h-.196c-.159 0-.239-.079-.239-.238v-6.683h-2.151c-.159 0-.239-.079-.239-.238v-.162c0-.166.08-.249.239-.249h4.976zm4.9 7.57c-.159 0-.239-.079-.239-.238v-.508c-.065.101-.15.202-.255.303-.105.101-.234.191-.386.27-.152.079-.333.146-.543.2-.21.054-.456.081-.739.081-.261 0-.509-.041-.744-.124-.235-.083-.442-.196-.619-.341-.177-.144-.319-.314-.424-.508-.105-.195-.158-.407-.158-.638 0-.245.053-.465.158-.66.105-.195.252-.366.44-.514.188-.148.415-.27.679-.368.264-.097.556-.168.875-.211l1.716-.238v-.379c0-.389-.118-.692-.353-.908-.235-.216-.61-.324-1.124-.324-.406 0-.719.078-.94.233-.221.155-.36.323-.418.503-.029.087-.063.146-.103.178l-.158.049h-.152c-.065 0-.121-.023-.168-.07-.047-.047-.071-.103-.071-.168 0-.101.036-.227.109-.379.072-.151.19-.299.353-.443.163-.144.371-.269.625-.373.253-.105.561-.157.923-.157.427 0 .78.058 1.059.173.279.115.498.265.657.449.159.184.27.388.331.611.062.224.092.443.092.66v3.601c0 .159-.08.238-.239.238h-.185zm-2.053-.519c.246 0 .48-.041.701-.124.221-.083.415-.207.581-.373.167-.166.297-.375.391-.627.094-.252.141-.548.141-.887v-.368l-1.401.195c-1.202.166-1.803.548-1.803 1.146 0 .18.042.335.125.465.083.13.19.238.32.324.13.087.279.15.445.189.167.04.333.059.5.059zm5.79-6.5c0 .072-.024.13-.071.173-.047.043-.107.065-.179.065h-.413c-.159 0-.239-.079-.239-.238v-.411c0-.072.022-.132.065-.178.043-.047.101-.07.174-.07h.413c.072 0 .132.023.179.07.047.047.071.106.071.178v.411zm-.12 6.781c0 .159-.08.238-.239.238h-.185c-.159 0-.239-.079-.239-.238v-5.148c0-.159.08-.238.239-.238h.185c.159 0 .239.079.239.238v5.148zm7.789-.725l1.336-4.499.071-.103c.04-.04.096-.059.168-.059h.206c.058 0 .109.022.152.065l.065.151-.022.119-1.532 5.018c-.036.094-.078.162-.125.205-.047.043-.121.065-.223.065h-.185c-.196 0-.319-.09-.369-.27l-1.369-4.261-1.369 4.261c-.051.18-.174.27-.369.27h-.185c-.101 0-.176-.022-.223-.065-.047-.043-.089-.112-.125-.205l-1.532-5.018-.022-.119.065-.151c.043-.043.094-.065.152-.065h.206c.072 0 .129.02.168.059l.071.103 1.336 4.499 1.423-4.445.087-.141c.043-.05.112-.076.206-.076h.217c.094 0 .163.025.206.076l.087.141 1.423 4.445zm7.67.963c-.159 0-.239-.079-.239-.238v-.508c-.065.101-.15.202-.255.303-.105.101-.234.191-.386.27-.152.079-.333.146-.543.2-.21.054-.456.081-.739.081-.261 0-.509-.041-.744-.124-.235-.083-.442-.196-.619-.341-.177-.144-.319-.314-.424-.508-.105-.195-.158-.407-.158-.638 0-.245.053-.465.158-.66.105-.195.252-.366.44-.514.188-.148.415-.27.679-.368.264-.097.556-.168.875-.211l1.716-.238v-.379c0-.389-.118-.692-.353-.908-.235-.216-.61-.324-1.124-.324-.406 0-.719.078-.94.233-.221.155-.36.323-.418.503-.029.087-.063.146-.103.178l-.158.049h-.152c-.065 0-.121-.023-.168-.07-.047-.047-.071-.103-.071-.168 0-.101.036-.227.109-.379.072-.151.19-.299.353-.443.163-.144.371-.269.625-.373.253-.105.561-.157.923-.157.427 0 .78.058 1.059.173.279.115.498.265.657.449.159.184.27.388.331.611.062.224.092.443.092.66v3.601c0 .159-.08.238-.239.238h-.185zm-2.053-.519c.246 0 .48-.041.701-.124.221-.083.415-.207.581-.373.167-.166.297-.375.391-.627.094-.252.141-.548.141-.887v-.368l-1.401.195c-1.202.166-1.803.548-1.803 1.146 0 .18.042.335.125.465.083.13.19.238.32.324.13.087.279.15.445.189.167.04.333.059.5.059zm9.712.281c0 .159-.08.238-.239.238h-.185c-.159 0-.239-.079-.239-.238v-3.017c0-.577-.141-1.029-.424-1.357-.282-.328-.695-.492-1.238-.492-.521 0-.938.162-1.249.487-.311.324-.467.779-.467 1.363v3.017c0 .159-.08.238-.239.238h-.185c-.159 0-.239-.079-.239-.238v-5.148c0-.159.08-.238.239-.238h.185c.159 0 .239.079.239.238v.508c.196-.252.431-.458.706-.616.275-.159.648-.238 1.119-.238.369 0 .692.061.967.184s.505.292.69.508c.185.216.324.472.418.768.094.296.141.616.141.963v3.071zm6.16-4.986c-.152 0-.228-.068-.228-.205.007-.245.058-.501.152-.768s.237-.51.429-.73c.192-.22.436-.4.733-.541.297-.141.652-.211 1.065-.211.413 0 .764.061 1.054.184.29.123.527.285.712.487.185.202.319.436.402.703.083.267.125.541.125.822 0 .447-.098.844-.293 1.19-.196.346-.492.703-.891 1.071l-2.542 2.574h3.639c.167 0 .25.083.25.249v.162c0 .159-.083.238-.25.238h-4.454c-.159 0-.239-.079-.239-.238v-.162c0-.072.02-.142.06-.211.04-.068.11-.15.212-.243l2.814-2.801c.203-.187.369-.357.5-.508.13-.151.234-.297.31-.438.076-.141.129-.281.158-.422.029-.141.043-.294.043-.46 0-.483-.138-.862-.413-1.136-.275-.274-.674-.411-1.195-.411-.5 0-.891.142-1.173.427-.282.285-.453.661-.511 1.13-.014.087-.049.15-.103.189l-.147.059h-.217zm6.736.53c.007-.397.054-.775.141-1.136.087-.36.232-.678.435-.952.203-.274.469-.492.798-.654.33-.162.741-.243 1.233-.243.492 0 .904.081 1.233.243.33.162.594.38.793.654.199.274.344.591.435.952.091.36.139.739.147 1.136.014.62.014 1.226 0 1.817-.014.397-.065.775-.152 1.136-.087.36-.23.678-.429.952-.199.274-.464.492-.793.654-.33.162-.741.243-1.233.243-.492 0-.904-.081-1.233-.243-.33-.162-.594-.38-.793-.654-.199-.274-.344-.591-.435-.952-.091-.36-.139-.739-.147-1.136-.014-.591-.014-1.197 0-1.817zm4.53.054c-.014-.728-.179-1.309-.494-1.741-.315-.433-.791-.649-1.429-.649-.645 0-1.123.216-1.434.649-.311.433-.474 1.013-.489 1.741l-.011.849.011.86c.014.743.177 1.327.489 1.752.311.425.789.638 1.434.638.645 0 1.123-.213 1.434-.638.311-.425.474-1.009.489-1.752l.011-.86-.011-.849zm5.682 4.402c0 .159-.08.238-.239.238h-.206c-.159 0-.239-.079-.239-.238v-6.446l-1.945 1.492c-.13.094-.243.079-.337-.043l-.12-.151c-.043-.058-.062-.117-.054-.178.007-.061.04-.114.098-.157l2.314-1.774.141-.065.141-.011h.206c.159 0 .239.079.239.238v7.094zm2.292-2.206c0-.209.024-.411.071-.606.047-.195.107-.373.179-.535.072-.162.147-.31.223-.443l.212-.33 2.14-2.996.12-.135c.043-.054.116-.081.217-.081h.206c.065 0 .118.023.158.07.04.047.06.103.06.168l-.016.087-.038.054-1.63 2.293.353-.065.386-.022c.435 0 .817.07 1.146.211.33.141.605.33.826.568.221.238.387.51.5.817.112.306.168.622.168.946 0 .324-.056.64-.168.946-.112.306-.279.579-.5.817-.221.238-.496.429-.826.573-.33.144-.712.216-1.146.216-.435 0-.817-.072-1.146-.216-.33-.144-.605-.335-.826-.573-.221-.238-.387-.51-.5-.817-.112-.306-.168-.622-.168-.946zm4.595 0c0-.31-.054-.582-.163-.817-.109-.234-.253-.431-.435-.589-.181-.159-.389-.279-.625-.362-.235-.083-.48-.124-.733-.124s-.498.041-.733.124c-.235.083-.444.204-.625.362-.181.159-.326.355-.435.589-.109.234-.163.506-.163.817 0 .31.054.584.163.822.109.238.253.436.435.595.181.159.389.279.625.362.235.083.48.124.733.124s.498-.041.733-.124c.235-.083.444-.204.625-.362.181-.159.326-.357.435-.595.109-.238.163-.512.163-.822z" fill="#A0B0B1"/></g></svg>