<svg width="167" height="158" viewBox="0 0 167 158" xmlns="http://www.w3.org/2000/svg"><title>kstartup</title><desc>Created with Sketch.</desc><g fill="#A0B0B1"><path d="M166.631 88.045s-6.312-.604-10.114 2.174c-1.191.874-2.292 2.397-3.147 3.83.647-2.924 1.082-5.913 1.295-8.952 1.482-.239 4.829-1.035 8.154-3.533 3.567-2.678 3.849-7.925 3.849-7.925s-6.199.43-9.363 3.72c-1.024 1.066-1.824 2.78-2.394 4.337.16-3.212.054-6.395-.28-9.524 1.406-.481 4.46-1.787 7.194-4.706 2.955-3.152 2.282-8.261 2.282-8.261s-5.909 1.407-8.366 5.087c-.81 1.215-1.273 3.041-1.541 4.656-.513-3.246-1.263-6.426-2.224-9.51 1.187-.625 4.041-2.379 6.239-5.77 2.287-3.517.711-8.339.711-8.339s-5.449 2.302-7.158 6.248c-.633 1.471-.703 3.623-.622 5.347-1.166-3.307-2.569-6.491-4.153-9.53.973-.728 3.52-2.897 5.079-6.643 1.565-3.759-.826-8.163-.826-8.163s-4.838 3.094-5.774 7.177c-.374 1.646.037 3.967.463 5.668-1.816-3.244-3.838-6.298-6.007-9.116.819-.876 2.86-3.369 3.681-7.204.83-3.88-2.272-7.747-2.272-7.747s-4.115 3.761-4.277 7.851c-.063 1.609.71 3.712 1.418 5.276-2.377-2.888-4.898-5.501-7.498-7.773.629-.969 2.154-3.707 2.255-7.553.1-3.878-3.597-7.112-3.597-7.112s-3.288 4.288-2.702 8.26c.241 1.644 1.474 3.667 2.469 5.078-.928-.755-1.861-1.47-2.799-2.134-2.112-1.604-4.193-3.016-6.217-4.273.369-.833 1.531-3.855.891-7.828-.606-3.758-4.759-6.288-4.759-6.288s-2.402 4.663-1.116 8.406c.607 1.774 2.564 3.818 3.808 4.993-3.783-2.259-7.321-3.941-10.419-5.2.192-.77.824-3.935-.545-7.762-1.262-3.529-5.731-5.306-5.731-5.306s-1.466 4.885.449 8.291c.968 1.725 3.484 3.504 4.855 4.39-2.127-.829-4.016-1.448-5.597-1.916-.477-.566-2.804-3.17-5.649-3.628-2.277-.363-6.101 1.015-6.101 1.015s1.834 2.349 5.538 3.546c2.484.802 5.227-.312 6.052-.694 1.921.624 4.314 1.484 7.03 2.673-1.593-.258-4.843-.654-6.877-.029-3.888 1.198-6.439 5.675-6.439 5.675s4.526 1.637 8.041-.082c3.76-1.831 5.636-4.47 6.101-5.196 3.047 1.376 6.473 3.167 10.081 5.487-1.672-.531-4.425-1.257-6.358-.997-4.133.556-7.54 4.629-7.54 4.629s4.242 2.399 8.097 1.259c3.913-1.153 6.265-3.321 7.012-4.099 1.598 1.069 3.227 2.237 4.877 3.527 1.468 1.075 2.926 2.264 4.36 3.558-1.572-.815-4.253-2.038-6.277-2.1-4.26-.132-8.448 3.396-8.448 3.396s3.811 3.116 7.901 2.613c4.188-.513 6.97-2.328 7.838-2.968 2.587 2.444 5.076 5.223 7.39 8.278-1.455-1.067-3.665-2.492-5.504-2.854-4.258-.843-9.128 2.002-9.128 2.002s3.24 3.768 7.442 3.944c4.121.176 7.168-1.063 8.291-1.606 2.014 2.804 3.878 5.816 5.536 9.002-1.253-1.261-2.999-2.787-4.605-3.391-4.118-1.556-9.552.492-9.552.492s2.547 4.325 6.737 5.202c3.94.83 7.137.183 8.478-.188 1.491 3.102 2.787 6.35 3.836 9.708-1.023-1.471-2.482-3.276-3.973-4.148-3.842-2.251-9.689-1.098-9.689-1.098s1.744 4.772 5.789 6.352c3.805 1.489 7.14 1.373 8.559 1.224.923 3.363 1.589 6.827 1.966 10.352-.75-1.672-1.906-3.831-3.284-4.993-3.44-2.9-9.534-2.715-9.534-2.715s.855 5.083 4.624 7.347c3.567 2.146 6.962 2.575 8.399 2.657.224 3.276.192 6.6-.138 9.943-.45-1.74-1.176-3.859-2.254-5.149-2.912-3.491-9.069-4.32-9.069-4.32s-.1 5.251 3.262 8.154c3.094 2.676 6.329 3.693 7.815 4.041-.347 3.21-.958 6.354-1.788 9.411-.127-1.814-.46-4.034-1.294-5.497-2.266-3.992-8.298-5.851-8.298-5.851s-1.091 5.262 1.739 8.735c2.574 3.164 5.586 4.724 7.038 5.341-.946 2.95-2.095 5.815-3.418 8.575.186-1.777.23-3.886-.298-5.396-1.529-4.39-7.237-7.262-7.237-7.262s-2.087 5.104.103 9.068c1.947 3.529 4.601 5.585 5.971 6.481-1.438 2.683-3.034 5.255-4.758 7.696.486-1.702.871-3.682.639-5.209-.708-4.664-5.902-8.503-5.902-8.503s-3.063 4.782-1.609 9.131c1.272 3.815 3.508 6.31 4.734 7.458-1.979 2.537-4.081 4.915-6.274 7.101.853-1.681 1.695-3.73 1.753-5.388.165-4.804-4.335-9.527-4.335-9.527s-3.97 4.295-3.33 8.905c.573 4.139 2.417 7.056 3.416 8.376-2.461 2.23-5.004 4.229-7.578 5.96 1.196-1.56 2.469-3.522 2.842-5.207 1.07-4.801-2.559-10.298-2.559-10.298s-4.802 3.653-5.029 8.396c-.202 4.223 1.086 7.444 1.842 8.951-.989.584-1.977 1.132-2.965 1.634-1.792.987-3.542 1.859-5.251 2.641 1.409-1.321 2.882-2.952 3.529-4.469 1.979-4.65-.63-10.778-.63-10.778s-5.516 2.872-6.637 7.598c-.978 4.119-.34 7.518.135 9.2-3.133 1.257-6.054 2.201-8.681 2.911 1.643-1.087 3.395-2.459 4.318-3.858 2.867-4.342 1.397-10.935 1.397-10.935s-6.081 1.965-8.099 6.53c-1.744 3.948-1.759 7.444-1.604 9.227-4.3.916-7.31.888-8.59 1.014-1.331.114-3.656.22-6.332-.076-1.528-.174-4.243-.164-7.877-.938.155-1.783.143-5.279-1.604-9.227-2.016-4.564-8.098-6.53-8.098-6.53s-1.471 6.593 1.393 10.935c.923 1.399 2.677 2.771 4.321 3.858-2.627-.71-5.549-1.654-8.681-2.911.475-1.682 1.113-5.081.135-9.2-1.121-4.726-6.638-7.598-6.638-7.598s-2.609 6.128-.631 10.778c.648 1.516 2.122 3.148 3.53 4.469-1.709-.782-3.462-1.654-5.254-2.641-.985-.502-1.974-1.05-2.962-1.634.757-1.507 2.044-4.728 1.841-8.951-.225-4.743-5.029-8.396-5.029-8.396s-3.63 5.497-2.559 10.298c.375 1.685 1.646 3.647 2.841 5.209-2.572-1.733-5.116-3.731-7.577-5.962.998-1.32 2.844-4.237 3.414-8.376.643-4.61-3.332-8.905-3.332-8.905s-4.496 4.723-4.334 9.527c.058 1.658.901 3.709 1.754 5.389-2.194-2.186-4.295-4.565-6.271-7.1 1.223-1.15 3.459-3.644 4.73-7.46 1.453-4.349-1.606-9.131-1.606-9.131s-5.196 3.839-5.904 8.503c-.232 1.527.153 3.507.638 5.209-1.721-2.441-3.316-5.012-4.758-7.696 1.37-.896 4.028-2.952 5.971-6.481 2.189-3.964.103-9.068.103-9.068s-5.709 2.873-7.238 7.262c-.526 1.511-.483 3.619-.298 5.396-1.324-2.76-2.472-5.625-3.418-8.575 1.451-.617 4.463-2.177 7.038-5.341 2.829-3.473 1.741-8.735 1.741-8.735s-6.032 1.859-8.298 5.851c-.835 1.462-1.166 3.683-1.293 5.497-.833-3.057-1.444-6.201-1.791-9.411 1.486-.349 4.721-1.365 7.815-4.041 3.362-2.903 3.262-8.154 3.262-8.154s-6.157.829-9.066 4.32c-1.081 1.291-1.805 3.409-2.256 5.147-.331-3.34-.363-6.664-.135-9.94 1.436-.082 4.828-.512 8.395-2.657 3.768-2.264 4.624-7.347 4.624-7.347s-6.095-.185-9.534 2.715c-1.378 1.162-2.534 3.32-3.285 4.993.378-3.525 1.044-6.988 1.967-10.352 1.419.148 4.753.265 8.558-1.224 4.046-1.581 5.792-6.352 5.792-6.352s-5.849-1.153-9.695 1.098c-1.488.871-2.946 2.675-3.97 4.145 1.051-3.357 2.344-6.603 3.835-9.705 1.344.371 4.538 1.018 8.478.188 4.192-.877 6.737-5.202 6.737-5.202s-5.432-2.049-9.554-.492c-1.604.605-3.35 2.13-4.603 3.389 1.658-3.184 3.522-6.196 5.536-8.999 1.125.543 4.17 1.782 8.29 1.606 4.203-.176 7.443-3.944 7.443-3.944s-4.871-2.846-9.129-2.002c-1.836.362-4.045 1.786-5.504 2.854 2.314-3.056 4.804-5.834 7.39-8.277.868.639 3.65 2.454 7.837 2.967 4.091.503 7.903-2.613 7.903-2.613s-4.19-3.528-8.453-3.396c-2.019.062-4.701 1.284-6.272 2.1 1.432-1.294 2.89-2.483 4.361-3.558 1.646-1.29 3.275-2.457 4.875-3.527.749.778 3.1 2.946 7.013 4.099 3.852 1.14 8.095-1.259 8.095-1.259s-3.407-4.073-7.543-4.629c-1.929-.26-4.683.464-6.357.997 3.612-2.32 7.035-4.11 10.082-5.486.466.726 2.342 3.364 6.102 5.196 3.515 1.719 8.041.082 8.041.082s-2.552-4.476-6.44-5.675c-2.031-.625-5.281-.229-6.875.029 2.717-1.189 5.106-2.049 7.027-2.673.828.382 3.57 1.496 6.052.694 3.705-1.197 5.539-3.546 5.539-3.546s-3.825-1.378-6.099-1.015c-2.847.459-5.173 3.062-5.651 3.628-1.581.468-3.47 1.088-5.596 1.916 1.371-.884 3.885-2.664 4.856-4.39 1.917-3.406.448-8.291.448-8.291s-4.468 1.777-5.732 5.306c-1.368 3.827-.735 6.992-.545 7.762-3.095 1.259-6.635 2.941-10.415 5.198 1.241-1.172 3.2-3.217 3.805-4.99 1.286-3.742-1.113-8.406-1.113-8.406s-4.153 2.53-4.758 6.288c-.64 3.973.518 6.994.888 7.828-2.024 1.257-4.105 2.669-6.216 4.273-.939.664-1.872 1.38-2.8 2.134.995-1.411 2.229-3.434 2.472-5.078.585-3.972-2.702-8.26-2.702-8.26s-3.699 3.234-3.6 7.112c.1 3.846 1.626 6.584 2.254 7.553-2.599 2.272-5.123 4.885-7.495 7.773.706-1.565 1.479-3.668 1.416-5.276-.162-4.09-4.278-7.851-4.278-7.851s-3.104 3.866-2.271 7.747c.821 3.835 2.862 6.328 3.68 7.204-2.169 2.817-4.19 5.869-6.007 9.115.427-1.702.84-4.021.463-5.667-.933-4.083-5.774-7.177-5.774-7.177s-2.391 4.404-.825 8.163c1.559 3.746 4.105 5.915 5.078 6.643-1.584 3.039-2.987 6.223-4.153 9.53.08-1.723.01-3.876-.625-5.347-1.707-3.946-7.155-6.248-7.155-6.248s-1.574 4.822.71 8.339c2.199 3.392 5.051 5.145 6.242 5.77-.964 3.084-1.714 6.263-2.227 9.507-.267-1.614-.73-3.44-1.541-4.654-2.457-3.68-8.366-5.087-8.366-5.087s-.673 5.11 2.282 8.261c2.734 2.919 5.789 4.225 7.192 4.706-.332 3.13-.435 6.311-.278 9.524-.57-1.556-1.37-3.273-2.394-4.337-3.165-3.29-9.364-3.72-9.364-3.72s.283 5.248 3.848 7.925c3.325 2.498 6.674 3.293 8.155 3.533.213 3.039.651 6.028 1.296 8.952-.855-1.432-1.956-2.955-3.147-3.83-3.802-2.778-10.114-2.174-10.114-2.174s1.275 5.224 5.363 7.32c3.753 1.926 7.213 2.187 8.786 2.191.826 2.938 1.852 5.801 3.05 8.572-1.138-1.311-2.549-2.693-3.932-3.383-4.345-2.16-10.572-.499-10.572-.499s2.264 5.037 6.765 6.463c4.157 1.315 7.698.992 9.266.735 1.376 2.788 2.924 5.467 4.606 8.022-1.407-1.151-3.115-2.333-4.661-2.801-4.769-1.447-10.717 1.259-10.717 1.259s3.227 4.683 8.018 5.365c4.431.63 7.933-.288 9.457-.807 1.781 2.443 3.68 4.752 5.671 6.91-1.536-.834-3.284-1.607-4.786-1.802-5.066-.658-10.535 3.052-10.535 3.052s4.125 4.169 9.069 4.057c4.403-.102 7.665-1.501 9.182-2.299 2.114 2.055 4.303 3.942 6.532 5.638-1.581-.516-3.294-.913-4.706-.865-5.213.182-10.012 4.822-10.012 4.822s4.931 3.503 9.88 2.565c4.325-.821 7.31-2.715 8.716-3.783 1.579 1.023 3.16 1.953 4.741 2.772 1.001.561 1.989 1.088 2.967 1.583-1.744-.273-3.63-.414-5.101-.117-5.204 1.052-9.151 6.511-9.151 6.511s5.616 2.701 10.413.933c4.253-1.568 6.912-4.022 8.098-5.312 2.882 1.267 5.616 2.277 8.14 3.077-1.778.021-3.657.198-5.053.732-5.034 1.925-7.971 8.071-7.971 8.071s6.152 1.775 10.638-.801c3.957-2.269 6.164-5.155 7.122-6.659l.678.166c2.723.633 13.301 2.75 24.498.501.896-.195 1.847-.415 2.857-.667.958 1.503 3.165 4.389 7.122 6.659 4.486 2.576 10.637.801 10.637.801s-2.937-6.147-7.97-8.071c-1.396-.534-3.275-.711-5.053-.732 2.524-.8 5.258-1.81 8.14-3.077 1.186 1.291 3.845 3.745 8.098 5.312 4.796 1.767 10.412-.933 10.412-.933s-3.948-5.459-9.151-6.511c-1.471-.297-3.355-.156-5.104.117.981-.496 1.969-1.022 2.97-1.583 1.578-.82 3.165-1.749 4.738-2.772 1.406 1.065 4.393 2.962 8.718 3.783 4.949.938 9.88-2.565 9.88-2.565s-4.796-4.64-10.012-4.822c-1.411-.049-3.125.349-4.706.865 2.229-1.696 4.418-3.583 6.535-5.638 1.513.798 4.776 2.198 9.18 2.299 4.943.112 9.069-4.057 9.069-4.057s-5.469-3.71-10.535-3.052c-1.501.195-3.25.968-4.786 1.802 1.991-2.158 3.89-4.466 5.671-6.91 1.523.519 5.023 1.438 9.457.807 4.794-.682 8.02-5.365 8.02-5.365s-5.949-2.706-10.72-1.259c-1.548.468-3.254 1.651-4.661 2.801 1.682-2.555 3.227-5.234 4.606-8.022 1.569.257 5.108.58 9.264-.735 4.504-1.426 6.767-6.463 6.767-6.463s-6.23-1.661-10.572.499c-1.384.69-2.794 2.071-3.933 3.383 1.196-2.771 2.224-5.633 3.05-8.572 1.573-.004 5.034-.265 8.789-2.191 4.086-2.096 5.361-7.32 5.361-7.32z"/><path d="M53.857 44.317c.355 0 .532.177.532.532v.347c0 .339-.177.509-.532.509h-4.559v14.289c0 .339-.177.509-.532.509h-.417c-.339 0-.509-.17-.509-.509v-14.289h-4.582c-.339 0-.509-.17-.509-.509v-.347c0-.355.17-.532.509-.532h10.599zm10.159-.231c.895 0 1.712.131 2.453.393.741.262 1.377.659 1.909 1.191s.949 1.195 1.25 1.988c.301.794.467 1.73.498 2.809.031.694.046 1.341.046 1.942s-.015 1.249-.046 1.942c-.062 2.189-.617 3.8-1.666 4.832-1.049 1.033-2.53 1.549-4.443 1.549-1.928 0-3.413-.516-4.455-1.549-1.041-1.033-1.593-2.644-1.655-4.832-.031-.694-.046-1.341-.046-1.942s.015-1.249.046-1.942c.031-1.079.197-2.015.498-2.809s.717-1.457 1.25-1.988c.532-.532 1.165-.929 1.898-1.191.733-.262 1.554-.393 2.465-.393zm0 1.387c-.648 0-1.25.096-1.805.289-.555.193-1.041.497-1.458.913-.417.416-.744.948-.983 1.595s-.374 1.418-.405 2.312l-.035.971-.012.856.012.867.035.96c.031.909.166 1.684.405 2.324.239.64.563 1.168.972 1.584.409.416.891.721 1.446.913.555.193 1.165.289 1.828.289s1.273-.096 1.828-.289c.555-.193 1.037-.497 1.446-.913.409-.416.733-.944.972-1.584.239-.64.374-1.414.405-2.324.015-.339.023-.659.023-.96v-1.723c0-.293-.008-.617-.023-.971-.031-.894-.166-1.665-.405-2.312-.239-.647-.567-1.179-.983-1.595-.417-.416-.902-.721-1.458-.913-.555-.193-1.157-.289-1.805-.289zm17.703-1.156c1.62 0 2.912.405 3.876 1.214.964.809 1.446 2 1.446 3.572s-.482 2.763-1.446 3.572c-.964.809-2.256 1.214-3.876 1.214h-4.674v6.104c0 .339-.177.509-.532.509h-.417c-.339 0-.509-.17-.509-.509v-15.145c0-.355.17-.532.509-.532h5.623zm-4.674 8.185h4.559c1.358 0 2.36-.289 3.008-.867.648-.578.972-1.422.972-2.532s-.324-1.954-.972-2.532c-.648-.578-1.651-.867-3.008-.867h-4.559v6.798zm20.549 2.96l.035-.243c.023-.131.096-.281.22-.451l7.035-10.058c.185-.262.471-.393.856-.393h.949c.339 0 .509.17.509.509v10.127h2.106c.339 0 .509.17.509.509v.37c0 .339-.17.509-.509.509h-2.106v3.653c0 .339-.17.509-.509.509h-.44c-.339 0-.509-.17-.509-.509v-3.653h-7.636c-.339 0-.509-.17-.509-.509v-.37zm8.146-.509v-8.994l-6.317 8.994h6.317zm8.192-4.486c.015-.848.116-1.657.301-2.428.185-.771.494-1.449.926-2.035.432-.586.999-1.052 1.701-1.399.702-.347 1.577-.52 2.626-.52s1.925.173 2.626.52c.702.347 1.265.813 1.689 1.399.424.586.733 1.264.926 2.035.193.771.297 1.58.312 2.428.031 1.326.031 2.62 0 3.884-.031.848-.139 1.657-.324 2.428-.185.771-.49 1.449-.914 2.035-.424.586-.987 1.052-1.689 1.399-.702.347-1.577.52-2.626.52s-1.925-.173-2.626-.52c-.702-.347-1.265-.813-1.689-1.399-.424-.586-.733-1.264-.926-2.035-.193-.771-.297-1.58-.312-2.428-.031-1.264-.031-2.559 0-3.884zm9.65.116c-.031-1.557-.382-2.798-1.053-3.723-.671-.925-1.685-1.387-3.043-1.387-1.373 0-2.391.462-3.055 1.387-.663.925-1.01 2.166-1.041 3.723-.015.647-.023 1.252-.023 1.815s.008 1.175.023 1.838c.031 1.588.378 2.836 1.041 3.746.663.909 1.682 1.364 3.055 1.364 1.373 0 2.391-.455 3.055-1.364.663-.909 1.01-2.158 1.041-3.746.015-.663.023-1.276.023-1.838 0-.563-.008-1.168-.023-1.815zm-79.4 29.311l.093.139.015.092c0 .113-.041.211-.123.293-.082.082-.18.123-.293.123h-1.466c-.206 0-.37-.054-.494-.162l-.216-.193-3.625-4.085v4.023c0 .113-.041.211-.123.293-.082.082-.18.123-.293.123h-1.25c-.113 0-.211-.041-.293-.123-.082-.082-.123-.18-.123-.293v-9.958c0-.113.041-.211.123-.293.082-.082.18-.123.293-.123h1.25c.113 0 .211.041.293.123.082.082.123.18.123.293v3.622l3.363-3.7c.093-.103.19-.185.293-.247.103-.062.237-.092.401-.092h1.419c.113 0 .211.041.293.123.082.082.123.18.123.293 0 .082-.031.159-.093.231l-4.15 4.516 4.458 4.979zm2.569-3.052c-.113 0-.211-.041-.293-.123-.082-.082-.123-.18-.123-.293v-1.017c0-.113.041-.211.123-.293.082-.082.18-.123.293-.123h4.705c.113 0 .211.041.293.123.082.082.123.18.123.293v1.017c0 .113-.041.211-.123.293-.082.082-.18.123-.293.123h-4.705zm12.581-7.245c.689 0 1.296.092 1.82.277.525.185.962.416 1.311.694.35.277.615.583.795.917.18.334.28.65.301.948.01.123-.028.224-.116.301-.087.077-.188.116-.301.116h-1.08c-.175 0-.306-.033-.393-.1-.087-.067-.167-.157-.239-.27-.154-.257-.388-.48-.702-.671-.314-.19-.779-.285-1.396-.285-.267 0-.522.028-.764.085-.242.057-.453.139-.633.247-.18.108-.321.239-.424.393-.103.154-.154.329-.154.524 0 .236.049.429.147.578.098.149.262.277.494.385.231.108.537.208.918.301.381.092.854.2 1.419.324.617.134 1.149.29 1.597.47.447.18.813.396 1.095.647.283.252.494.542.633.871.139.329.208.704.208 1.125 0 .462-.103.891-.309 1.287-.206.396-.499.735-.879 1.017-.381.283-.848.506-1.404.671-.555.164-1.178.247-1.867.247-.576 0-1.126-.069-1.651-.208-.525-.139-.99-.339-1.396-.601-.406-.262-.733-.578-.98-.948s-.386-.781-.417-1.233c-.01-.123.028-.224.116-.301.087-.077.188-.116.301-.116h1.08c.175 0 .309.031.401.092.093.062.17.154.231.277.072.134.159.267.262.401.103.134.242.252.417.355.175.103.393.188.656.254.262.067.589.1.98.1.309 0 .607-.023.895-.069.288-.046.54-.123.756-.231.216-.108.391-.241.525-.401.134-.159.201-.357.201-.593 0-.226-.072-.411-.216-.555-.144-.144-.363-.267-.656-.37-.293-.103-.656-.2-1.088-.293-.432-.092-.931-.211-1.496-.355-.514-.123-.964-.27-1.35-.439-.386-.17-.705-.378-.956-.624-.252-.247-.44-.537-.563-.871-.123-.334-.185-.732-.185-1.195 0-.462.103-.889.309-1.279.206-.391.489-.724.848-1.002.36-.277.789-.496 1.288-.655.499-.159 1.036-.239 1.612-.239zm15.111.154c.113 0 .211.041.293.123.082.082.123.18.123.293v1.094c0 .113-.041.211-.123.293-.082.082-.18.123-.293.123h-2.777v8.447c0 .113-.041.211-.123.293-.082.082-.18.123-.293.123h-1.25c-.113 0-.211-.041-.293-.123-.082-.082-.123-.18-.123-.293v-8.447h-2.777c-.113 0-.211-.041-.293-.123-.082-.082-.123-.18-.123-.293v-1.094c0-.113.041-.211.123-.293.082-.082.18-.123.293-.123h7.636zm7.675 0c.165 0 .288.044.37.131.082.087.154.218.216.393l3.78 9.742.015.108c0 .113-.041.211-.123.293-.082.082-.18.123-.293.123h-1.111c-.206 0-.35-.044-.432-.131-.082-.087-.139-.172-.17-.254l-.663-1.711h-4.875l-.663 1.711c-.031.082-.087.167-.17.254-.082.087-.226.131-.432.131h-1.111c-.113 0-.211-.041-.293-.123-.082-.082-.123-.18-.123-.293l.015-.108 3.78-9.742c.062-.175.134-.306.216-.393.082-.087.206-.131.37-.131h1.697zm.848 6.767l-1.697-4.393-1.697 4.393h3.394zm11.069-6.767c1.286 0 2.263.298 2.931.894.669.596 1.003 1.423 1.003 2.482 0 .75-.172 1.39-.517 1.919-.345.529-.851.922-1.52 1.179l2.129 3.807.046.17c0 .092-.033.172-.1.239s-.147.1-.239.1h-1.311c-.206 0-.357-.049-.455-.146-.098-.098-.167-.188-.208-.27l-2.021-3.592h-2.052v3.592c0 .113-.041.211-.123.293-.082.082-.18.123-.293.123h-1.25c-.113 0-.211-.041-.293-.123-.082-.082-.123-.18-.123-.293v-9.958c0-.113.041-.211.123-.293.082-.082.18-.123.293-.123h3.98zm-2.314 4.856h2.237c.586 0 1.054-.103 1.404-.308.35-.206.525-.596.525-1.172 0-.575-.175-.961-.525-1.156-.35-.195-.818-.293-1.404-.293h-2.237v2.929zm17.07-4.856c.113 0 .211.041.293.123.082.082.123.18.123.293v1.094c0 .113-.041.211-.123.293-.082.082-.18.123-.293.123h-2.777v8.447c0 .113-.041.211-.123.293-.082.082-.18.123-.293.123h-1.25c-.113 0-.211-.041-.293-.123-.082-.082-.123-.18-.123-.293v-8.447h-2.777c-.113 0-.211-.041-.293-.123-.082-.082-.123-.18-.123-.293v-1.094c0-.113.041-.211.123-.293.082-.082.18-.123.293-.123h7.636zm12.041 0c.113 0 .211.041.293.123.082.082.123.18.123.293v6.32c0 .637-.093 1.213-.278 1.726-.185.514-.463.956-.833 1.326-.37.37-.833.655-1.388.856-.555.2-1.198.301-1.928.301-.741 0-1.386-.1-1.936-.301-.55-.2-1.01-.486-1.381-.856-.37-.37-.645-.812-.825-1.326-.18-.514-.27-1.089-.27-1.726v-6.32c0-.113.041-.211.123-.293.082-.082.18-.123.293-.123h1.25c.113 0 .211.041.293.123.082.082.123.18.123.293v6.243c0 .421.057.781.17 1.079.113.298.273.542.478.732.206.19.453.329.741.416.288.087.602.131.941.131.339 0 .656-.044.949-.131.293-.087.543-.226.748-.416.206-.19.368-.434.486-.732s.177-.658.177-1.079v-6.243c0-.113.041-.211.123-.293.082-.082.18-.123.293-.123h1.234zm9.033 0c1.244 0 2.211.293 2.9.879.689.586 1.034 1.444 1.034 2.574s-.345 1.994-1.034 2.59c-.689.596-1.656.894-2.9.894h-2.468v3.437c0 .113-.041.211-.123.293-.082.082-.18.123-.293.123h-1.25c-.113 0-.211-.041-.293-.123-.082-.082-.123-.18-.123-.293v-9.958c0-.113.041-.211.123-.293.082-.082.18-.123.293-.123h4.135zm-2.468 5.01h2.391c.586 0 1.054-.116 1.404-.347.35-.231.525-.635.525-1.21s-.175-.974-.525-1.195c-.35-.221-.818-.331-1.404-.331h-2.391v3.083zm-80.422 13.102c1.244 0 2.211.293 2.9.879.689.586 1.034 1.444 1.034 2.574s-.345 1.994-1.034 2.59c-.689.596-1.656.894-2.9.894h-2.468v3.437c0 .113-.041.211-.123.293-.082.082-.18.123-.293.123h-1.25c-.113 0-.211-.041-.293-.123-.082-.082-.123-.18-.123-.293v-9.958c0-.113.041-.211.123-.293.082-.082.18-.123.293-.123h4.135zm-2.468 5.01h2.391c.586 0 1.054-.116 1.404-.347.35-.231.525-.635.525-1.21s-.175-.974-.525-1.195c-.35-.221-.818-.331-1.404-.331h-2.391v3.083zm14.216-5.01c1.286 0 2.263.298 2.931.894.669.596 1.003 1.423 1.003 2.482 0 .75-.172 1.39-.517 1.919-.345.529-.851.922-1.52 1.179l2.129 3.807.046.17c0 .092-.033.172-.1.239s-.147.1-.239.1h-1.311c-.206 0-.357-.049-.455-.146-.098-.098-.167-.188-.208-.27l-2.021-3.592h-2.052v3.592c0 .113-.041.211-.123.293-.082.082-.18.123-.293.123h-1.25c-.113 0-.211-.041-.293-.123-.082-.082-.123-.18-.123-.293v-9.958c0-.113.041-.211.123-.293.082-.082.18-.123.293-.123h3.98zm-2.314 4.856h2.237c.586 0 1.054-.103 1.404-.308.35-.206.525-.596.525-1.172 0-.575-.175-.961-.525-1.156-.35-.195-.818-.293-1.404-.293h-2.237v2.929zm9.619-.832c.031-.575.141-1.118.332-1.626.19-.509.471-.951.841-1.326.37-.375.833-.673 1.388-.894.555-.221 1.214-.331 1.975-.331.751 0 1.404.108 1.959.324.555.216 1.018.514 1.388.894.37.38.653.822.848 1.326.195.504.309 1.048.339 1.634l.023.647.008.732-.008.732-.023.647c-.031.575-.141 1.118-.332 1.626-.19.509-.471.951-.841 1.326-.37.375-.836.671-1.396.886-.561.216-1.216.324-1.967.324-.761 0-1.419-.108-1.975-.324-.555-.216-1.018-.511-1.388-.886-.37-.375-.651-.817-.841-1.326-.19-.509-.301-1.051-.332-1.626l-.023-.647-.008-.732.008-.732.023-.647zm6.989.077c-.041-.74-.28-1.313-.717-1.719-.437-.406-1.016-.609-1.736-.609s-1.298.203-1.736.609c-.437.406-.676.979-.717 1.719-.021.391-.031.825-.031 1.303s.01.912.031 1.303c.041.74.28 1.31.717 1.711.437.401 1.016.601 1.736.601s1.298-.2 1.736-.601c.437-.401.676-.971.717-1.711.021-.391.031-.825.031-1.303s-.01-.912-.031-1.303zm5.469-.108c.021-.617.134-1.179.339-1.688.206-.509.504-.945.895-1.31.391-.365.872-.647 1.442-.848.571-.2 1.237-.301 1.998-.301.895 0 1.633.116 2.214.347.581.231 1.044.509 1.388.832.345.324.586.658.725 1.002s.219.635.239.871c.01.123-.028.224-.116.301-.087.077-.188.116-.301.116h-1.25c-.113 0-.203-.028-.27-.085l-.147-.177-.162-.27c-.087-.139-.226-.283-.417-.432-.19-.149-.44-.283-.748-.401-.309-.118-.694-.177-1.157-.177-.771 0-1.388.208-1.851.624-.463.416-.71.974-.741 1.672-.021.391-.031.809-.031 1.256 0 .447.01.866.031 1.256.031.853.278 1.472.741 1.857.463.385 1.08.578 1.851.578.381 0 .73-.041 1.049-.123.319-.082.594-.216.825-.401.231-.185.411-.429.54-.732.129-.303.193-.676.193-1.118v-.123h-1.882c-.113 0-.211-.041-.293-.123-.082-.082-.123-.18-.123-.293v-1.094c0-.113.041-.211.123-.293.082-.082.18-.123.293-.123h3.548c.113 0 .211.041.293.123.082.082.123.18.123.293v1.696c0 .617-.098 1.184-.293 1.703-.195.519-.489.966-.879 1.341-.391.375-.879.668-1.466.879-.586.211-1.27.316-2.052.316s-1.46-.103-2.036-.308c-.576-.206-1.054-.493-1.435-.863s-.671-.814-.872-1.333c-.201-.519-.311-1.087-.332-1.703l-.023-.647-.008-.724.008-.724.023-.647zm17.441-3.992c1.286 0 2.263.298 2.931.894.669.596 1.003 1.423 1.003 2.482 0 .75-.172 1.39-.517 1.919-.345.529-.851.922-1.52 1.179l2.129 3.807.046.17c0 .092-.033.172-.1.239s-.147.1-.239.1h-1.311c-.206 0-.357-.049-.455-.146-.098-.098-.167-.188-.208-.27l-2.021-3.592h-2.052v3.592c0 .113-.041.211-.123.293-.082.082-.18.123-.293.123h-1.25c-.113 0-.211-.041-.293-.123-.082-.082-.123-.18-.123-.293v-9.958c0-.113.041-.211.123-.293.082-.082.18-.123.293-.123h3.98zm-2.314 4.856h2.237c.586 0 1.054-.103 1.404-.308.35-.206.525-.596.525-1.172 0-.575-.175-.961-.525-1.156-.35-.195-.818-.293-1.404-.293h-2.237v2.929zm15.065-4.856c.165 0 .288.044.37.131.082.087.154.218.216.393l3.78 9.742.015.108c0 .113-.041.211-.123.293-.082.082-.18.123-.293.123h-1.111c-.206 0-.35-.044-.432-.131-.082-.087-.139-.172-.17-.254l-.663-1.711h-4.875l-.663 1.711c-.031.082-.087.167-.17.254-.082.087-.226.131-.432.131h-1.111c-.113 0-.211-.041-.293-.123-.082-.082-.123-.18-.123-.293l.015-.108 3.78-9.742c.062-.175.134-.306.216-.393.082-.087.206-.131.37-.131h1.697zm.848 6.767l-1.697-4.393-1.697 4.393h3.394zm11.732-1.264l2.931-5.087.208-.247c.098-.113.249-.17.455-.17h1.049c.113 0 .211.041.293.123.082.082.123.18.123.293v9.958c0 .113-.041.211-.123.293-.082.082-.18.123-.293.123h-1.25c-.113 0-.211-.041-.293-.123-.082-.082-.123-.18-.123-.293v-6.027l-2.006 3.468c-.051.082-.123.167-.216.254s-.211.131-.355.131h-.802c-.144 0-.262-.044-.355-.131-.093-.087-.165-.172-.216-.254l-2.006-3.468v6.027c0 .113-.041.211-.123.293-.082.082-.18.123-.293.123h-1.25c-.113 0-.211-.041-.293-.123-.082-.082-.123-.18-.123-.293v-9.958c0-.113.041-.211.123-.293.082-.082.18-.123.293-.123h1.049c.206 0 .357.057.455.17l.208.247 2.931 5.087z"/><path d="M58.739 111.764c-.324 0-.486-.146-.486-.439.015-.524.123-1.071.324-1.642.201-.57.505-1.091.914-1.561.409-.47.929-.856 1.562-1.156.633-.301 1.388-.451 2.268-.451.879 0 1.628.131 2.245.393.617.262 1.122.609 1.516 1.04.393.432.679.933.856 1.503.177.57.266 1.156.266 1.757 0 .956-.208 1.804-.625 2.543-.417.74-1.049 1.503-1.898 2.289l-5.415 5.503h7.752c.355 0 .532.177.532.532v.347c0 .339-.177.509-.532.509h-9.488c-.339 0-.509-.17-.509-.509v-.347c0-.154.042-.304.127-.451.085-.146.235-.32.451-.52l5.993-5.989c.432-.401.787-.763 1.064-1.087.278-.324.498-.636.66-.936.162-.301.274-.601.336-.902.062-.301.093-.628.093-.983 0-1.033-.293-1.842-.879-2.428-.586-.586-1.435-.879-2.545-.879-1.064 0-1.898.304-2.499.913-.602.609-.964 1.414-1.088 2.416-.031.185-.104.32-.22.405-.116.085-.22.127-.312.127h-.463zm14.347 1.133c.015-.848.116-1.657.301-2.428.185-.771.494-1.449.926-2.035.432-.586.999-1.052 1.701-1.399.702-.347 1.577-.52 2.626-.52s1.925.173 2.626.52c.702.347 1.265.813 1.689 1.399.424.586.733 1.264.926 2.035.193.771.297 1.58.312 2.428.031 1.326.031 2.62 0 3.884-.031.848-.139 1.657-.324 2.428-.185.771-.49 1.449-.914 2.035-.424.586-.987 1.052-1.689 1.399-.702.347-1.577.52-2.626.52s-1.925-.173-2.626-.52c-.702-.347-1.265-.813-1.689-1.399-.424-.586-.733-1.264-.926-2.035-.193-.771-.297-1.58-.312-2.428-.031-1.264-.031-2.559 0-3.884zm9.65.116c-.031-1.557-.382-2.798-1.053-3.723-.671-.925-1.685-1.387-3.043-1.387-1.373 0-2.391.462-3.055 1.387-.663.925-1.01 2.166-1.041 3.723-.015.647-.023 1.252-.023 1.815s.008 1.175.023 1.838c.031 1.588.378 2.836 1.041 3.746.663.909 1.682 1.364 3.055 1.364 1.373 0 2.391-.455 3.055-1.364.663-.909 1.01-2.158 1.041-3.746.015-.663.023-1.276.023-1.838 0-.563-.008-1.168-.023-1.815zm12.103 9.411c0 .339-.17.509-.509.509h-.44c-.339 0-.509-.17-.509-.509v-13.781l-4.142 3.191c-.278.2-.517.17-.717-.092l-.255-.324c-.093-.123-.131-.25-.116-.382.015-.131.085-.243.208-.335l4.929-3.792c.108-.077.208-.123.301-.139l.301-.023h.44c.339 0 .509.17.509.509v15.168zm4.883-4.717c0-.447.05-.879.15-1.295.1-.416.228-.798.382-1.145s.312-.663.474-.948c.162-.285.312-.52.451-.705l4.559-6.405.255-.289c.093-.116.247-.173.463-.173h.44c.139 0 .251.05.336.15.085.1.127.22.127.358l-.035.185-.081.116-3.471 4.902c.216-.062.467-.108.752-.139.285-.031.559-.046.822-.046.926 0 1.739.15 2.441.451.702.301 1.288.705 1.759 1.214.471.509.825 1.091 1.064 1.746.239.655.359 1.33.359 2.023 0 .694-.12 1.368-.359 2.023s-.594 1.237-1.064 1.746c-.471.509-1.057.917-1.759 1.225-.702.308-1.516.462-2.441.462-.926 0-1.739-.154-2.441-.462-.702-.308-1.288-.717-1.759-1.225-.471-.509-.825-1.091-1.064-1.746-.239-.655-.359-1.33-.359-2.023zm9.789 0c0-.663-.116-1.245-.347-1.746-.231-.501-.54-.921-.926-1.26-.386-.339-.829-.597-1.331-.775-.501-.177-1.022-.266-1.562-.266s-1.061.089-1.562.266c-.501.177-.945.435-1.331.775-.386.339-.694.759-.926 1.26-.231.501-.347 1.083-.347 1.746s.116 1.249.347 1.757c.231.509.54.933.926 1.272.386.339.829.597 1.331.775.501.177 1.022.266 1.562.266s1.061-.089 1.562-.266c.501-.177.945-.435 1.331-.775.386-.339.694-.763.926-1.272.231-.509.347-1.094.347-1.757z"/></g></svg>