<?xml version="1.0" encoding="UTF-8"?>
<svg width="730px" height="420px" viewBox="0 0 730 420" version="1.1" xmlns="http://www.w3.org/2000/svg" xmlns:xlink="http://www.w3.org/1999/xlink">
    <!-- Generator: Sketch 49 (51002) - http://www.bohemiancoding.com/sketch -->
    <title>Group</title>
    <desc>Created with Sketch.</desc>
    <animate attributeName="stroke-dashoffset" dur="0.3" from="12" xlink:href="#path-1" repeatCount="indefinite" to="0"/>
    <animate attributeName="stroke-dashoffset" dur="0.3" from="12" xlink:href="#path-3" repeatCount="indefinite" to="0"/>
    <defs>
        <path d="M730,209 L0,209 L0,20 C-1.3527075e-15,8.954305 8.954305,2.02906125e-15 20,0 L710,0 C721.045695,-2.02906125e-15 730,8.954305 730,20 L730,209 Z" id="path-1"></path>
        <mask id="mask-2" maskContentUnits="userSpaceOnUse" maskUnits="objectBoundingBox" x="0" y="0" width="730" height="209" fill="white">
            <use xlink:href="#path-1"></use>
        </mask>
        <path d="M730,209 L0,209 L0,20 C-1.3527075e-15,8.954305 8.954305,2.02906125e-15 20,0 L710,0 C721.045695,-2.02906125e-15 730,8.954305 730,20 L730,209 Z" id="path-3"></path>
        <mask id="mask-4" maskContentUnits="userSpaceOnUse" maskUnits="objectBoundingBox" x="0" y="0" width="730" height="209" fill="white">
            <use xlink:href="#path-3"></use>
        </mask>
    </defs>
    <g id="Page-1" stroke="none" stroke-width="1" fill="none" fill-rule="evenodd">
        <g id="Group">
            <g id="Group-Copy">
                <use id="Combined-Shape" stroke="#47C2CA" mask="url(#mask-2)" stroke-width="4" stroke-dasharray="6" xlink:href="#path-1"></use>
                <rect id="Rectangle-5" fill="#f5f9fa" x="0" y="206" width="730" height="4"></rect>
            </g>
            <g id="Group-Copy-2" transform="translate(365.000000, 315.000000) scale(1, -1) translate(-365.000000, -315.000000) translate(0.000000, 210.000000)">
                <use id="Combined-Shape" stroke="#47C2CA" mask="url(#mask-4)" stroke-width="4" stroke-dasharray="6" xlink:href="#path-3"></use>
                <rect id="Rectangle-5" fill="#f5f9fa" x="0" y="206" width="730" height="4"></rect>
            </g>
        </g>
    </g>
</svg>
