<svg width="28" height="39" viewBox="0 0 28 39" xmlns="http://www.w3.org/2000/svg"><title>Combined Shape</title><desc>Created with Sketch.</desc><path d="M27.049 5.073l.003.003c0 3.845-3.031 5.889-5.923 5.889v6.324l3.125 2.63.044.292-3.171 2.628v8.468c2.192-1.314 3.871-3.796 5.037-6.424l.466.046c.093 6.862-4.944 13.332-12.872 13.332-7.322 0-13.758-6.13-13.758-14.403 0-6.91 5.317-12.507 11.146-14.162l.14.487c-2.099 1.316-4.151 3.115-5.177 5.842l9.84-4.577v13.969l-8.022 4.039c2.145 2.482 4.85 3.261 7.695 3.261 1.539 0 3.311-.243 4.85-1.168v-8.711l-2.985-2.725v-.244l2.985-2.581v-6.325c-1.586-.197-4.524-.927-7.182-1.705-3.078-.925-5.41-1.752-7.182-1.752-1.959 0-2.705 1.411-2.705 2.289 0 1.168.56 1.604 1.119 1.993l-.28.487c-.886-.391-3.031-1.46-3.031-4.431 0-3.648 2.892-6.618 6.716-6.618 1.959 0 4.291.827 6.762 1.703 2.239.779 5.037 1.655 6.483 1.655 1.819 0 2.425-1.117 2.425-1.995 0-1.263-1.399-1.899-3.218-1.945v-.632c3.031-.146 6.669 1.022 6.669 5.061zm-17.023 22.629h.003l.044-12.848-4.104 1.898c-.42 1.215-.56 2.969-.56 4.38 0 3.455.886 5.937 2.239 7.786l2.379-1.217z" fill="#A0B0B1"/></svg>