<svg width="170" height="110" viewBox="0 0 170 110" xmlns="http://www.w3.org/2000/svg" xmlns:xlink="http://www.w3.org/1999/xlink"><title>O2O 2</title><desc>Created with Sketch.</desc><defs><path id="a" d="M13.879 11.516v-11.31h-13.568v11.31h13.568z"/><path id="c" d="M.173 10.937h17.639v-10.934h-17.639v10.934z"/><path id="e" d="M10.355.265h-10.245v16.648h10.245v-16.648z"/><path id="g" d="M0 .206v11.31h13.568v-11.31h-13.568z"/><path id="i" d="M.005 10.937h17.639v-10.934h-17.639z"/><path id="k" d="M10.607.265h-10.245v16.648h10.245v-16.648z"/></defs><g fill="none"><g><path d="M157.685 31.478c-.781 2.506-.339 5.303 1.313 8.309l.172.311.336-.113c5.776-1.901 7.799-7.216 5.844-15.368l-.119-.521-.481.243c-3.809 1.92-6.187 4.323-7.065 7.14" fill="#A0B0B1"/><path d="M152.182 38.959c1.305.637 2.773 1.121 4.378 1.451l.462.093.043-.471c.501-5.315-3.282-10.099-10.94-13.836-.47-.231-.914-.436-1.324-.619l-.644-.288.052.703c.288 4.28 1.912 10.009 7.974 12.967" fill="#A0B0B1"/><path d="M159.817 45.412c-1.254 2.165-1.44 4.796-.556 7.825l.104.343.349-.038c6.279-.662 9.624-5.279 9.672-13.36l.006-.543-.528.131c-4.48 1.103-7.525 2.999-9.046 5.641" fill="#A0B0B1"/><path d="M157.056 53.522l.154-.41c1.929-5.202-1.111-10.762-8.788-16.08l-.537-.373-.125.641c-.921 4.925-.358 11.601 7.534 15.451.43.212.883.414 1.362.606l.4.166z" fill="#A0B0B1"/><g transform="translate(155.864 54.927)"><mask id="b"><use xlink:href="#a"/></mask><path d="M13.305.226c-4.945.159-8.543 1.428-10.71 3.763-1.644 1.773-2.406 4.151-2.268 7.058l.013.367.368.037c6.471.612 10.974-3.088 13.025-10.691l.147-.553-.574.02z" fill="#A0B0B1" mask="url(#b)"/></g><path d="M153.881 65.826l.233-.329c3.254-4.558 1.568-10.419-4.878-16.948l-.422-.43-.261.543c-2.319 4.805-3.333 11.643 4.985 16.944l.342.219z" fill="#A0B0B1"/><path d="M149.933 77.387l-.082.382.38.108c6.358 1.841 11.796-.764 15.734-7.526l.312-.532-.613-.098c-6.221-1.01-14.003-.502-15.731 7.666" fill="#A0B0B1"/><path d="M147.37 76.557l.273.255.288-.239c4.412-3.672 4.161-9.545-.735-16.987l-.307-.471-.367.425c-3.536 4.089-6.258 10.36.847 17.017" fill="#A0B0B1"/><path d="M140.802 86.913l-.192.381.529.261c5.895 2.878 11.956 1.466 17.535-4.082l.471-.468-.628-.227c-6.011-2.174-13.957-3.218-17.715 4.135" fill="#A0B0B1"/><path d="M138.64 85.958l.322-.156c5.352-2.594 6.551-8.195 3.457-16.197l-.194-.501-.445.306c-3.349 2.312-5.3 4.95-5.803 7.831-.466 2.678.365 5.514 2.454 8.426l.209.292z" fill="#A0B0B1"/><path d="M145.927 92.553c-6.938-3.384-12.706-2.845-16.687 1.559l-.307.342.366.277c.792.599 1.625 1.114 2.471 1.528 4.726 2.306 10.365 1.675 16.307-1.823l.617-.365-.62-.362c-.669-.395-1.391-.785-2.148-1.155" fill="#A0B0B1"/><path d="M127.299 92.827l.341-.077c6.031-1.392 8.618-6.445 7.483-14.614l-.071-.528-.503.191c-4.098 1.584-6.756 3.786-7.908 6.549-.997 2.373-.821 5.118.516 8.156l.143.323z" fill="#A0B0B1"/><path d="M129.227 98.152c-4.843-2.363-9.368-2.196-13.436.497l-.41.272.334.364c1.219 1.356 2.642 2.436 4.222 3.208 3.982 1.943 8.942 2.007 14.749.186l.727-.224-.573-.497c-1.862-1.613-3.748-2.894-5.613-3.805" fill="#A0B0B1"/><path d="M114.093 96.734l.07.354.356-.009c6.396-.129 10.252-4.386 11.135-12.32l.06-.551-.545.085c-4.7.722-7.994 2.37-9.787 4.896-1.422 2.01-1.855 4.549-1.289 7.545" fill="#A0B0B1"/><path d="M101.099 100.293l-.48.176.258.434c1.336 2.264 3.249 4.011 5.68 5.199l.006.002c3.296 1.608 7.534 2.194 12.594 1.737l.777-.064-.477-.614c-5.312-6.803-11.777-9.278-18.358-6.87" fill="#A0B0B1"/><path d="M99.856 98.523l.371.066c6.462 1.128 11.379-2.13 14.232-9.423l.214-.544-.591-.032c-6.213-.309-13.723 1.102-14.205 9.557l-.022.376z" fill="#A0B0B1"/><g transform="translate(85.193 98.798)"><mask id="d"><use xlink:href="#c"/></mask><path d="M.676.161l-.503.072.152.48c1.083 3.289 3.469 5.855 7.092 7.623 2.613 1.274 5.851 2.122 9.63 2.518l.765.082-.337-.687c-3.709-7.496-9.573-11.066-16.799-10.089" fill="#A0B0B1" mask="url(#d)"/></g><path d="M102.081 91.128l.377-.51-.617-.153c-6.172-1.5-14.072-1.638-16.657 6.223l-.122.384.376.143c6.228 2.332 11.98.226 16.643-6.087" fill="#A0B0B1"/><path d="M156.609 26.36l.322-.142c5.596-2.385 7.156-7.851 4.515-15.808l-.165-.509-.457.287c-3.635 2.232-5.795 4.828-6.43 7.71-.562 2.565.115 5.31 2.019 8.167l.197.295z" fill="#A0B0B1"/><path d="M148.392 25.317c1.646.802 3.54 1.33 5.639 1.574l.469.053.004-.472c.05-5.676-4.469-10.217-13.448-13.354l-.669-.238.109.697c.602 3.892 2.46 9.085 7.897 11.74" fill="#A0B0B1"/><g transform="translate(143.409 .058)"><mask id="f"><use xlink:href="#e"/></mask><path d="M7.697 16.116c.458.224.94.44 1.449.641l.397.156.156-.39c2.093-5.136-.851-10.634-8.498-15.9l-.522-.358-.136.615c-1.065 4.839-.687 11.411 7.153 15.236" fill="#A0B0B1" mask="url(#f)"/></g><path d="M10.238 39.985l.336.113.171-.311c1.651-3.006 2.094-5.803 1.312-8.309-.878-2.817-3.256-5.219-7.063-7.14l-.483-.243-.118.52c-1.956 8.153.065 13.467 5.845 15.369" fill="#A0B0B1"/><path d="M13.184 40.41c1.603-.33 3.071-.814 4.378-1.451 6.061-2.958 7.687-8.687 7.974-12.967l.052-.703-.644.288c-.41.183-.853.388-1.326.619-7.655 3.737-11.439 8.52-10.938 13.836l.044.471.461-.093z" fill="#A0B0B1"/><path d="M10.031 53.543l.349.038.104-.343c.883-3.029.699-5.661-.556-7.825-1.522-2.642-4.567-4.538-9.047-5.641l-.529-.131.007.543c.045 8.081 3.393 12.698 9.672 13.36" fill="#A0B0B1"/><path d="M12.534 53.112l.153.41.401-.166c.478-.192.932-.394 1.363-.606 7.889-3.85 8.453-10.526 7.533-15.451l-.124-.641-.54.373c-7.679 5.318-10.718 10.878-8.788 16.08" fill="#A0B0B1"/><g transform="translate(0 54.927)"><mask id="h"><use xlink:href="#g"/></mask><path d="M13.171 11.451l.368-.038.014-.366c.138-2.908-.624-5.285-2.27-7.058-2.168-2.335-5.765-3.604-10.709-3.763l-.574-.021.148.554c2.05 7.603 6.554 11.302 13.023 10.691" fill="#A0B0B1" mask="url(#h)"/></g><path d="M15.863 65.826l.342-.219c8.318-5.301 7.305-12.139 4.987-16.944l-.261-.543-.423.43c-6.445 6.528-8.13 12.39-4.879 16.948l.234.329z" fill="#A0B0B1"/><path d="M19.512 77.878l.382-.108-.086-.382c-1.726-8.168-9.506-8.677-15.73-7.666l-.612.098.313.532c3.938 6.762 9.377 9.368 15.733 7.527" fill="#A0B0B1"/><path d="M21.811 76.573l.288.239.274-.255c7.106-6.658 4.383-12.928.849-17.017l-.369-.426-.307.471c-4.895 7.443-5.146 13.316-.735 16.988" fill="#A0B0B1"/><path d="M28.605 87.556l.527-.261-.191-.381c-3.756-7.353-11.705-6.309-17.716-4.135l-.628.226.471.468c5.578 5.549 11.64 6.96 17.536 4.083" fill="#A0B0B1"/><path d="M27.518 69.104l-.195.501c-3.092 8.003-1.894 13.603 3.459 16.198l.322.156.209-.292c2.089-2.912 2.922-5.748 2.455-8.426-.505-2.881-2.456-5.519-5.804-7.83l-.445-.306z" fill="#A0B0B1"/><path d="M40.444 94.731l.364-.278-.306-.341c-3.98-4.405-9.749-4.943-16.685-1.559-.757.369-1.477.76-2.149 1.155l-.618.362.616.365c5.94 3.498 11.58 4.13 16.307 1.823.846-.414 1.678-.929 2.471-1.528" fill="#A0B0B1"/><path d="M42.102 92.75l.341.077.143-.323c1.338-3.038 1.513-5.783.517-8.156-1.151-2.762-3.81-4.965-7.909-6.549l-.504-.19-.07.528c-1.137 8.169 1.451 13.221 7.481 14.613" fill="#A0B0B1"/><path d="M54.029 99.284l.334-.364-.408-.271c-4.069-2.694-8.594-2.86-13.439-.497-1.862.911-3.752 2.192-5.614 3.805l-.572.497.728.224c5.805 1.821 10.766 1.757 14.748-.186 1.58-.771 3.004-1.852 4.223-3.208" fill="#A0B0B1"/><path d="M55.226 97.079l.354.009.07-.354c.567-2.997.133-5.535-1.29-7.545-1.791-2.527-5.085-4.173-9.785-4.896l-.547-.085.061.551c.886 7.934 4.741 12.19 11.138 12.32" fill="#A0B0B1"/><path d="M68.867 100.904l.257-.434-.48-.176c-6.582-2.409-13.047.067-18.359 6.87l-.476.614.776.064c5.063.456 9.3-.129 12.596-1.737l.004-.002c2.433-1.187 4.345-2.935 5.682-5.199" fill="#A0B0B1"/><path d="M69.516 98.589l.371-.066-.02-.376c-.483-8.456-7.994-9.865-14.205-9.557l-.592.032.214.545c2.853 7.292 7.771 10.551 14.232 9.422" fill="#A0B0B1"/><g transform="translate(66.735 98.798)"><mask id="j"><use xlink:href="#i"/></mask><path d="M.342 10.25l-.337.687.764-.082c3.78-.396 7.018-1.243 9.633-2.518 3.621-1.768 6.006-4.334 7.089-7.623l.153-.48-.503-.072c-7.226-.977-13.092 2.593-16.799 10.089" fill="#A0B0B1" mask="url(#j)"/></g><path d="M67.904 90.465l-.619.154.377.509c4.663 6.313 10.416 8.42 16.645 6.087l.376-.142-.122-.384c-2.584-7.861-10.484-7.723-16.657-6.224" fill="#A0B0B1"/><path d="M12.813 26.219l.32.142.197-.295c1.905-2.857 2.581-5.602 2.02-8.167-.634-2.882-2.796-5.477-6.43-7.71l-.456-.287-.165.509c-2.645 7.958-1.084 13.424 4.514 15.808" fill="#A0B0B1"/><path d="M15.239 26.472l.005.472.466-.053c2.101-.244 3.997-.773 5.641-1.574 5.437-2.655 7.295-7.847 7.897-11.74l.11-.697-.671.238c-8.979 3.138-13.497 7.679-13.448 13.354" fill="#A0B0B1"/><g transform="translate(15.619 .058)"><mask id="l"><use xlink:href="#k"/></mask><path d="M1.173 16.913l.395-.156c.509-.201.992-.417 1.452-.641 7.838-3.825 8.217-10.397 7.152-15.236l-.136-.615-.521.358c-7.648 5.266-10.59 10.764-8.499 15.9l.157.39z" fill="#A0B0B1" mask="url(#l)"/></g></g><g fill="#A0B0B1"><path d="M30.84 44.731c.124 0 .216.033.278.098.062.066.116.164.162.295l2.84 7.312.012.081c0 .085-.031.158-.093.22s-.135.093-.22.093h-.835c-.155 0-.263-.033-.325-.098l-.127-.191-.498-1.284h-3.663l-.498 1.284-.127.191c-.062.066-.17.098-.325.098h-.835c-.085 0-.158-.031-.22-.093s-.093-.135-.093-.22l.012-.081 2.84-7.312c.046-.131.1-.229.162-.295.062-.066.155-.098.278-.098h1.275zm.637 5.079l-1.275-3.297-1.275 3.297h2.55zm7.997-5.079c.935 0 1.661.22 2.179.659.518.44.777 1.084.777 1.932 0 .848-.259 1.496-.777 1.944-.518.447-1.244.671-2.179.671h-1.854v2.58c0 .085-.031.158-.093.22s-.135.093-.22.093h-.939c-.085 0-.158-.031-.22-.093s-.093-.135-.093-.22v-7.474c0-.085.031-.158.093-.22s.135-.093.22-.093h3.106zm-1.854 3.76h1.797c.44 0 .792-.087 1.055-.26.263-.174.394-.476.394-.908 0-.432-.131-.731-.394-.897-.263-.166-.614-.249-1.055-.249h-1.797v2.314zm12.344 2.892c.085 0 .158.031.22.093s.093.135.093.22v.821c0 .085-.031.158-.093.22s-.135.093-.22.093h-5.088c-.085 0-.158-.031-.22-.093s-.093-.135-.093-.22v-7.474c0-.085.031-.158.093-.22s.135-.093.22-.093h4.996c.085 0 .158.031.22.093s.093.135.093.22v.821c0 .085-.031.158-.093.22s-.135.093-.22.093h-3.744v1.839h3.489c.085 0 .158.031.22.093s.093.135.093.22v.821c0 .085-.031.158-.093.22s-.135.093-.22.093h-3.489v1.92h3.836zm7.534-1.122c.015-.1.056-.175.122-.226.066-.05.137-.075.214-.075h.939c.085 0 .16.029.226.087.066.058.095.133.087.226-.023.316-.102.632-.238.949-.135.316-.342.602-.62.856-.278.255-.63.463-1.055.625-.425.162-.939.243-1.542.243-.533 0-1.005-.079-1.414-.237-.41-.158-.757-.378-1.043-.659-.286-.282-.508-.619-.666-1.012-.158-.393-.253-.821-.284-1.284-.015-.293-.023-.617-.023-.972s.008-.679.023-.972c.031-.463.126-.891.284-1.284.158-.393.381-.731.666-1.012.286-.282.634-.501 1.043-.659.41-.158.881-.237 1.414-.237.603 0 1.117.081 1.542.243.425.162.777.37 1.055.625.278.255.485.542.62.862.135.32.214.634.238.943.008.093-.021.168-.087.226-.066.058-.141.087-.226.087h-.939c-.077 0-.151-.025-.22-.075-.07-.05-.112-.125-.127-.226-.023-.154-.077-.305-.162-.451-.085-.147-.201-.278-.348-.393-.147-.116-.332-.21-.556-.283-.224-.073-.487-.11-.788-.11-.301 0-.564.046-.788.139-.224.093-.411.216-.562.37-.151.154-.267.339-.348.555-.081.216-.129.443-.145.683-.015.293-.023.617-.023.972s.008.679.023.972c.015.247.064.476.145.688.081.212.197.395.348.55.151.154.338.278.562.37.224.093.487.139.788.139.301 0 .564-.037.788-.11.224-.073.411-.168.562-.283.151-.116.269-.247.354-.393.085-.147.139-.297.162-.451zm7.047-2.51c.023-.432.106-.839.249-1.221.143-.382.354-.713.632-.995.278-.282.626-.505 1.043-.671.417-.166.912-.249 1.484-.249.564 0 1.055.081 1.472.243.417.162.765.386 1.043.671.278.285.491.617.637.995.147.378.232.787.255 1.226l.017.486.006.55-.006.55-.017.486c-.023.432-.106.839-.249 1.221-.143.382-.354.713-.632.995-.278.282-.628.503-1.049.665-.421.162-.914.243-1.478.243-.572 0-1.066-.081-1.484-.243-.417-.162-.765-.384-1.043-.665-.278-.282-.489-.613-.632-.995-.143-.382-.226-.789-.249-1.221l-.017-.486-.006-.55.006-.55.017-.486zm5.251.058c-.031-.555-.211-.985-.539-1.29-.328-.305-.763-.457-1.304-.457s-.976.152-1.304.457c-.328.305-.508.735-.539 1.29-.015.293-.023.619-.023.978s.008.684.023.978c.031.555.211.983.539 1.284.328.301.763.451 1.304.451s.976-.15 1.304-.451c.328-.301.508-.729.539-1.284.015-.293.023-.619.023-.978s-.008-.684-.023-.978zm7.337.486c.232-.185.381-.374.446-.567.066-.193.099-.37.099-.532 0-.316-.097-.584-.29-.804-.193-.22-.514-.33-.962-.33-.425 0-.736.104-.933.312-.197.208-.338.474-.423.798-.023.1-.07.175-.139.226-.07.05-.139.075-.209.075h-.916c-.085 0-.16-.029-.226-.087-.066-.058-.095-.133-.087-.226.023-.347.112-.675.267-.983.155-.309.361-.578.62-.81.259-.231.562-.415.91-.55.348-.135.722-.202 1.124-.202.487 0 .908.079 1.263.237.355.158.649.362.881.613.232.251.404.528.516.833.112.305.168.607.168.908 0 .193-.012.376-.035.55-.023.174-.077.347-.162.521-.085.174-.209.355-.371.544-.162.189-.379.391-.649.607l-2.144 1.955h3.222c.085 0 .158.031.22.093s.093.135.093.22v.821c0 .085-.031.158-.093.22s-.135.093-.22.093h-5.413c-.085 0-.158-.031-.22-.093s-.093-.135-.093-.22v-.706c0-.131.039-.245.116-.341l.197-.202 3.442-2.973zm4.312-.544c.023-.432.106-.839.249-1.221.143-.382.354-.713.632-.995.278-.282.626-.505 1.043-.671.417-.166.912-.249 1.484-.249.564 0 1.055.081 1.472.243.417.162.765.386 1.043.671.278.285.491.617.637.995.147.378.232.787.255 1.226l.017.486.006.55-.006.55-.017.486c-.023.432-.106.839-.249 1.221-.143.382-.354.713-.632.995-.278.282-.628.503-1.049.665-.421.162-.914.243-1.478.243-.572 0-1.066-.081-1.484-.243-.417-.162-.765-.384-1.043-.665-.278-.282-.489-.613-.632-.995-.143-.382-.226-.789-.249-1.221l-.017-.486-.006-.55.006-.55.017-.486zm5.251.058c-.031-.555-.211-.985-.539-1.29-.328-.305-.763-.457-1.304-.457s-.976.152-1.304.457c-.328.305-.508.735-.539 1.29-.015.293-.023.619-.023.978s.008.684.023.978c.031.555.211.983.539 1.284.328.301.763.451 1.304.451s.976-.15 1.304-.451c.328-.301.508-.729.539-1.284.015-.293.023-.619.023-.978s-.008-.684-.023-.978zm12.738-3.077c.085 0 .158.031.22.093s.093.135.093.22v.821c0 .085-.031.158-.093.22s-.135.093-.22.093h-3.697v2.244h3.466c.085 0 .158.031.22.093s.093.135.093.22v.821c0 .085-.031.158-.093.22s-.135.093-.22.093h-3.466v2.649c0 .085-.031.158-.093.22s-.135.093-.22.093h-.939c-.085 0-.158-.031-.22-.093s-.093-.135-.093-.22v-7.474c0-.085.031-.158.093-.22s.135-.093.22-.093h4.949zm4.961 1.967c.425 0 .809.066 1.153.197s.641.312.892.544c.251.231.452.501.603.81.151.309.238.64.261.995l.012.266v.642l-.012.26c-.031.355-.12.686-.267.995-.147.309-.346.577-.597.804-.251.228-.549.407-.892.538-.344.131-.728.197-1.153.197-.425 0-.809-.066-1.153-.197s-.641-.31-.892-.538c-.251-.228-.45-.496-.597-.804-.147-.309-.236-.64-.267-.995l-.017-.26-.006-.318.006-.324.017-.266c.023-.355.11-.686.261-.995.151-.309.352-.578.603-.81.251-.231.549-.413.892-.544.344-.131.728-.197 1.153-.197zm1.402 2.603c-.023-.239-.079-.438-.168-.596-.089-.158-.199-.283-.33-.376-.131-.093-.274-.156-.429-.191-.155-.035-.313-.052-.475-.052-.162 0-.321.017-.475.052-.155.035-.297.098-.429.191-.131.093-.241.218-.33.376-.089.158-.145.357-.168.596l-.017.231-.006.289.006.295.017.226c.023.239.079.438.168.596.089.158.199.283.33.376.131.093.274.156.429.191.155.035.313.052.475.052.162 0 .321-.017.475-.052.155-.035.297-.098.429-.191.131-.093.241-.218.33-.376.089-.158.145-.357.168-.596l.012-.226v-.584l-.012-.231zm6.525-1.099c-.464 0-.798.102-1.003.307-.205.204-.307.538-.307 1.001v3.008c0 .085-.031.158-.093.22s-.135.093-.22.093h-.881c-.085 0-.158-.031-.22-.093s-.093-.135-.093-.22v-5.391c0-.085.031-.158.093-.22s.135-.093.22-.093h.881c.085 0 .158.031.22.093s.093.135.093.22v.266c.201-.185.415-.328.643-.428.228-.1.527-.15.898-.15h.522c.085 0 .158.031.22.093s.093.135.093.22v.764c0 .085-.031.158-.093.22s-.135.093-.22.093h-.753zm2.84-1.076c0-.085.031-.158.093-.22s.135-.093.22-.093h.881c.085 0 .158.031.22.093s.093.135.093.22v2.939c0 .463.099.833.296 1.111.197.278.52.416.968.416.41 0 .722-.139.939-.416.216-.278.325-.648.325-1.111v-2.939c0-.085.031-.158.093-.22s.135-.093.22-.093h.881c.085 0 .158.031.22.093s.093.135.093.22v5.391c0 .085-.031.158-.093.22s-.135.093-.22.093h-.881c-.085 0-.158-.031-.22-.093s-.093-.135-.093-.22v-.266c-.178.177-.398.337-.661.48-.263.143-.58.214-.95.214-.471 0-.862-.073-1.171-.22-.309-.147-.556-.343-.742-.59-.185-.247-.317-.534-.394-.862-.077-.328-.116-.673-.116-1.035v-3.112zm9.516.266c.185-.224.41-.395.672-.515.263-.12.537-.179.823-.179.487 0 .885.091 1.194.272.309.181.552.418.73.711.1-.154.224-.293.371-.416s.303-.228.469-.312c.166-.085.338-.148.516-.191.178-.042.352-.064.522-.064.44 0 .807.073 1.101.22.294.147.531.343.713.59.182.247.309.534.382.862.073.328.11.673.11 1.035v3.112c0 .085-.031.158-.093.22s-.135.093-.22.093h-.881c-.085 0-.158-.031-.22-.093s-.093-.135-.093-.22v-3.054c0-.524-.1-.891-.301-1.099-.201-.208-.483-.312-.846-.312-.309 0-.574.1-.794.301-.22.201-.338.551-.354 1.053v3.112c0 .085-.031.158-.093.22s-.135.093-.22.093h-.881c-.085 0-.158-.031-.22-.093s-.093-.135-.093-.22v-3.054c0-.524-.1-.891-.301-1.099-.201-.208-.483-.312-.846-.312-.317 0-.587.106-.811.318-.224.212-.336.577-.336 1.093v3.054c0 .085-.031.158-.093.22s-.135.093-.22.093h-.881c-.085 0-.158-.031-.22-.093s-.093-.135-.093-.22v-5.391c0-.085.031-.158.093-.22s.135-.093.22-.093h.881c.085 0 .158.031.22.093s.093.135.093.22v.266zm13.943 5.437c-.085 0-.158-.031-.22-.093s-.093-.135-.093-.22v-7.474c0-.085.031-.158.093-.22s.135-.093.22-.093h.939c.085 0 .158.031.22.093s.093.135.093.22v7.474c0 .085-.031.158-.093.22s-.135.093-.22.093h-.939zm4.242 0c-.085 0-.158-.031-.22-.093s-.093-.135-.093-.22v-7.474c0-.085.031-.158.093-.22s.135-.093.22-.093h.939c.085 0 .158.031.22.093s.093.135.093.22v7.474c0 .085-.031.158-.093.22s-.135.093-.22.093h-.939zm-82.768 5.495c.811 0 1.458.202 1.941.607.483.405.724 1.001.724 1.787 0 .787-.241 1.382-.724 1.787s-1.13.607-1.941.607h-2.341v3.054c0 .17-.089.255-.267.255h-.209c-.17 0-.255-.085-.255-.255v-7.578c0-.177.085-.266.255-.266h2.816zm-2.341 4.095h2.283c.68 0 1.182-.145 1.507-.434.325-.289.487-.711.487-1.267 0-.555-.162-.978-.487-1.267-.325-.289-.827-.434-1.507-.434h-2.283v3.401zm6.885.532c.031-.393.11-.754.238-1.082.127-.328.297-.607.51-.839.212-.231.469-.413.771-.544.301-.131.641-.197 1.02-.197.811 0 1.441.264 1.889.792.448.528.672 1.259.672 2.192v.174c0 .077-.025.139-.075.185-.05.046-.114.069-.191.069h-4.126v.116c.008.262.056.517.145.764s.211.465.365.654c.155.189.344.341.568.457.224.116.475.174.753.174.247 0 .464-.031.649-.093s.344-.133.475-.214c.131-.081.238-.164.319-.249l.168-.197.162-.179.185-.029h.185c.07 0 .129.021.18.064.05.042.071.098.064.168-.008.108-.068.243-.18.405-.112.162-.27.316-.475.463-.205.147-.454.272-.748.376-.294.104-.622.156-.985.156-.371 0-.707-.064-1.008-.191-.301-.127-.56-.309-.777-.544-.216-.235-.388-.517-.516-.845-.127-.328-.207-.688-.238-1.082l-.012-.463.012-.463zm.707.104h3.686v-.046c0-.285-.042-.553-.127-.804-.085-.251-.207-.469-.365-.654-.158-.185-.354-.33-.585-.434-.232-.104-.491-.156-.777-.156-.294 0-.552.052-.777.156-.224.104-.415.249-.574.434-.158.185-.278.403-.359.654-.081.251-.122.519-.122.804v.046zm7.499-1.851c.278-.532.804-.798 1.576-.798h.429c.17 0 .255.085.255.255v.162c0 .17-.085.255-.255.255h-.498c-.464 0-.831.135-1.101.405s-.406.636-.406 1.099v3.586c0 .077-.025.139-.075.185-.05.046-.114.069-.191.069h-.185c-.17 0-.255-.085-.255-.255v-5.495c0-.077.023-.141.07-.191.046-.05.108-.075.185-.075h.185c.077 0 .141.025.191.075.05.05.075.114.075.191v.532zm4.138-.544c0-.17.085-.255.255-.255h.197c.17 0 .255.085.255.255v3.228c0 1.319.576 1.978 1.727 1.978.556 0 .999-.174 1.327-.521.328-.347.493-.833.493-1.458v-3.228c0-.17.085-.255.255-.255h.197c.17 0 .255.085.255.255v5.507c0 .17-.085.255-.255.255h-.197c-.17 0-.255-.085-.255-.255v-.544c-.209.27-.46.49-.753.659-.294.17-.688.255-1.182.255-.394 0-.736-.066-1.026-.197-.29-.131-.531-.312-.724-.544-.193-.231-.336-.505-.429-.821-.093-.316-.139-.659-.139-1.03v-3.286zm11.591.174c-.162 0-.243-.073-.243-.22.008-.262.062-.536.162-.821.1-.285.253-.546.458-.781.205-.235.466-.428.782-.578.317-.15.695-.226 1.136-.226.44 0 .815.066 1.124.197.309.131.562.305.759.521.197.216.34.467.429.752.089.285.133.578.133.879 0 .478-.104.902-.313 1.273-.209.37-.525.752-.95 1.145l-2.712 2.753h3.883c.178 0 .267.089.267.266v.174c0 .17-.089.255-.267.255h-4.752c-.17 0-.255-.085-.255-.255v-.174c0-.077.021-.152.064-.226.042-.073.118-.16.226-.26l3.002-2.996c.216-.201.394-.382.533-.544.139-.162.249-.318.33-.469.081-.15.137-.301.168-.451.031-.15.046-.314.046-.492 0-.517-.147-.922-.44-1.215-.294-.293-.719-.44-1.275-.44-.533 0-.95.152-1.252.457-.301.305-.483.708-.545 1.209-.015.093-.052.16-.11.202l-.156.064h-.232zm7.186.567c.008-.424.058-.829.151-1.215.093-.386.247-.725.464-1.018.216-.293.5-.526.852-.7.352-.174.79-.26 1.316-.26.525 0 .964.087 1.316.26.352.174.634.407.846.7.212.293.367.632.464 1.018.097.386.149.791.156 1.215.015.663.015 1.311 0 1.944-.015.424-.07.829-.162 1.215-.093.386-.245.725-.458 1.018-.212.293-.495.526-.846.7-.352.174-.79.26-1.316.26-.525 0-.964-.087-1.316-.26-.352-.174-.634-.407-.846-.7-.212-.293-.367-.632-.464-1.018-.097-.386-.149-.791-.156-1.215-.015-.632-.015-1.28 0-1.944zm4.833.058c-.015-.779-.191-1.4-.527-1.863-.336-.463-.844-.694-1.524-.694-.688 0-1.198.231-1.53.694-.332.463-.506 1.084-.522 1.863l-.012.908.012.92c.015.794.189 1.419.522 1.874.332.455.842.683 1.53.683.688 0 1.198-.228 1.53-.683.332-.455.506-1.08.522-1.874l.012-.92-.012-.908zm6.062 4.709c0 .17-.085.255-.255.255h-.22c-.17 0-.255-.085-.255-.255v-6.895l-2.075 1.597c-.139.1-.259.085-.359-.046l-.127-.162c-.046-.062-.066-.125-.058-.191s.042-.121.104-.168l2.469-1.897.151-.069.151-.012h.22c.17 0 .255.085.255.255v7.589zm2.446-2.36c0-.224.025-.44.075-.648.05-.208.114-.399.191-.573.077-.174.156-.332.238-.474l.226-.353 2.283-3.205.127-.145c.046-.058.124-.087.232-.087h.22c.07 0 .126.025.168.075.042.05.064.11.064.179l-.017.093-.041.058-1.739 2.453c.108-.031.234-.054.377-.069l.411-.023c.464 0 .871.075 1.223.226.352.15.645.353.881.607.236.255.413.546.533.873.12.328.18.665.18 1.012s-.06.684-.18 1.012c-.12.328-.297.619-.533.873-.236.255-.529.459-.881.613-.352.154-.759.231-1.223.231-.464 0-.871-.077-1.223-.231-.352-.154-.645-.359-.881-.613-.236-.255-.413-.546-.533-.873-.12-.328-.18-.665-.18-1.012zm4.903 0c0-.332-.058-.623-.174-.873-.116-.251-.27-.461-.464-.631-.193-.17-.415-.299-.666-.388-.251-.089-.512-.133-.782-.133s-.531.044-.782.133c-.251.089-.473.218-.666.388-.193.17-.348.38-.464.631-.116.251-.174.542-.174.873 0 .332.058.625.174.879.116.255.27.467.464.636.193.17.415.299.666.388.251.089.512.133.782.133s.531-.044.782-.133c.251-.089.473-.218.666-.388.193-.17.348-.382.464-.636.116-.255.174-.548.174-.879z"/><path d="M56.413 33.643l.797-4.086c.025-.121.075-.205.149-.254.075-.048.154-.073.236-.073h1.631c.075 0 .139.026.193.079.054.052.081.115.081.187l-.012.097-1.606 7.64c-.017.113-.083.218-.199.314-.116.097-.257.145-.423.145h-1.033c-.166 0-.301-.048-.405-.145-.104-.097-.176-.201-.218-.314l-.934-2.732-.934 2.732c-.041.113-.114.218-.218.314-.104.097-.239.145-.405.145h-1.033c-.166 0-.307-.048-.423-.145-.116-.097-.183-.201-.199-.314l-1.606-7.64-.012-.097c0-.073.027-.135.081-.187.054-.052.118-.079.193-.079h1.631c.083 0 .162.024.236.073.075.048.124.133.149.254l.797 4.086.734-2.188.112-.218c.058-.089.162-.133.311-.133h1.17c.149 0 .253.044.311.133l.112.218.734 2.188zm8.448 4.049c-.092 0-.171-.032-.238-.097-.067-.064-.1-.141-.1-.23v-7.809c0-.089.033-.165.1-.23.067-.064.146-.097.238-.097h1.642c.092 0 .171.032.238.097.067.064.1.141.1.23v7.809c0 .089-.033.165-.1.23-.067.064-.146.097-.238.097h-1.642zm13.475 0c-.142 0-.257-.036-.344-.109l-.169-.169-2.869-4.134v4.086c0 .089-.033.165-.1.23-.067.064-.146.097-.238.097h-1.641c-.092 0-.171-.032-.238-.097-.067-.064-.1-.141-.1-.23v-7.809c0-.089.033-.165.1-.23.067-.064.146-.097.238-.097h1.303c.142 0 .257.036.344.109l.169.169 2.869 4.134v-4.086c0-.089.033-.165.1-.23.067-.064.146-.097.238-.097h1.641c.092 0 .171.032.238.097.067.064.1.141.1.23v7.809c0 .089-.033.165-.1.23-.067.064-.146.097-.238.097h-1.303zm13.136 0c-.142 0-.257-.036-.344-.109l-.169-.169-2.869-4.134v4.086c0 .089-.033.165-.1.23-.067.064-.146.097-.238.097h-1.641c-.092 0-.171-.032-.238-.097-.067-.064-.1-.141-.1-.23v-7.809c0-.089.033-.165.1-.23.067-.064.146-.097.238-.097h1.303c.142 0 .257.036.344.109l.169.169 2.869 4.134v-4.086c0-.089.033-.165.1-.23.067-.064.146-.097.238-.097h1.641c.092 0 .171.032.238.097.067.064.1.141.1.23v7.809c0 .089-.033.165-.1.23-.067.064-.146.097-.238.097h-1.303zm13.282-1.934c.091 0 .17.032.236.097.066.064.1.141.1.23v1.281c0 .089-.033.165-.1.23-.066.064-.145.097-.236.097h-5.896c-.091 0-.17-.032-.236-.097-.066-.064-.1-.141-.1-.23v-7.809c0-.089.033-.165.1-.23.066-.064.145-.097.236-.097h5.797c.091 0 .17.032.236.097.066.064.1.141.1.23v1.281c0 .089-.033.165-.1.23-.066.064-.145.097-.236.097h-3.831v1.305h3.558c.091 0 .17.032.236.097.066.064.1.141.1.23v1.281c0 .089-.033.165-.1.23-.066.064-.145.097-.236.097h-3.558v1.354h3.931zm9.465-6.527c.549 0 1.04.056 1.473.169.433.113.801.282 1.105.508.304.226.537.514.699.864.162.351.243.76.243 1.227 0 .604-.129 1.106-.387 1.505-.258.399-.624.703-1.099.913l1.548 2.877.037.133c0 .073-.027.135-.081.187-.054.052-.119.079-.194.079h-1.698c-.166 0-.285-.036-.356-.109l-.169-.218-1.386-2.587h-1.149v2.587c0 .089-.033.165-.1.23-.067.064-.146.097-.237.097h-1.635c-.092 0-.171-.032-.237-.097-.067-.064-.1-.141-.1-.23v-7.809c0-.089.033-.165.1-.23.067-.064.146-.097.237-.097h3.383zm-1.402 3.846h1.455c.361 0 .659-.069.895-.208.236-.139.354-.39.354-.754s-.118-.615-.354-.754-.534-.208-.895-.208h-1.455v1.923z"/></g></g></svg>