<svg width="170" height="110" viewBox="0 0 170 110" xmlns="http://www.w3.org/2000/svg" xmlns:xlink="http://www.w3.org/1999/xlink"><title>O2O 1</title><desc>Created with Sketch.</desc><defs><path id="a" d="M13.879 11.516v-11.31h-13.568v11.31h13.568z"/><path id="c" d="M.173 10.937h17.639v-10.934h-17.639v10.934z"/><path id="e" d="M10.355.265h-10.245v16.648h10.245v-16.648z"/><path id="g" d="M0 .206v11.31h13.568v-11.31h-13.568z"/><path id="i" d="M.005 10.937h17.639v-10.934h-17.639z"/><path id="k" d="M10.607.265h-10.245v16.648h10.245v-16.648z"/></defs><g fill="none"><g><path d="M157.685 31.478c-.781 2.506-.339 5.303 1.313 8.309l.172.311.336-.113c5.776-1.901 7.799-7.216 5.844-15.368l-.119-.521-.481.243c-3.809 1.92-6.187 4.323-7.065 7.14" fill="#A0B0B1"/><path d="M152.182 38.959c1.305.637 2.773 1.121 4.378 1.451l.462.093.043-.471c.501-5.315-3.282-10.099-10.94-13.836-.47-.231-.914-.436-1.324-.619l-.644-.288.052.703c.288 4.28 1.912 10.009 7.974 12.967" fill="#A0B0B1"/><path d="M159.817 45.412c-1.254 2.165-1.44 4.796-.556 7.825l.104.343.349-.038c6.279-.662 9.624-5.279 9.672-13.36l.006-.543-.528.131c-4.48 1.103-7.525 2.999-9.046 5.641" fill="#A0B0B1"/><path d="M157.056 53.522l.154-.41c1.929-5.202-1.111-10.762-8.788-16.08l-.537-.373-.125.641c-.921 4.925-.358 11.601 7.534 15.451.43.212.883.414 1.362.606l.4.166z" fill="#A0B0B1"/><g transform="translate(155.864 54.927)"><mask id="b"><use xlink:href="#a"/></mask><path d="M13.305.226c-4.945.159-8.543 1.428-10.71 3.763-1.644 1.773-2.406 4.151-2.268 7.058l.013.367.368.037c6.471.612 10.974-3.088 13.025-10.691l.147-.553-.574.02z" fill="#A0B0B1" mask="url(#b)"/></g><path d="M153.881 65.826l.233-.329c3.254-4.558 1.568-10.419-4.878-16.948l-.422-.43-.261.543c-2.319 4.805-3.333 11.643 4.985 16.944l.342.219z" fill="#A0B0B1"/><path d="M149.933 77.387l-.082.382.38.108c6.358 1.841 11.796-.764 15.734-7.526l.312-.532-.613-.098c-6.221-1.01-14.003-.502-15.731 7.666" fill="#A0B0B1"/><path d="M147.37 76.557l.273.255.288-.239c4.412-3.672 4.161-9.545-.735-16.987l-.307-.471-.367.425c-3.536 4.089-6.258 10.36.847 17.017" fill="#A0B0B1"/><path d="M140.802 86.913l-.192.381.529.261c5.895 2.878 11.956 1.466 17.535-4.082l.471-.468-.628-.227c-6.011-2.174-13.957-3.218-17.715 4.135" fill="#A0B0B1"/><path d="M138.64 85.958l.322-.156c5.352-2.594 6.551-8.195 3.457-16.197l-.194-.501-.445.306c-3.349 2.312-5.3 4.95-5.803 7.831-.466 2.678.365 5.514 2.454 8.426l.209.292z" fill="#A0B0B1"/><path d="M145.927 92.553c-6.938-3.384-12.706-2.845-16.687 1.559l-.307.342.366.277c.792.599 1.625 1.114 2.471 1.528 4.726 2.306 10.365 1.675 16.307-1.823l.617-.365-.62-.362c-.669-.395-1.391-.785-2.148-1.155" fill="#A0B0B1"/><path d="M127.299 92.827l.341-.077c6.031-1.392 8.618-6.445 7.483-14.614l-.071-.528-.503.191c-4.098 1.584-6.756 3.786-7.908 6.549-.997 2.373-.821 5.118.516 8.156l.143.323z" fill="#A0B0B1"/><path d="M129.227 98.152c-4.843-2.363-9.368-2.196-13.436.497l-.41.272.334.364c1.219 1.356 2.642 2.436 4.222 3.208 3.982 1.943 8.942 2.007 14.749.186l.727-.224-.573-.497c-1.862-1.613-3.748-2.894-5.613-3.805" fill="#A0B0B1"/><path d="M114.093 96.734l.07.354.356-.009c6.396-.129 10.252-4.386 11.135-12.32l.06-.551-.545.085c-4.7.722-7.994 2.37-9.787 4.896-1.422 2.01-1.855 4.549-1.289 7.545" fill="#A0B0B1"/><path d="M101.099 100.293l-.48.176.258.434c1.336 2.264 3.249 4.011 5.68 5.199l.006.002c3.296 1.608 7.534 2.194 12.594 1.737l.777-.064-.477-.614c-5.312-6.803-11.777-9.278-18.358-6.87" fill="#A0B0B1"/><path d="M99.856 98.523l.371.066c6.462 1.128 11.379-2.13 14.232-9.423l.214-.544-.591-.032c-6.213-.309-13.723 1.102-14.205 9.557l-.022.376z" fill="#A0B0B1"/><g transform="translate(85.193 98.798)"><mask id="d"><use xlink:href="#c"/></mask><path d="M.676.161l-.503.072.152.48c1.083 3.289 3.469 5.855 7.092 7.623 2.613 1.274 5.851 2.122 9.63 2.518l.765.082-.337-.687c-3.709-7.496-9.573-11.066-16.799-10.089" fill="#A0B0B1" mask="url(#d)"/></g><path d="M102.081 91.128l.377-.51-.617-.153c-6.172-1.5-14.072-1.638-16.657 6.223l-.122.384.376.143c6.228 2.332 11.98.226 16.643-6.087" fill="#A0B0B1"/><path d="M156.609 26.36l.322-.142c5.596-2.385 7.156-7.851 4.515-15.808l-.165-.509-.457.287c-3.635 2.232-5.795 4.828-6.43 7.71-.562 2.565.115 5.31 2.019 8.167l.197.295z" fill="#A0B0B1"/><path d="M148.392 25.317c1.646.802 3.54 1.33 5.639 1.574l.469.053.004-.472c.05-5.676-4.469-10.217-13.448-13.354l-.669-.238.109.697c.602 3.892 2.46 9.085 7.897 11.74" fill="#A0B0B1"/><g transform="translate(143.409 .058)"><mask id="f"><use xlink:href="#e"/></mask><path d="M7.697 16.116c.458.224.94.44 1.449.641l.397.156.156-.39c2.093-5.136-.851-10.634-8.498-15.9l-.522-.358-.136.615c-1.065 4.839-.687 11.411 7.153 15.236" fill="#A0B0B1" mask="url(#f)"/></g><path d="M10.238 39.985l.336.113.171-.311c1.651-3.006 2.094-5.803 1.312-8.309-.878-2.817-3.256-5.219-7.063-7.14l-.483-.243-.118.52c-1.956 8.153.065 13.467 5.845 15.369" fill="#A0B0B1"/><path d="M13.184 40.41c1.603-.33 3.071-.814 4.378-1.451 6.061-2.958 7.687-8.687 7.974-12.967l.052-.703-.644.288c-.41.183-.853.388-1.326.619-7.655 3.737-11.439 8.52-10.938 13.836l.044.471.461-.093z" fill="#A0B0B1"/><path d="M10.031 53.543l.349.038.104-.343c.883-3.029.699-5.661-.556-7.825-1.522-2.642-4.567-4.538-9.047-5.641l-.529-.131.007.543c.045 8.081 3.393 12.698 9.672 13.36" fill="#A0B0B1"/><path d="M12.534 53.112l.153.41.401-.166c.478-.192.932-.394 1.363-.606 7.889-3.85 8.453-10.526 7.533-15.451l-.124-.641-.54.373c-7.679 5.318-10.718 10.878-8.788 16.08" fill="#A0B0B1"/><g transform="translate(0 54.927)"><mask id="h"><use xlink:href="#g"/></mask><path d="M13.171 11.451l.368-.038.014-.366c.138-2.908-.624-5.285-2.27-7.058-2.168-2.335-5.765-3.604-10.709-3.763l-.574-.021.148.554c2.05 7.603 6.554 11.302 13.023 10.691" fill="#A0B0B1" mask="url(#h)"/></g><path d="M15.863 65.826l.342-.219c8.318-5.301 7.305-12.139 4.987-16.944l-.261-.543-.423.43c-6.445 6.528-8.13 12.39-4.879 16.948l.234.329z" fill="#A0B0B1"/><path d="M19.512 77.878l.382-.108-.086-.382c-1.726-8.168-9.506-8.677-15.73-7.666l-.612.098.313.532c3.938 6.762 9.377 9.368 15.733 7.527" fill="#A0B0B1"/><path d="M21.811 76.573l.288.239.274-.255c7.106-6.658 4.383-12.928.849-17.017l-.369-.426-.307.471c-4.895 7.443-5.146 13.316-.735 16.988" fill="#A0B0B1"/><path d="M28.605 87.556l.527-.261-.191-.381c-3.756-7.353-11.705-6.309-17.716-4.135l-.628.226.471.468c5.578 5.549 11.64 6.96 17.536 4.083" fill="#A0B0B1"/><path d="M27.518 69.104l-.195.501c-3.092 8.003-1.894 13.603 3.459 16.198l.322.156.209-.292c2.089-2.912 2.922-5.748 2.455-8.426-.505-2.881-2.456-5.519-5.804-7.83l-.445-.306z" fill="#A0B0B1"/><path d="M40.444 94.731l.364-.278-.306-.341c-3.98-4.405-9.749-4.943-16.685-1.559-.757.369-1.477.76-2.149 1.155l-.618.362.616.365c5.94 3.498 11.58 4.13 16.307 1.823.846-.414 1.678-.929 2.471-1.528" fill="#A0B0B1"/><path d="M42.102 92.75l.341.077.143-.323c1.338-3.038 1.513-5.783.517-8.156-1.151-2.762-3.81-4.965-7.909-6.549l-.504-.19-.07.528c-1.137 8.169 1.451 13.221 7.481 14.613" fill="#A0B0B1"/><path d="M54.029 99.284l.334-.364-.408-.271c-4.069-2.694-8.594-2.86-13.439-.497-1.862.911-3.752 2.192-5.614 3.805l-.572.497.728.224c5.805 1.821 10.766 1.757 14.748-.186 1.58-.771 3.004-1.852 4.223-3.208" fill="#A0B0B1"/><path d="M55.226 97.079l.354.009.07-.354c.567-2.997.133-5.535-1.29-7.545-1.791-2.527-5.085-4.173-9.785-4.896l-.547-.085.061.551c.886 7.934 4.741 12.19 11.138 12.32" fill="#A0B0B1"/><path d="M68.867 100.904l.257-.434-.48-.176c-6.582-2.409-13.047.067-18.359 6.87l-.476.614.776.064c5.063.456 9.3-.129 12.596-1.737l.004-.002c2.433-1.187 4.345-2.935 5.682-5.199" fill="#A0B0B1"/><path d="M69.516 98.589l.371-.066-.02-.376c-.483-8.456-7.994-9.865-14.205-9.557l-.592.032.214.545c2.853 7.292 7.771 10.551 14.232 9.422" fill="#A0B0B1"/><g transform="translate(66.735 98.798)"><mask id="j"><use xlink:href="#i"/></mask><path d="M.342 10.25l-.337.687.764-.082c3.78-.396 7.018-1.243 9.633-2.518 3.621-1.768 6.006-4.334 7.089-7.623l.153-.48-.503-.072c-7.226-.977-13.092 2.593-16.799 10.089" fill="#A0B0B1" mask="url(#j)"/></g><path d="M67.904 90.465l-.619.154.377.509c4.663 6.313 10.416 8.42 16.645 6.087l.376-.142-.122-.384c-2.584-7.861-10.484-7.723-16.657-6.224" fill="#A0B0B1"/><path d="M12.813 26.219l.32.142.197-.295c1.905-2.857 2.581-5.602 2.02-8.167-.634-2.882-2.796-5.477-6.43-7.71l-.456-.287-.165.509c-2.645 7.958-1.084 13.424 4.514 15.808" fill="#A0B0B1"/><path d="M15.239 26.472l.005.472.466-.053c2.101-.244 3.997-.773 5.641-1.574 5.437-2.655 7.295-7.847 7.897-11.74l.11-.697-.671.238c-8.979 3.138-13.497 7.679-13.448 13.354" fill="#A0B0B1"/><g transform="translate(15.619 .058)"><mask id="l"><use xlink:href="#k"/></mask><path d="M1.173 16.913l.395-.156c.509-.201.992-.417 1.452-.641 7.838-3.825 8.217-10.397 7.152-15.236l-.136-.615-.521.358c-7.648 5.266-10.59 10.764-8.499 15.9l.157.39z" fill="#A0B0B1" mask="url(#l)"/></g></g><path d="M31.362 43.58c.127 0 .223.034.286.101.064.067.119.168.167.303l2.924 7.51.012.083c0 .087-.032.162-.095.226-.064.063-.139.095-.227.095h-.859c-.159 0-.271-.034-.334-.101l-.131-.196-.513-1.319h-3.772l-.513 1.319-.131.196c-.064.067-.175.101-.334.101h-.859c-.088 0-.163-.032-.227-.095s-.095-.139-.095-.226l.012-.083 2.924-7.51c.048-.135.103-.236.167-.303.064-.067.159-.101.286-.101h1.313zm.657 5.216l-1.313-3.387-1.313 3.387h2.626zm8.236-5.216c.963 0 1.711.226 2.244.677.533.452.8 1.113.8 1.984s-.267 1.537-.8 1.996c-.533.459-1.281.689-2.244.689h-1.91v2.65c0 .087-.032.162-.095.226-.064.063-.139.095-.227.095h-.967c-.088 0-.163-.032-.227-.095s-.095-.139-.095-.226v-7.676c0-.087.032-.162.095-.226.064-.063.139-.095.227-.095h3.199zm-1.91 3.862h1.85c.454 0 .816-.089 1.086-.267.271-.178.406-.489.406-.933 0-.444-.135-.751-.406-.921-.271-.17-.633-.255-1.086-.255h-1.85v2.377zm12.713 2.971c.088 0 .163.032.227.095s.095.139.095.226v.844c0 .087-.032.162-.095.226-.064.063-.139.095-.227.095h-5.24c-.088 0-.163-.032-.227-.095s-.095-.139-.095-.226v-7.676c0-.087.032-.162.095-.226.064-.063.139-.095.227-.095h5.145c.088 0 .163.032.227.095s.095.139.095.226v.844c0 .087-.032.162-.095.226-.064.063-.139.095-.227.095h-3.856v1.889h3.593c.088 0 .163.032.227.095s.095.139.095.226v.844c0 .087-.032.162-.095.226-.064.063-.139.095-.227.095h-3.593v1.973h3.951zm7.759-1.153c.016-.103.058-.18.125-.232.068-.051.141-.077.221-.077h.967c.088 0 .165.03.233.089s.097.137.09.232c-.024.325-.105.65-.245.974-.139.325-.352.618-.639.879-.286.261-.649.475-1.086.642-.438.166-.967.25-1.588.25-.549 0-1.035-.081-1.456-.244-.422-.162-.78-.388-1.074-.677-.294-.289-.523-.636-.686-1.04-.163-.404-.261-.844-.292-1.319-.016-.301-.024-.634-.024-.998s.008-.697.024-.998c.032-.475.129-.915.292-1.319.163-.404.392-.751.686-1.04.294-.289.653-.515 1.074-.677.422-.162.907-.244 1.456-.244.621 0 1.15.083 1.588.25.438.166.8.38 1.086.642.286.261.499.557.639.885.139.329.221.652.245.968.008.095-.022.172-.09.232-.068.059-.145.089-.233.089h-.967c-.08 0-.155-.026-.227-.077-.072-.051-.115-.129-.131-.232-.024-.158-.08-.313-.167-.463-.088-.151-.207-.285-.358-.404-.151-.119-.342-.216-.573-.291-.231-.075-.501-.113-.812-.113-.31 0-.581.048-.812.143-.231.095-.424.222-.579.38-.155.158-.275.349-.358.57-.084.222-.133.455-.149.701-.016.301-.024.634-.024.998s.008.697.024.998c.016.253.066.489.149.707.084.218.203.406.358.564.155.158.348.285.579.38.231.095.501.143.812.143.31 0 .581-.038.812-.113.231-.075.424-.172.579-.291.155-.119.277-.253.364-.404.088-.151.143-.305.167-.463zm7.257-2.579c.024-.444.109-.861.257-1.254.147-.392.364-.733.651-1.022.286-.289.645-.519 1.074-.689.43-.17.939-.255 1.528-.255.581 0 1.086.083 1.516.25.43.166.788.396 1.074.689.286.293.505.634.657 1.022.151.388.239.808.263 1.26l.018.499.006.564-.006.564-.018.499c-.024.444-.109.861-.257 1.254-.147.392-.364.733-.651 1.022-.286.289-.647.517-1.08.683-.434.166-.941.25-1.522.25-.589 0-1.098-.083-1.528-.25-.43-.166-.788-.394-1.074-.683-.286-.289-.503-.63-.651-1.022-.147-.392-.233-.81-.257-1.254l-.018-.499-.006-.564.006-.564.018-.499zm5.407.059c-.032-.57-.217-1.012-.555-1.325-.338-.313-.786-.469-1.343-.469-.557 0-1.005.156-1.343.469-.338.313-.523.755-.555 1.325-.016.301-.024.636-.024 1.004s.008.703.024 1.004c.032.57.217 1.01.555 1.319.338.309.786.463 1.343.463.557 0 1.005-.154 1.343-.463.338-.309.523-.749.555-1.319.016-.301.024-.636.024-1.004s-.008-.703-.024-1.004zm7.556.499c.239-.19.392-.384.46-.582.068-.198.101-.38.101-.547 0-.325-.099-.6-.298-.826-.199-.226-.529-.339-.991-.339-.438 0-.758.107-.961.321-.203.214-.348.487-.436.82-.024.103-.072.18-.143.232-.072.051-.143.077-.215.077h-.943c-.088 0-.165-.03-.233-.089s-.097-.137-.09-.232c.024-.356.115-.693.275-1.01.159-.317.372-.594.639-.832s.579-.426.937-.564c.358-.139.744-.208 1.158-.208.501 0 .935.081 1.301.244.366.162.668.372.907.63.239.257.416.543.531.856.115.313.173.624.173.933 0 .198-.012.386-.036.564-.024.178-.08.356-.167.535-.088.178-.215.364-.382.558-.167.194-.39.402-.668.624l-2.208 2.008h3.318c.088 0 .163.032.227.095s.095.139.095.226v.844c0 .087-.032.162-.095.226-.064.063-.139.095-.227.095h-5.574c-.088 0-.163-.032-.227-.095s-.095-.139-.095-.226v-.725c0-.135.04-.252.119-.351l.203-.208 3.545-3.054zm4.44-.558c.024-.444.109-.861.257-1.254.147-.392.364-.733.651-1.022.286-.289.645-.519 1.074-.689.43-.17.939-.255 1.528-.255.581 0 1.086.083 1.516.25.43.166.788.396 1.074.689.286.293.505.634.657 1.022.151.388.239.808.263 1.26l.018.499.006.564-.006.564-.018.499c-.024.444-.109.861-.257 1.254-.147.392-.364.733-.651 1.022-.286.289-.647.517-1.08.683-.434.166-.941.25-1.522.25-.589 0-1.098-.083-1.528-.25-.43-.166-.788-.394-1.074-.683-.286-.289-.503-.63-.651-1.022-.147-.392-.233-.81-.257-1.254l-.018-.499-.006-.564.006-.564.018-.499zm5.407.059c-.032-.57-.217-1.012-.555-1.325-.338-.313-.786-.469-1.343-.469-.557 0-1.005.156-1.343.469-.338.313-.523.755-.555 1.325-.016.301-.024.636-.024 1.004s.008.703.024 1.004c.032.57.217 1.01.555 1.319.338.309.786.463 1.343.463.557 0 1.005-.154 1.343-.463.338-.309.523-.749.555-1.319.016-.301.024-.636.024-1.004s-.008-.703-.024-1.004zm13.118-3.161c.088 0 .163.032.227.095s.095.139.095.226v.844c0 .087-.032.162-.095.226-.064.063-.139.095-.227.095h-3.808v2.305h3.569c.088 0 .163.032.227.095s.095.139.095.226v.844c0 .087-.032.162-.095.226-.064.063-.139.095-.227.095h-3.569v2.721c0 .087-.032.162-.095.226-.064.063-.139.095-.227.095h-.967c-.088 0-.163-.032-.227-.095s-.095-.139-.095-.226v-7.676c0-.087.032-.162.095-.226.064-.063.139-.095.227-.095h5.097zm5.109 2.02c.438 0 .834.067 1.188.202s.66.321.919.558c.259.238.466.515.621.832.155.317.245.658.269 1.022l.012.273v.66l-.012.267c-.032.364-.123.705-.275 1.022-.151.317-.356.592-.615.826-.259.234-.565.418-.919.553-.354.135-.75.202-1.188.202-.438 0-.834-.067-1.188-.202s-.66-.319-.919-.553c-.259-.234-.464-.509-.615-.826-.151-.317-.243-.658-.275-1.022l-.018-.267-.006-.327.006-.333.018-.273c.024-.364.113-.705.269-1.022.155-.317.362-.594.621-.832s.565-.424.919-.558c.354-.135.75-.202 1.188-.202zm1.444 2.674c-.024-.246-.082-.45-.173-.612-.092-.162-.205-.291-.34-.386-.135-.095-.282-.16-.442-.196-.159-.036-.322-.053-.489-.053-.167 0-.33.018-.489.053-.159.036-.306.101-.442.196-.135.095-.249.224-.34.386-.092.162-.149.366-.173.612l-.018.238-.006.297.006.303.018.232c.024.246.082.45.173.612.092.162.205.291.34.386.135.095.282.16.442.196.159.036.322.053.489.053.167 0 .33-.018.489-.053.159-.036.306-.101.442-.196.135-.095.249-.224.34-.386.092-.162.149-.366.173-.612l.012-.232v-.6l-.012-.238zm6.72-1.129c-.477 0-.822.105-1.033.315-.211.21-.316.553-.316 1.028v3.089c0 .087-.032.162-.095.226-.064.063-.139.095-.227.095h-.907c-.088 0-.163-.032-.227-.095s-.095-.139-.095-.226v-5.537c0-.087.032-.162.095-.226.064-.063.139-.095.227-.095h.907c.088 0 .163.032.227.095s.095.139.095.226v.273c.207-.19.428-.337.662-.44.235-.103.543-.154.925-.154h.537c.088 0 .163.032.227.095s.095.139.095.226v.784c0 .087-.032.162-.095.226-.064.063-.139.095-.227.095h-.776zm2.924-1.105c0-.087.032-.162.095-.226.064-.063.139-.095.227-.095h.907c.088 0 .163.032.227.095s.095.139.095.226v3.018c0 .475.101.856.304 1.141.203.285.535.428.997.428.422 0 .744-.143.967-.428.223-.285.334-.665.334-1.141v-3.018c0-.087.032-.162.095-.226.064-.063.139-.095.227-.095h.907c.088 0 .163.032.227.095s.095.139.095.226v5.537c0 .087-.032.162-.095.226-.064.063-.139.095-.227.095h-.907c-.088 0-.163-.032-.227-.095s-.095-.139-.095-.226v-.273c-.183.182-.41.347-.68.493-.271.147-.597.22-.979.22-.485 0-.887-.075-1.206-.226-.318-.151-.573-.353-.764-.606-.191-.253-.326-.549-.406-.885-.08-.337-.119-.691-.119-1.063v-3.196zm9.8.273c.191-.23.422-.406.692-.529.271-.123.553-.184.848-.184.501 0 .911.093 1.229.279.318.186.569.43.752.731.103-.158.231-.301.382-.428s.312-.234.483-.321c.171-.087.348-.152.531-.196.183-.044.362-.065.537-.065.454 0 .832.075 1.134.226.302.151.547.353.734.606.187.253.318.549.394.885.076.337.113.691.113 1.063v3.196c0 .087-.032.162-.095.226-.064.063-.139.095-.227.095h-.907c-.088 0-.163-.032-.227-.095s-.095-.139-.095-.226v-3.137c0-.539-.103-.915-.31-1.129-.207-.214-.497-.321-.871-.321-.318 0-.591.103-.818.309-.227.206-.348.566-.364 1.081v3.196c0 .087-.032.162-.095.226-.064.063-.139.095-.227.095h-.907c-.088 0-.163-.032-.227-.095s-.095-.139-.095-.226v-3.137c0-.539-.103-.915-.31-1.129-.207-.214-.497-.321-.871-.321-.326 0-.605.109-.836.327-.231.218-.346.592-.346 1.123v3.137c0 .087-.032.162-.095.226-.064.063-.139.095-.227.095h-.907c-.088 0-.163-.032-.227-.095s-.095-.139-.095-.226v-5.537c0-.087.032-.162.095-.226.064-.063.139-.095.227-.095h.907c.088 0 .163.032.227.095s.095.139.095.226v.273zm14.36 5.585c-.088 0-.163-.032-.227-.095s-.095-.139-.095-.226v-7.676c0-.087.032-.162.095-.226.064-.063.139-.095.227-.095h.967c.088 0 .163.032.227.095s.095.139.095.226v7.676c0 .087-.032.162-.095.226-.064.063-.139.095-.227.095h-.967zm-92.205 5.822l.084-.113c.04-.044.099-.065.179-.065h.251c.064 0 .119.024.167.071.048.048.072.103.072.166l-.024.131-2.769 7.664c-.072.19-.207.285-.406.285h-.334c-.199 0-.334-.095-.406-.285l-2.769-7.664-.024-.131c0-.063.024-.119.072-.166.048-.048.103-.071.167-.071h.251c.08 0 .139.022.179.065l.084.113 2.614 7.272 2.614-7.272zm3.915.428c0 .079-.026.143-.078.19-.052.048-.117.071-.197.071h-.454c-.175 0-.263-.087-.263-.261v-.452c0-.079.024-.145.072-.196.048-.051.111-.077.191-.077h.454c.08 0 .145.026.197.077.052.051.078.117.078.196v.452zm-.131 7.45c0 .174-.088.261-.263.261h-.203c-.175 0-.263-.087-.263-.261v-5.656c0-.174.088-.261.263-.261h.203c.175 0 .263.087.263.261v5.656zm2.519-3.303c.032-.404.113-.774.245-1.111.131-.337.306-.624.525-.861.219-.238.483-.424.794-.558.31-.135.66-.202 1.05-.202.836 0 1.484.271 1.946.814.462.543.692 1.293.692 2.252v.178c0 .079-.026.143-.078.19-.052.048-.117.071-.197.071h-4.249v.119c.008.269.058.531.149.784.092.253.217.477.376.671.159.194.354.351.585.469.231.119.489.178.776.178.255 0 .477-.032.668-.095.191-.063.354-.137.489-.22.135-.083.245-.168.328-.255l.173-.202c.072-.103.127-.164.167-.184l.191-.03h.191c.072 0 .133.022.185.065.052.044.074.101.066.172-.008.111-.07.25-.185.416-.115.166-.279.325-.489.475-.211.151-.468.279-.77.386-.302.107-.641.16-1.015.16-.382 0-.728-.065-1.038-.196-.31-.131-.577-.317-.8-.558-.223-.242-.4-.531-.531-.867-.131-.337-.213-.707-.245-1.111l-.012-.475.012-.475zm.728.107h3.796v-.048c0-.293-.044-.568-.131-.826-.088-.257-.213-.481-.376-.671-.163-.19-.364-.339-.603-.446-.239-.107-.505-.16-.8-.16-.302 0-.569.053-.8.16-.231.107-.428.255-.591.446-.163.19-.286.414-.37.671-.084.257-.125.533-.125.826v.048zm8.141 1.426c0 .428.07.759.209.992.139.234.388.351.746.351h.645c.175 0 .263.087.263.261v.166c0 .174-.088.261-.263.261h-.704c-.31 0-.571-.051-.782-.154-.211-.103-.378-.244-.501-.422s-.211-.388-.263-.63c-.052-.242-.078-.501-.078-.778v-3.505h-.931c-.175 0-.263-.087-.263-.261v-.166c0-.174.088-.261.263-.261h.931v-1.996c0-.174.088-.261.263-.261h.203c.175 0 .263.087.263.261v1.996h1.48c.175 0 .263.087.263.261v.166c0 .174-.088.261-.263.261h-1.48v3.458zm9.155 1.771c0 .174-.088.261-.263.261h-.203c-.175 0-.263-.087-.263-.261v-3.315c0-.634-.155-1.131-.466-1.491-.31-.36-.764-.541-1.361-.541-.573 0-1.031.178-1.373.535-.342.356-.513.856-.513 1.497v3.315c0 .174-.088.261-.263.261h-.203c-.175 0-.263-.087-.263-.261v-5.656c0-.174.088-.261.263-.261h.203c.175 0 .263.087.263.261v.558c.215-.277.473-.503.776-.677.302-.174.712-.261 1.229-.261.406 0 .76.067 1.062.202.302.135.555.321.758.558.203.238.356.519.46.844.103.325.155.677.155 1.058v3.375zm6.816.261c-.175 0-.263-.087-.263-.261v-.558c-.072.111-.165.222-.281.333-.115.111-.257.21-.424.297-.167.087-.366.16-.597.22-.231.059-.501.089-.812.089-.286 0-.559-.046-.818-.137-.259-.091-.485-.216-.68-.374-.195-.158-.35-.345-.466-.558-.115-.214-.173-.448-.173-.701 0-.269.058-.511.173-.725.115-.214.277-.402.483-.564.207-.162.456-.297.746-.404.29-.107.611-.184.961-.232l1.886-.261v-.416c0-.428-.129-.76-.388-.998s-.67-.356-1.235-.356c-.446 0-.79.085-1.033.255-.243.17-.396.354-.46.553-.032.095-.07.16-.113.196-.044.036-.101.053-.173.053h-.167c-.072 0-.133-.026-.185-.077-.052-.051-.078-.113-.078-.184 0-.111.04-.25.119-.416.08-.166.209-.329.388-.487.179-.158.408-.295.686-.41.279-.115.617-.172 1.015-.172.47 0 .857.063 1.164.19.306.127.547.291.722.493.175.202.296.426.364.671.068.246.101.487.101.725v3.957c0 .174-.088.261-.263.261h-.203zm-2.256-.57c.271 0 .527-.046.77-.137.243-.091.456-.228.639-.41.183-.182.326-.412.43-.689.103-.277.155-.602.155-.974v-.404l-1.54.214c-1.321.182-1.981.602-1.981 1.26 0 .198.046.368.137.511.092.143.209.261.352.356.143.095.306.164.489.208.183.044.366.065.549.065zm6.231-4.931c.199-.253.434-.45.704-.588.271-.139.605-.208 1.003-.208.454 0 .84.095 1.158.285.318.19.569.467.752.832.183-.341.452-.612.806-.814.354-.202.762-.303 1.224-.303.318 0 .613.055.883.166.271.111.505.273.704.487.199.214.356.481.471.802.115.321.173.695.173 1.123v3.458c0 .174-.088.261-.263.261h-.203c-.175 0-.263-.087-.263-.261v-3.339c0-.388-.044-.711-.131-.968-.088-.257-.207-.463-.358-.618-.151-.154-.324-.263-.519-.327-.195-.063-.4-.095-.615-.095-.183 0-.368.032-.555.095-.187.063-.358.172-.513.327-.155.154-.281.36-.376.618-.095.257-.143.58-.143.968v3.339c0 .174-.088.261-.263.261h-.203c-.175 0-.263-.087-.263-.261v-3.339c0-.388-.048-.711-.143-.968-.095-.257-.219-.463-.37-.618-.151-.154-.324-.263-.519-.327-.195-.063-.392-.095-.591-.095-.183 0-.368.032-.555.095-.187.063-.358.172-.513.327-.155.154-.281.358-.376.612-.095.253-.143.574-.143.962v3.351c0 .174-.088.261-.263.261h-.203c-.175 0-.263-.087-.263-.261v-5.656c0-.174.088-.261.263-.261h.203c.175 0 .263.087.263.261v.416zm14.646-.238c-.167 0-.251-.075-.251-.226.008-.269.064-.551.167-.844.103-.293.261-.56.471-.802.211-.242.479-.44.806-.594.326-.154.716-.232 1.17-.232.454 0 .84.067 1.158.202.318.135.579.313.782.535.203.222.35.479.442.772.092.293.137.594.137.903 0 .491-.107.927-.322 1.307-.215.38-.541.772-.979 1.176l-2.793 2.828h3.999c.183 0 .275.091.275.273v.178c0 .174-.092.261-.275.261h-4.894c-.175 0-.263-.087-.263-.261v-.178c0-.079.022-.156.066-.232.044-.075.121-.164.233-.267l3.092-3.078c.223-.206.406-.392.549-.558.143-.166.257-.327.34-.481.084-.154.141-.309.173-.463.032-.154.048-.323.048-.505 0-.531-.151-.947-.454-1.248-.302-.301-.74-.452-1.313-.452-.549 0-.979.156-1.289.469-.31.313-.497.727-.561 1.242-.016.095-.054.164-.113.208l-.161.065h-.239zm7.401.582c.008-.436.06-.852.155-1.248s.255-.745.477-1.046c.223-.301.515-.541.877-.719.362-.178.814-.267 1.355-.267s.993.089 1.355.267c.362.178.653.418.871.719.219.301.378.65.477 1.046.099.396.153.812.161 1.248.016.681.016 1.347 0 1.996-.016.436-.072.852-.167 1.248-.095.396-.253.745-.471 1.046-.219.301-.509.541-.871.719-.362.178-.814.267-1.355.267s-.993-.089-1.355-.267c-.362-.178-.653-.418-.871-.719-.219-.301-.378-.65-.477-1.046-.099-.396-.153-.812-.161-1.248-.016-.65-.016-1.315 0-1.996zm4.978.059c-.016-.8-.197-1.438-.543-1.913-.346-.475-.869-.713-1.57-.713-.708 0-1.233.238-1.576.713-.342.475-.521 1.113-.537 1.913l-.012.933.012.945c.016.816.195 1.458.537 1.925.342.467.867.701 1.576.701.708 0 1.233-.234 1.576-.701.342-.467.521-1.109.537-1.925l.012-.945-.012-.933zm6.243 4.836c0 .174-.088.261-.263.261h-.227c-.175 0-.263-.087-.263-.261v-7.082l-2.137 1.64c-.143.103-.267.087-.37-.048l-.131-.166c-.048-.063-.068-.129-.06-.196.008-.067.044-.125.107-.172l2.543-1.949.155-.071.155-.012h.227c.175 0 .263.087.263.261v7.795zm2.519-2.424c0-.23.026-.452.078-.665.052-.214.117-.41.197-.588s.161-.341.245-.487c.084-.147.161-.267.233-.362l2.352-3.291.131-.149c.048-.059.127-.089.239-.089h.227c.072 0 .129.026.173.077.044.051.066.113.066.184l-.018.095-.042.059-1.79 2.519c.111-.032.241-.055.388-.071l.424-.024c.477 0 .897.077 1.259.232.362.154.664.362.907.624.243.261.426.56.549.897.123.337.185.683.185 1.04 0 .356-.062.703-.185 1.04-.123.337-.306.636-.549.897-.243.261-.545.471-.907.63-.362.158-.782.238-1.259.238-.477 0-.897-.079-1.259-.238-.362-.158-.664-.368-.907-.63-.243-.261-.426-.56-.549-.897-.123-.337-.185-.683-.185-1.04zm5.049 0c0-.341-.06-.64-.179-.897s-.279-.473-.477-.648c-.199-.174-.428-.307-.686-.398-.259-.091-.527-.137-.806-.137s-.547.046-.806.137c-.259.091-.487.224-.686.398-.199.174-.358.39-.477.648-.119.257-.179.557-.179.897 0 .341.06.642.179.903s.279.479.477.654c.199.174.428.307.686.398.259.091.527.137.806.137s.547-.046.806-.137c.259-.091.487-.224.686-.398.199-.174.358-.392.477-.654.119-.261.179-.562.179-.903z" fill="#A0B0B1"/><path d="M58.075 33.568l.764-4.016c.024-.119.072-.202.143-.25.072-.048.147-.071.227-.071h1.564c.072 0 .133.026.185.077.052.051.078.113.078.184l-.012.095-1.54 7.51c-.016.111-.08.214-.191.309s-.247.143-.406.143h-.991c-.159 0-.288-.048-.388-.143-.099-.095-.169-.198-.209-.309l-.895-2.685-.895 2.685c-.04.111-.109.214-.209.309-.099.095-.229.143-.388.143h-.991c-.159 0-.294-.048-.406-.143-.111-.095-.175-.198-.191-.309l-1.54-7.51-.012-.095c0-.071.026-.133.078-.184.052-.051.113-.077.185-.077h1.564c.08 0 .155.024.227.071.072.048.119.131.143.25l.764 4.016.704-2.151.107-.214c.056-.087.155-.131.298-.131h1.122c.143 0 .243.044.298.131l.107.214.704 2.151zm8.332 3.981c-.088 0-.163-.032-.227-.095s-.095-.139-.095-.226v-7.676c0-.087.032-.162.095-.226.064-.063.139-.095.227-.095h1.564c.088 0 .163.032.227.095s.095.139.095.226v7.676c0 .087-.032.162-.095.226-.064.063-.139.095-.227.095h-1.564zm12.868 0c-.135 0-.245-.036-.328-.107l-.161-.166-2.733-4.064v4.016c0 .087-.032.162-.095.226-.064.063-.139.095-.227.095h-1.564c-.088 0-.163-.032-.227-.095s-.095-.139-.095-.226v-7.676c0-.087.032-.162.095-.226.064-.063.139-.095.227-.095h1.241c.135 0 .245.036.328.107l.161.166 2.733 4.064v-4.016c0-.087.032-.162.095-.226.064-.063.139-.095.227-.095h1.564c.088 0 .163.032.227.095s.095.139.095.226v7.676c0 .087-.032.162-.095.226-.064.063-.139.095-.227.095h-1.241zm12.545 0c-.135 0-.245-.036-.328-.107l-.161-.166-2.733-4.064v4.016c0 .087-.032.162-.095.226-.064.063-.139.095-.227.095h-1.564c-.088 0-.163-.032-.227-.095s-.095-.139-.095-.226v-7.676c0-.087.032-.162.095-.226.064-.063.139-.095.227-.095h1.241c.135 0 .245.036.328.107l.161.166 2.733 4.064v-4.016c0-.087.032-.162.095-.226.064-.063.139-.095.227-.095h1.564c.088 0 .163.032.227.095s.095.139.095.226v7.676c0 .087-.032.162-.095.226-.064.063-.139.095-.227.095h-1.241zm13.095-1.901c.088 0 .163.032.227.095s.095.139.095.226v1.26c0 .087-.032.162-.095.226-.064.063-.139.095-.227.095h-5.658c-.088 0-.163-.032-.227-.095s-.095-.139-.095-.226v-7.676c0-.087.032-.162.095-.226.064-.063.139-.095.227-.095h5.562c.088 0 .163.032.227.095s.095.139.095.226v1.26c0 .087-.032.162-.095.226-.064.063-.139.095-.227.095h-3.676v1.283h3.414c.088 0 .163.032.227.095s.095.139.095.226v1.26c0 .087-.032.162-.095.226-.064.063-.139.095-.227.095h-3.414v1.331h3.772zm9.132-6.417c.525 0 .995.055 1.409.166.414.111.766.277 1.056.499.29.222.513.505.668.85.155.345.233.747.233 1.206 0 .594-.123 1.087-.37 1.479-.247.392-.597.691-1.05.897l1.48 2.828.036.131c0 .071-.026.133-.078.184-.052.051-.113.077-.185.077h-1.623c-.159 0-.273-.036-.34-.107l-.161-.214-1.325-2.543h-1.098v2.543c0 .087-.032.162-.095.226-.064.063-.139.095-.227.095h-1.564c-.088 0-.163-.032-.227-.095s-.095-.139-.095-.226v-7.676c0-.087.032-.162.095-.226.064-.063.139-.095.227-.095h3.235zm-1.349 3.6h1.349c.334 0 .611-.063.83-.19.219-.127.328-.356.328-.689 0-.333-.109-.562-.328-.689-.219-.127-.495-.19-.83-.19h-1.349v1.759z" fill="#A0B0B1"/></g></svg>