<svg width="167" height="158" viewBox="0 0 167 158" xmlns="http://www.w3.org/2000/svg"><title>seedstars</title><desc>Created with Sketch.</desc><g fill="#A0B0B1"><path d="M161.27 95.365c4.086-2.096 5.361-7.32 5.361-7.32s-6.312-.604-10.114 2.174c-1.191.874-2.292 2.397-3.147 3.83.647-2.924 1.082-5.913 1.295-8.952 1.482-.239 4.829-1.035 8.154-3.533 3.567-2.678 3.849-7.925 3.849-7.925s-6.199.43-9.363 3.72c-1.024 1.066-1.824 2.78-2.394 4.337.16-3.212.054-6.395-.28-9.524 1.406-.481 4.46-1.787 7.194-4.706 2.955-3.152 2.282-8.261 2.282-8.261s-5.909 1.407-8.366 5.087c-.81 1.215-1.273 3.041-1.541 4.656-.513-3.246-1.263-6.426-2.224-9.51 1.187-.625 4.041-2.379 6.239-5.77 2.287-3.517.711-8.339.711-8.339s-5.449 2.302-7.158 6.248c-.633 1.471-.703 3.623-.622 5.347-1.166-3.307-2.569-6.491-4.153-9.53.973-.728 3.52-2.897 5.079-6.643 1.565-3.759-.826-8.163-.826-8.163s-4.838 3.094-5.774 7.177c-.374 1.646.037 3.967.463 5.668-1.816-3.244-3.838-6.298-6.007-9.116.819-.876 2.86-3.369 3.681-7.204.83-3.88-2.272-7.747-2.272-7.747s-4.115 3.761-4.277 7.851c-.063 1.609.71 3.712 1.418 5.276-2.377-2.888-4.898-5.501-7.498-7.773.629-.969 2.154-3.707 2.255-7.553.1-3.878-3.597-7.112-3.597-7.112s-3.288 4.288-2.702 8.26c.241 1.644 1.474 3.667 2.469 5.078-.928-.755-1.861-1.47-2.799-2.134-2.112-1.604-4.193-3.016-6.217-4.273.369-.833 1.531-3.855.891-7.828-.606-3.758-4.759-6.288-4.759-6.288s-2.402 4.663-1.116 8.406c.607 1.774 2.564 3.818 3.808 4.993-3.783-2.259-7.321-3.941-10.419-5.2.192-.77.824-3.935-.545-7.762-1.262-3.529-5.731-5.306-5.731-5.306s-1.466 4.885.449 8.291c.968 1.725 3.484 3.504 4.855 4.39-2.127-.829-4.016-1.448-5.597-1.916-.477-.566-2.804-3.17-5.649-3.628-2.277-.363-6.101 1.015-6.101 1.015s1.834 2.349 5.538 3.546c2.484.802 5.227-.312 6.052-.694 1.921.624 4.314 1.484 7.03 2.673-1.593-.258-4.843-.654-6.877-.029-3.888 1.198-6.439 5.675-6.439 5.675s4.526 1.637 8.041-.082c3.76-1.831 5.636-4.47 6.101-5.196 3.047 1.376 6.473 3.167 10.081 5.487-1.672-.531-4.425-1.257-6.358-.997-4.133.556-7.54 4.629-7.54 4.629s4.242 2.399 8.097 1.259c3.913-1.153 6.265-3.321 7.012-4.099 1.598 1.069 3.227 2.237 4.877 3.527 1.468 1.075 2.926 2.264 4.36 3.558-1.572-.815-4.253-2.038-6.277-2.1-4.26-.132-8.448 3.396-8.448 3.396s3.811 3.116 7.901 2.613c4.188-.513 6.97-2.328 7.838-2.968 2.587 2.444 5.076 5.223 7.39 8.278-1.455-1.067-3.665-2.492-5.504-2.854-4.258-.843-9.128 2.002-9.128 2.002s3.24 3.768 7.442 3.944c4.121.176 7.168-1.063 8.291-1.606 2.014 2.804 3.878 5.816 5.536 9.002-1.253-1.261-2.999-2.787-4.605-3.391-4.118-1.556-9.552.492-9.552.492s2.547 4.325 6.737 5.202c3.94.83 7.137.183 8.478-.188 1.491 3.102 2.787 6.35 3.836 9.708-1.023-1.471-2.482-3.276-3.973-4.148-3.842-2.251-9.689-1.098-9.689-1.098s1.744 4.772 5.789 6.352c3.805 1.489 7.14 1.373 8.559 1.224.923 3.363 1.589 6.827 1.966 10.352-.75-1.672-1.906-3.831-3.284-4.993-3.44-2.9-9.534-2.715-9.534-2.715s.855 5.083 4.624 7.347c3.567 2.146 6.962 2.575 8.399 2.657.224 3.276.192 6.6-.138 9.943-.45-1.74-1.176-3.859-2.254-5.149-2.912-3.491-9.069-4.32-9.069-4.32s-.1 5.251 3.262 8.154c3.094 2.676 6.329 3.693 7.815 4.041-.347 3.21-.958 6.354-1.788 9.411-.127-1.814-.46-4.034-1.294-5.497-2.266-3.992-8.298-5.851-8.298-5.851s-1.091 5.262 1.739 8.735c2.574 3.164 5.586 4.724 7.038 5.341-.946 2.95-2.095 5.815-3.418 8.575.186-1.777.23-3.886-.298-5.396-1.529-4.39-7.237-7.262-7.237-7.262s-2.087 5.104.103 9.068c1.947 3.529 4.601 5.585 5.971 6.481-1.438 2.683-3.034 5.255-4.758 7.696.486-1.702.871-3.682.639-5.209-.708-4.664-5.902-8.503-5.902-8.503s-3.063 4.782-1.609 9.131c1.272 3.815 3.508 6.31 4.734 7.458-1.979 2.537-4.081 4.915-6.274 7.101.853-1.681 1.695-3.73 1.753-5.388.165-4.804-4.335-9.527-4.335-9.527s-3.97 4.295-3.33 8.905c.573 4.139 2.417 7.056 3.416 8.376-2.461 2.23-5.004 4.229-7.578 5.96 1.196-1.56 2.469-3.522 2.842-5.207 1.07-4.801-2.559-10.298-2.559-10.298s-4.802 3.653-5.029 8.396c-.202 4.223 1.086 7.444 1.842 8.951-.989.584-1.977 1.132-2.965 1.634-1.792.987-3.542 1.859-5.251 2.641 1.409-1.321 2.882-2.952 3.529-4.469 1.979-4.65-.63-10.778-.63-10.778s-5.516 2.872-6.637 7.598c-.978 4.119-.34 7.518.135 9.2-3.133 1.257-6.054 2.201-8.681 2.911 1.643-1.087 3.395-2.459 4.318-3.858 2.867-4.342 1.397-10.935 1.397-10.935s-6.081 1.965-8.099 6.53c-1.744 3.948-1.759 7.444-1.604 9.227-4.3.916-7.31.888-8.59 1.014-1.331.114-3.656.22-6.332-.076-1.528-.174-4.243-.164-7.877-.938.155-1.783.143-5.279-1.604-9.227-2.016-4.564-8.098-6.53-8.098-6.53s-1.471 6.593 1.393 10.935c.923 1.399 2.677 2.771 4.321 3.858-2.627-.71-5.549-1.654-8.681-2.911.475-1.682 1.113-5.081.135-9.2-1.121-4.726-6.638-7.598-6.638-7.598s-2.609 6.128-.631 10.778c.648 1.516 2.122 3.148 3.53 4.469-1.709-.782-3.462-1.654-5.254-2.641-.985-.502-1.974-1.05-2.962-1.634.757-1.507 2.044-4.728 1.841-8.951-.225-4.743-5.029-8.396-5.029-8.396s-3.63 5.497-2.559 10.298c.375 1.685 1.646 3.647 2.841 5.209-2.572-1.733-5.116-3.731-7.577-5.962.998-1.32 2.844-4.237 3.414-8.376.643-4.61-3.332-8.905-3.332-8.905s-4.496 4.723-4.334 9.527c.058 1.658.901 3.709 1.754 5.389-2.194-2.186-4.295-4.565-6.271-7.1 1.223-1.15 3.459-3.644 4.73-7.46 1.453-4.349-1.606-9.131-1.606-9.131s-5.196 3.839-5.904 8.503c-.232 1.527.153 3.507.638 5.209-1.721-2.441-3.316-5.012-4.758-7.696 1.37-.896 4.028-2.952 5.971-6.481 2.189-3.964.103-9.068.103-9.068s-5.709 2.873-7.238 7.262c-.526 1.511-.483 3.619-.298 5.396-1.324-2.76-2.472-5.625-3.418-8.575 1.451-.617 4.463-2.177 7.038-5.341 2.829-3.473 1.741-8.735 1.741-8.735s-6.032 1.859-8.298 5.851c-.835 1.462-1.166 3.683-1.293 5.497-.833-3.057-1.444-6.201-1.791-9.411 1.486-.349 4.721-1.365 7.815-4.041 3.362-2.903 3.262-8.154 3.262-8.154s-6.157.829-9.066 4.32c-1.081 1.291-1.805 3.409-2.256 5.147-.331-3.34-.363-6.664-.135-9.94 1.436-.082 4.828-.512 8.395-2.657 3.768-2.264 4.624-7.347 4.624-7.347s-6.095-.185-9.534 2.715c-1.378 1.162-2.534 3.32-3.285 4.993.378-3.525 1.044-6.988 1.967-10.352 1.419.148 4.753.265 8.558-1.224 4.046-1.581 5.792-6.352 5.792-6.352s-5.849-1.153-9.695 1.098c-1.488.871-2.946 2.675-3.97 4.145 1.051-3.357 2.344-6.603 3.835-9.705 1.344.371 4.538 1.018 8.478.188 4.192-.877 6.737-5.202 6.737-5.202s-5.432-2.049-9.554-.492c-1.604.605-3.35 2.13-4.603 3.389 1.658-3.184 3.522-6.196 5.536-8.999 1.125.543 4.17 1.782 8.29 1.606 4.203-.176 7.443-3.944 7.443-3.944s-4.871-2.846-9.129-2.002c-1.836.362-4.045 1.786-5.504 2.854 2.314-3.056 4.804-5.834 7.39-8.277.868.639 3.65 2.454 7.837 2.967 4.091.503 7.903-2.613 7.903-2.613s-4.19-3.528-8.453-3.396c-2.019.062-4.701 1.284-6.272 2.1 1.432-1.294 2.89-2.483 4.361-3.558 1.646-1.29 3.275-2.457 4.875-3.527.749.778 3.1 2.946 7.013 4.099 3.852 1.14 8.095-1.259 8.095-1.259s-3.407-4.073-7.543-4.629c-1.929-.26-4.683.464-6.357.997 3.612-2.32 7.035-4.11 10.082-5.486.466.726 2.342 3.364 6.102 5.196 3.515 1.719 8.041.082 8.041.082s-2.552-4.476-6.44-5.675c-2.031-.625-5.281-.229-6.875.029 2.717-1.189 5.106-2.049 7.027-2.673.828.382 3.57 1.496 6.052.694 3.705-1.197 5.539-3.546 5.539-3.546s-3.825-1.378-6.099-1.015c-2.847.459-5.173 3.062-5.651 3.628-1.581.468-3.47 1.088-5.596 1.916 1.371-.884 3.885-2.664 4.856-4.39 1.917-3.406.448-8.291.448-8.291s-4.468 1.777-5.732 5.306c-1.368 3.827-.735 6.992-.545 7.762-3.095 1.259-6.635 2.941-10.415 5.198 1.241-1.172 3.2-3.217 3.805-4.99 1.286-3.742-1.113-8.406-1.113-8.406s-4.153 2.53-4.758 6.288c-.64 3.973.518 6.994.888 7.828-2.024 1.257-4.105 2.669-6.216 4.273-.939.664-1.872 1.38-2.8 2.134.995-1.411 2.229-3.434 2.472-5.078.585-3.972-2.702-8.26-2.702-8.26s-3.699 3.234-3.6 7.112c.1 3.846 1.626 6.584 2.254 7.553-2.599 2.272-5.123 4.885-7.495 7.773.706-1.565 1.479-3.668 1.416-5.276-.162-4.09-4.278-7.851-4.278-7.851s-3.104 3.866-2.271 7.747c.821 3.835 2.862 6.328 3.68 7.204-2.169 2.817-4.19 5.869-6.007 9.115.427-1.702.84-4.021.463-5.667-.933-4.083-5.774-7.177-5.774-7.177s-2.391 4.404-.825 8.163c1.559 3.746 4.105 5.915 5.078 6.643-1.584 3.039-2.987 6.223-4.153 9.53.08-1.723.01-3.876-.625-5.347-1.707-3.946-7.155-6.248-7.155-6.248s-1.574 4.822.71 8.339c2.199 3.392 5.051 5.145 6.242 5.77-.964 3.084-1.714 6.263-2.227 9.507-.267-1.614-.73-3.44-1.541-4.654-2.457-3.68-8.366-5.087-8.366-5.087s-.673 5.11 2.282 8.261c2.734 2.919 5.789 4.225 7.192 4.706-.332 3.13-.435 6.311-.278 9.524-.57-1.556-1.37-3.273-2.394-4.337-3.165-3.29-9.364-3.72-9.364-3.72s.283 5.248 3.848 7.925c3.325 2.498 6.674 3.293 8.155 3.533.213 3.039.651 6.028 1.296 8.952-.855-1.432-1.956-2.955-3.147-3.83-3.802-2.778-10.114-2.174-10.114-2.174s1.275 5.224 5.363 7.32c3.753 1.926 7.213 2.187 8.786 2.191.826 2.938 1.852 5.801 3.05 8.572-1.138-1.311-2.549-2.693-3.932-3.383-4.345-2.16-10.572-.499-10.572-.499s2.264 5.037 6.765 6.463c4.157 1.315 7.698.992 9.266.735 1.376 2.788 2.924 5.467 4.606 8.022-1.407-1.151-3.115-2.333-4.661-2.801-4.769-1.447-10.717 1.259-10.717 1.259s3.227 4.683 8.018 5.365c4.431.63 7.933-.288 9.457-.807 1.781 2.443 3.68 4.752 5.671 6.91-1.536-.834-3.284-1.607-4.786-1.802-5.066-.658-10.535 3.052-10.535 3.052s4.125 4.169 9.069 4.057c4.403-.102 7.665-1.501 9.182-2.299 2.114 2.055 4.303 3.942 6.532 5.638-1.581-.516-3.294-.913-4.706-.865-5.213.182-10.012 4.822-10.012 4.822s4.931 3.503 9.88 2.565c4.325-.821 7.31-2.715 8.716-3.783 1.579 1.023 3.16 1.953 4.741 2.772 1.001.561 1.989 1.088 2.967 1.583-1.744-.273-3.63-.414-5.101-.117-5.204 1.052-9.151 6.511-9.151 6.511s5.616 2.701 10.413.933c4.253-1.568 6.912-4.022 8.098-5.312 2.882 1.267 5.616 2.277 8.14 3.077-1.778.021-3.657.198-5.053.732-5.034 1.925-7.971 8.071-7.971 8.071s6.152 1.775 10.638-.801c3.957-2.269 6.164-5.155 7.122-6.659l.678.166c2.723.633 13.301 2.75 24.498.501.896-.195 1.847-.415 2.857-.667.958 1.503 3.165 4.389 7.122 6.659 4.486 2.576 10.637.801 10.637.801s-2.937-6.147-7.97-8.071c-1.396-.534-3.275-.711-5.053-.732 2.524-.8 5.258-1.81 8.14-3.077 1.186 1.291 3.845 3.745 8.098 5.312 4.796 1.767 10.412-.933 10.412-.933s-3.948-5.459-9.151-6.511c-1.471-.297-3.355-.156-5.104.117.981-.496 1.969-1.022 2.97-1.583 1.578-.82 3.165-1.749 4.738-2.772 1.406 1.065 4.393 2.962 8.718 3.783 4.949.938 9.88-2.565 9.88-2.565s-4.796-4.64-10.012-4.822c-1.411-.049-3.125.349-4.706.865 2.229-1.696 4.418-3.583 6.535-5.638 1.513.798 4.776 2.198 9.18 2.299 4.943.112 9.069-4.057 9.069-4.057s-5.469-3.71-10.535-3.052c-1.501.195-3.25.968-4.786 1.802 1.991-2.158 3.89-4.466 5.671-6.91 1.523.519 5.023 1.438 9.457.807 4.794-.682 8.02-5.365 8.02-5.365s-5.949-2.706-10.72-1.259c-1.548.468-3.254 1.651-4.661 2.801 1.682-2.555 3.227-5.234 4.606-8.022 1.569.257 5.108.58 9.264-.735 4.504-1.426 6.767-6.463 6.767-6.463s-6.23-1.661-10.572.499c-1.384.69-2.794 2.071-3.933 3.383 1.196-2.771 2.224-5.633 3.05-8.572 1.573-.004 5.034-.265 8.789-2.191"/><path d="M43.594 51.523c.471 0 .885.073 1.244.22.359.146.663.326.914.538.251.212.442.439.573.682.131.243.201.461.208.653.008.069-.015.129-.069.179-.054.05-.116.075-.185.075h-.474c-.085 0-.152-.015-.202-.046-.05-.031-.102-.1-.156-.208l-.191-.295c-.089-.119-.208-.235-.359-.347-.15-.112-.334-.208-.55-.289-.216-.081-.467-.121-.752-.121-.216 0-.422.025-.619.075-.197.05-.372.125-.526.225-.154.1-.278.225-.37.376-.093.15-.139.326-.139.526s.044.37.133.509c.089.139.231.264.428.376.197.112.445.214.746.306s.667.197 1.099.312c.44.116.812.243 1.117.382.305.139.553.295.746.468.193.173.334.374.422.601.089.227.133.484.133.769 0 .347-.075.665-.226.954-.15.289-.361.538-.631.746-.27.208-.596.37-.978.486-.382.116-.808.173-1.279.173-.447 0-.86-.066-1.238-.197s-.702-.301-.972-.509c-.27-.208-.484-.439-.642-.694-.158-.254-.241-.505-.249-.751 0-.069.025-.129.075-.179.05-.05.11-.075.179-.075h.474l.202.046c.058.031.11.1.156.208.046.108.118.225.214.353.096.127.226.247.388.358.162.112.359.206.59.283.231.077.505.116.822.116.27 0 .526-.031.769-.092.243-.062.457-.15.642-.266.185-.116.332-.254.44-.416.108-.162.162-.343.162-.543s-.062-.372-.185-.514c-.123-.143-.301-.272-.532-.387-.231-.116-.515-.222-.85-.318-.336-.096-.715-.198-1.14-.306-.386-.1-.714-.222-.983-.364-.27-.143-.49-.306-.66-.491-.17-.185-.291-.389-.364-.613-.073-.224-.11-.466-.11-.728 0-.285.058-.563.174-.832.116-.27.287-.509.515-.717.228-.208.513-.376.856-.503.343-.127.746-.191 1.209-.191zm4.258 4.624c.031-.355.116-.686.255-.994.139-.308.32-.578.544-.809.224-.231.492-.412.804-.543.312-.131.661-.197 1.047-.197.417 0 .789.067 1.117.202.328.135.607.329.839.584.231.254.409.563.532.925.123.362.185.767.185 1.214v.312c0 .085-.031.158-.093.22s-.135.092-.22.092h-3.98v.069c.015.524.175.927.48 1.208.305.281.685.422 1.14.422.424 0 .742-.06.955-.179.212-.119.384-.252.515-.399l.162-.127.208-.035h.347c.085 0 .162.031.231.092.069.062.096.135.081.22-.023.139-.089.291-.197.457-.108.166-.264.32-.469.462-.204.143-.459.262-.764.358-.305.096-.661.145-1.07.145-.386 0-.733-.067-1.041-.202-.309-.135-.577-.32-.804-.555-.228-.235-.411-.513-.55-.832-.139-.32-.224-.669-.255-1.046-.039-.355-.039-.709 0-1.064zm1.03.035h3.251v-.035c0-.47-.148-.846-.445-1.127-.297-.281-.692-.422-1.186-.422-.224 0-.432.037-.625.11-.193.073-.363.177-.509.312-.147.135-.262.299-.347.491-.085.193-.131.405-.139.636v.035zm5.415-.035c.031-.355.116-.686.255-.994.139-.308.32-.578.544-.809.224-.231.492-.412.804-.543.312-.131.661-.197 1.047-.197.417 0 .789.067 1.117.202.328.135.607.329.839.584.231.254.409.563.532.925.123.362.185.767.185 1.214v.312c0 .085-.031.158-.093.22s-.135.092-.22.092h-3.98v.069c.015.524.175.927.48 1.208.305.281.685.422 1.14.422.424 0 .742-.06.955-.179.212-.119.384-.252.515-.399l.162-.127.208-.035h.347c.085 0 .162.031.231.092.069.062.096.135.081.22-.023.139-.089.291-.197.457-.108.166-.264.32-.469.462-.204.143-.459.262-.764.358-.305.096-.661.145-1.07.145-.386 0-.733-.067-1.041-.202-.309-.135-.577-.32-.804-.555-.228-.235-.411-.513-.55-.832-.139-.32-.224-.669-.255-1.046-.039-.355-.039-.709 0-1.064zm1.03.035h3.251v-.035c0-.47-.148-.846-.445-1.127-.297-.281-.692-.422-1.186-.422-.224 0-.432.037-.625.11-.193.073-.363.177-.509.312-.147.135-.262.299-.347.491-.085.193-.131.405-.139.636v.035zm8.03-2.578c.478 0 .86.083 1.145.249.285.166.501.345.648.538v-2.555c0-.085.031-.158.093-.22s.135-.092.22-.092h.428c.085 0 .158.031.22.092.062.062.093.135.093.22v7.584c0 .085-.031.158-.093.22s-.135.092-.22.092h-.428c-.085 0-.158-.031-.22-.092-.062-.062-.093-.135-.093-.22v-.358c-.154.208-.374.391-.66.549-.285.158-.663.237-1.134.237-.363 0-.7-.064-1.012-.191-.312-.127-.584-.31-.816-.549-.231-.239-.417-.528-.555-.867-.139-.339-.22-.721-.243-1.145l-.012-.376.012-.376c.023-.424.104-.805.243-1.145.139-.339.324-.626.555-.861.231-.235.503-.416.816-.543.312-.127.65-.191 1.012-.191zm1.793 3.619l.012-.457-.012-.457c-.023-.547-.187-.969-.492-1.266-.305-.297-.7-.445-1.186-.445-.509 0-.91.162-1.203.486-.293.324-.455.763-.486 1.318-.008.216-.008.432 0 .647.031.555.193.994.486 1.318.293.324.694.486 1.203.486.478 0 .872-.146 1.18-.439.309-.293.474-.69.498-1.191zm5.403-5.7c.471 0 .885.073 1.244.22.359.146.663.326.914.538.251.212.442.439.573.682.131.243.201.461.208.653.008.069-.015.129-.069.179-.054.05-.116.075-.185.075h-.474c-.085 0-.152-.015-.202-.046-.05-.031-.102-.1-.156-.208l-.191-.295c-.089-.119-.208-.235-.359-.347-.15-.112-.334-.208-.55-.289-.216-.081-.467-.121-.752-.121-.216 0-.422.025-.619.075-.197.05-.372.125-.526.225-.154.1-.278.225-.37.376-.093.15-.139.326-.139.526s.044.37.133.509c.089.139.231.264.428.376.197.112.445.214.746.306s.667.197 1.099.312c.44.116.812.243 1.117.382.305.139.553.295.746.468.193.173.334.374.422.601.089.227.133.484.133.769 0 .347-.075.665-.226.954-.15.289-.361.538-.631.746-.27.208-.596.37-.978.486-.382.116-.808.173-1.279.173-.447 0-.86-.066-1.238-.197s-.702-.301-.972-.509c-.27-.208-.484-.439-.642-.694-.158-.254-.241-.505-.249-.751 0-.069.025-.129.075-.179.05-.05.11-.075.179-.075h.474l.202.046c.058.031.11.1.156.208.046.108.118.225.214.353.096.127.226.247.388.358.162.112.359.206.59.283.231.077.505.116.822.116.27 0 .526-.031.769-.092.243-.062.457-.15.642-.266.185-.116.332-.254.44-.416.108-.162.162-.343.162-.543s-.062-.372-.185-.514c-.123-.143-.301-.272-.532-.387-.231-.116-.515-.222-.85-.318-.336-.096-.715-.198-1.14-.306-.386-.1-.714-.222-.983-.364-.27-.143-.49-.306-.66-.491-.17-.185-.291-.389-.364-.613-.073-.224-.11-.466-.11-.728 0-.285.058-.563.174-.832.116-.27.287-.509.515-.717.228-.208.513-.376.856-.503.343-.127.746-.191 1.209-.191zm6.109 6.185c0 .146.013.283.04.41.027.127.075.237.145.329.069.092.168.164.295.214.127.05.291.075.492.075h.613c.085 0 .158.031.22.092.062.062.093.135.093.22v.37c0 .085-.031.158-.093.22s-.135.092-.22.092h-.729c-.671 0-1.157-.173-1.458-.52-.301-.347-.451-.848-.451-1.503v-2.994h-.856c-.085 0-.158-.031-.22-.092-.062-.062-.093-.135-.093-.22v-.37c0-.085.031-.158.093-.22s.135-.092.22-.092h.856v-1.884c0-.085.031-.158.093-.22s.135-.092.22-.092h.428c.085 0 .158.031.22.092.062.062.093.135.093.22v1.884h1.469c.085 0 .158.031.22.092.062.062.093.135.093.22v.37c0 .085-.031.158-.093.22s-.135.092-.22.092h-1.469v2.994zm2.626.509c0-.308.062-.578.185-.809.123-.231.293-.428.509-.59.216-.162.469-.293.758-.393.289-.1.596-.177.92-.231l1.631-.266v-.15c0-.393-.129-.688-.388-.884-.258-.197-.58-.295-.966-.295-.339 0-.596.062-.769.185-.174.123-.322.27-.445.439l-.15.127-.22.035h-.347c-.085 0-.16-.031-.226-.092-.066-.062-.094-.135-.087-.22.015-.17.083-.343.202-.52.12-.177.282-.335.486-.474.204-.139.44-.252.706-.341.266-.089.55-.133.85-.133.347 0 .669.05.966.15.297.1.552.247.764.439.212.193.378.432.498.717s.179.613.179.983v3.526c0 .085-.031.158-.093.22s-.135.092-.22.092h-.428c-.085 0-.158-.031-.22-.092-.062-.062-.093-.135-.093-.22v-.474c-.069.146-.177.276-.324.387-.147.112-.314.206-.503.283-.189.077-.386.135-.59.173-.204.039-.395.058-.573.058-.301 0-.577-.042-.827-.127-.251-.085-.463-.198-.636-.341-.174-.143-.309-.314-.405-.514-.096-.2-.145-.416-.145-.647zm2.129.636c.278 0 .532-.042.764-.127.231-.085.43-.202.596-.353.166-.15.293-.329.382-.538.089-.208.133-.439.133-.694v-.289l-1.365.22c-.486.077-.872.2-1.157.37-.285.17-.428.389-.428.659 0 .085.019.17.058.254.039.085.1.166.185.243.085.077.195.139.33.185.135.046.303.069.503.069zm7.671-5.133c.085 0 .158.031.22.092.062.062.093.135.093.22v.37c0 .085-.031.158-.093.22s-.135.092-.22.092h-.671c-.887 0-1.331.443-1.331 1.33v3.376c0 .085-.031.158-.093.22s-.135.092-.22.092h-.428c-.085 0-.158-.031-.22-.092-.062-.062-.093-.135-.093-.22v-5.387c0-.085.031-.158.093-.22s.135-.092.22-.092h.428c.085 0 .158.031.22.092.062.062.093.135.093.22v.358c.154-.231.339-.401.555-.509.216-.108.498-.162.845-.162h.602zm4.744 4.347c0-.146-.04-.268-.121-.364-.081-.096-.202-.179-.364-.249-.162-.069-.368-.135-.619-.197s-.542-.127-.874-.197c-.625-.131-1.063-.349-1.313-.653-.251-.304-.376-.661-.376-1.069 0-.231.046-.451.139-.659.093-.208.231-.393.417-.555.185-.162.418-.289.7-.382.282-.092.611-.139.989-.139s.708.042.989.127c.282.085.519.193.712.324.193.131.339.272.44.422.1.15.154.295.162.434.008.085-.021.158-.087.22-.066.062-.141.092-.226.092h-.382l-.168-.029c-.066-.019-.125-.064-.179-.133-.1-.131-.249-.241-.445-.329-.197-.089-.469-.133-.816-.133-.355 0-.642.066-.862.197-.22.131-.33.312-.33.543 0 .146.031.264.093.353.062.089.162.166.301.231.139.066.322.125.55.179l.85.197c.355.077.652.175.891.295.239.119.432.254.579.405.147.15.251.316.312.497.062.181.093.372.093.572 0 .231-.056.455-.168.671-.112.216-.272.405-.48.566-.208.162-.461.293-.758.393-.297.1-.634.15-1.012.15s-.714-.046-1.007-.139c-.293-.092-.544-.206-.752-.341-.208-.135-.368-.281-.48-.439-.112-.158-.172-.306-.179-.445-.008-.085.019-.158.081-.22s.139-.092.231-.092h.417l.162.017c.062.012.12.056.174.133.123.17.293.301.509.393.216.092.498.139.845.139.17 0 .337-.019.503-.058.166-.039.312-.092.44-.162.127-.069.229-.152.307-.249.077-.096.116-.202.116-.318zm6.341-4.636c.139 0 .235.042.289.127l.104.208 1.273 4.578 1.18-6.393c.023-.116.069-.197.139-.243.069-.046.143-.069.22-.069h.463c.069 0 .129.025.179.075.05.05.075.11.075.179l-.012.092-1.423 7.145c-.039.193-.096.341-.174.445-.077.104-.208.156-.393.156h-.463c-.177 0-.309-.056-.393-.168-.085-.112-.15-.256-.197-.434l-1.064-3.861-1.064 3.861c-.046.177-.112.322-.197.434-.085.112-.216.168-.393.168h-.463c-.185 0-.316-.052-.393-.156-.077-.104-.135-.252-.174-.445l-1.423-7.145-.012-.092c0-.069.025-.129.075-.179.05-.05.11-.075.179-.075h.463c.077 0 .15.023.22.069.069.046.116.127.139.243l1.18 6.393 1.273-4.578.104-.208c.054-.085.15-.127.289-.127h.393zm7.717.173c.417 0 .787.064 1.111.191.324.127.602.303.833.526.231.224.415.495.55.815.135.32.218.669.249 1.046l.012.249v.601l-.012.237c-.039.385-.123.736-.255 1.052-.131.316-.312.586-.544.809-.231.224-.509.399-.833.526-.324.127-.694.191-1.111.191-.417 0-.787-.064-1.111-.191-.324-.127-.602-.303-.833-.526-.231-.224-.415-.493-.55-.809-.135-.316-.218-.667-.249-1.052l-.017-.237-.006-.301.006-.301.017-.249c.031-.378.114-.726.249-1.046.135-.32.318-.592.55-.815.231-.224.509-.399.833-.526.324-.127.694-.191 1.111-.191zm1.689 3.607c.015-.131.023-.291.023-.48s-.008-.353-.023-.491c-.023-.231-.073-.447-.15-.647s-.185-.374-.324-.52c-.139-.146-.309-.262-.509-.347-.201-.085-.436-.127-.706-.127-.27 0-.505.042-.706.127-.201.085-.37.2-.509.347-.139.146-.247.32-.324.52-.077.2-.127.416-.15.647-.015.139-.023.303-.023.491 0 .189.008.349.023.48.023.231.073.447.15.647s.185.374.324.52c.139.146.309.262.509.347.201.085.436.127.706.127.27 0 .505-.042.706-.127.201-.085.37-.2.509-.347.139-.146.247-.32.324-.52.077-.2.127-.416.15-.647zm5.577-3.491c.085 0 .158.031.22.092.062.062.093.135.093.22v.37c0 .085-.031.158-.093.22s-.135.092-.22.092h-.671c-.887 0-1.331.443-1.331 1.33v3.376c0 .085-.031.158-.093.22s-.135.092-.22.092h-.428c-.085 0-.158-.031-.22-.092-.062-.062-.093-.135-.093-.22v-5.387c0-.085.031-.158.093-.22s.135-.092.22-.092h.428c.085 0 .158.031.22.092.062.062.093.135.093.22v.358c.154-.231.339-.401.555-.509.216-.108.498-.162.845-.162h.602zm2.372 5.7c0 .085-.031.158-.093.22s-.135.092-.22.092h-.428c-.085 0-.158-.031-.22-.092-.062-.062-.093-.135-.093-.22v-7.584c0-.085.031-.158.093-.22s.135-.092.22-.092h.428c.085 0 .158.031.22.092.062.062.093.135.093.22v7.584zm4.073-5.815c.478 0 .86.083 1.145.249.285.166.501.345.648.538v-2.555c0-.085.031-.158.093-.22s.135-.092.22-.092h.428c.085 0 .158.031.22.092.062.062.093.135.093.22v7.584c0 .085-.031.158-.093.22s-.135.092-.22.092h-.428c-.085 0-.158-.031-.22-.092-.062-.062-.093-.135-.093-.22v-.358c-.154.208-.374.391-.66.549-.285.158-.663.237-1.134.237-.363 0-.7-.064-1.012-.191-.312-.127-.584-.31-.816-.549-.231-.239-.417-.528-.555-.867-.139-.339-.22-.721-.243-1.145l-.012-.376.012-.376c.023-.424.104-.805.243-1.145.139-.339.324-.626.555-.861.231-.235.503-.416.816-.543.312-.127.65-.191 1.012-.191zm1.793 3.619l.012-.457-.012-.457c-.023-.547-.187-.969-.492-1.266-.305-.297-.7-.445-1.186-.445-.509 0-.91.162-1.203.486-.293.324-.455.763-.486 1.318-.008.216-.008.432 0 .647.031.555.193.994.486 1.318.293.324.694.486 1.203.486.478 0 .872-.146 1.18-.439.309-.293.474-.69.498-1.191z"/><path d="M52.414 77.381c.771-.617 1.266-1.246 1.485-1.888.219-.642.328-1.233.328-1.773 0-1.053-.321-1.946-.964-2.678s-1.71-1.098-3.201-1.098c-1.414 0-2.449.347-3.105 1.04-.656.694-1.125 1.58-1.408 2.659-.077.334-.231.584-.463.751-.231.167-.463.25-.694.25h-3.047c-.283 0-.534-.096-.752-.289-.219-.193-.315-.443-.289-.751.077-1.156.373-2.248.887-3.276.514-1.028 1.202-1.927 2.063-2.698.861-.771 1.871-1.381 3.028-1.83 1.157-.45 2.404-.674 3.741-.674 1.62 0 3.021.263 4.204.79 1.183.527 2.16 1.207 2.931 2.042.771.835 1.343 1.76 1.716 2.775s.559 2.023.559 3.025c0 .642-.039 1.252-.116 1.83-.077.578-.257 1.156-.54 1.734-.283.578-.694 1.182-1.234 1.811s-1.26 1.304-2.16 2.023l-7.135 6.513h10.722c.283 0 .527.103.733.308.206.206.309.45.309.732v2.736c0 .283-.103.527-.309.732-.206.206-.45.308-.733.308h-18.011c-.283 0-.527-.103-.733-.308-.206-.206-.309-.45-.309-.732v-2.351c0-.437.129-.816.386-1.137.257-.321.476-.546.656-.674l11.455-9.904zm32.32-1.811c.026.488.039 1.028.039 1.619v3.622c0 .591-.013 1.13-.039 1.619-.077 1.49-.302 2.871-.675 4.143-.373 1.272-.964 2.376-1.774 3.314-.81.938-1.864 1.67-3.163 2.197-1.298.527-2.886.79-4.763.79-1.903 0-3.497-.263-4.782-.79-1.286-.527-2.333-1.259-3.143-2.197-.81-.938-1.401-2.042-1.774-3.314-.373-1.272-.598-2.653-.675-4.143-.051-.976-.077-2.087-.077-3.333s.026-2.357.077-3.333c.077-1.49.302-2.884.675-4.181.373-1.297.964-2.421 1.774-3.372.81-.951 1.858-1.702 3.143-2.254 1.286-.552 2.88-.829 4.782-.829 1.877 0 3.465.263 4.763.79s2.353 1.259 3.163 2.197c.81.938 1.401 2.042 1.774 3.314.373 1.272.598 2.653.675 4.143zm-15.543 6.667c.129 1.85.572 3.282 1.331 4.297.759 1.015 2.038 1.522 3.838 1.522 1.8 0 3.079-.507 3.838-1.522.759-1.015 1.202-2.447 1.331-4.297.051-.976.077-2.055.077-3.237s-.026-2.261-.077-3.237c-.129-1.85-.572-3.282-1.331-4.297-.759-1.015-2.038-1.522-3.838-1.522-1.8 0-3.079.507-3.838 1.522-.759 1.015-1.202 2.447-1.331 4.297-.051.976-.077 2.055-.077 3.237s.026 2.261.077 3.237zm18.706-8.016c-.18-.231-.251-.488-.212-.771.039-.283.174-.514.405-.694l8.369-6.59c.206-.154.418-.302.636-.443.219-.141.456-.212.714-.212h3.008c.283 0 .527.103.733.308.206.206.309.45.309.732v24.895c0 .283-.103.527-.309.732-.206.206-.45.308-.733.308h-3.124c-.283 0-.527-.103-.733-.308-.206-.206-.309-.45-.309-.732v-19.037l-5.477 4.278c-.231.18-.482.25-.752.212-.27-.039-.508-.173-.714-.405l-1.813-2.274zm20.441-7.669c0-.283.103-.527.309-.732.206-.206.45-.308.733-.308h14.502c.283 0 .527.103.733.308.206.206.309.45.309.732v2.736c0 .283-.103.527-.309.732-.206.206-.45.308-.733.308h-10.838l-.424 4.933c.694-.283 1.382-.45 2.063-.501.681-.051 1.241-.077 1.678-.077 1.44 0 2.777.193 4.011.578 1.234.385 2.301.957 3.201 1.715.9.758 1.607 1.689 2.121 2.794s.771 2.376.771 3.815c0 1.644-.264 3.051-.791 4.22-.527 1.169-1.247 2.132-2.16 2.89s-1.986 1.31-3.22 1.657c-1.234.347-2.545.52-3.934.52-1.774 0-3.298-.206-4.57-.617-1.273-.411-2.327-.97-3.163-1.676-.836-.707-1.466-1.516-1.89-2.428-.424-.912-.662-1.869-.714-2.871-.026-.308.071-.559.289-.751.219-.193.469-.289.752-.289h3.124c.257 0 .489.083.694.25.206.167.347.392.424.674.154.591.399 1.073.733 1.445.334.373.72.668 1.157.886.437.218.926.366 1.466.443.54.077 1.106.116 1.697.116 1.466 0 2.648-.398 3.548-1.195.9-.796 1.35-1.888 1.35-3.276 0-1.156-.45-2.12-1.35-2.89-.9-.771-2.083-1.169-3.548-1.195-.771 0-1.382.058-1.832.173-.45.116-.816.25-1.099.405-.283.154-.54.289-.771.405-.231.116-.527.173-.887.173h-3.548c-.283 0-.527-.103-.733-.308-.206-.206-.309-.45-.309-.732l1.157-13.064z"/><path d="M44.218 99.039c.378 0 .735.046 1.07.139.336.092.631.235.885.428.255.193.457.439.607.74.15.301.226.663.226 1.087 0 .624-.156 1.121-.469 1.491-.312.37-.712.632-1.198.786l1.747 3.041.035.127c0 .069-.025.129-.075.179-.05.05-.11.075-.179.075h-.498c-.154 0-.268-.039-.341-.116l-.156-.197-1.678-2.948h-1.99v2.948c0 .085-.031.158-.093.22s-.135.092-.22.092h-.474c-.085 0-.158-.031-.22-.092-.062-.062-.093-.135-.093-.22v-7.468c0-.085.031-.158.093-.22s.135-.092.22-.092h2.8zm-2.013 3.792h1.955c.555 0 .985-.11 1.29-.329.305-.22.457-.576.457-1.069s-.152-.842-.457-1.046c-.305-.204-.735-.306-1.29-.306h-1.955v2.752zm6.028.717c.031-.355.116-.686.255-.994.139-.308.32-.578.544-.809.224-.231.492-.412.804-.543.312-.131.661-.197 1.047-.197.417 0 .789.067 1.117.202.328.135.607.329.839.584.231.254.409.563.532.925.123.362.185.767.185 1.214v.312c0 .085-.031.158-.093.22s-.135.092-.22.092h-3.98v.069c.015.524.175.927.48 1.208.305.281.685.422 1.14.422.424 0 .742-.06.955-.179.212-.119.384-.252.515-.399l.162-.127.208-.035h.347c.085 0 .162.031.231.092.069.062.096.135.081.22-.023.139-.089.291-.197.457-.108.166-.264.32-.469.462-.204.143-.459.262-.764.358-.305.096-.661.145-1.07.145-.386 0-.733-.067-1.041-.202-.309-.135-.577-.32-.804-.555-.228-.235-.411-.513-.55-.832-.139-.32-.224-.669-.255-1.046-.039-.355-.039-.709 0-1.064zm1.03.035h3.251v-.035c0-.47-.148-.846-.445-1.127-.297-.281-.692-.422-1.186-.422-.224 0-.432.037-.625.11-.193.073-.363.177-.509.312-.147.135-.262.299-.347.491-.085.193-.131.405-.139.636v.035zm5.403.162c.023-.424.104-.805.243-1.145.139-.339.324-.626.555-.861.231-.235.503-.416.816-.543.312-.127.65-.191 1.012-.191.478 0 .86.083 1.145.249.285.166.501.345.648.538v-.358c0-.085.031-.158.093-.22s.135-.092.22-.092h.428c.085 0 .158.031.22.092.062.062.093.135.093.22v5.619c0 .802-.228 1.439-.683 1.913-.455.474-1.138.711-2.048.711-.463 0-.858-.056-1.186-.168-.328-.112-.598-.252-.81-.422-.212-.17-.37-.355-.474-.555-.104-.2-.16-.393-.168-.578-.008-.085.021-.158.087-.22.066-.062.141-.092.226-.092h.347c.085 0 .156.021.214.064.058.042.114.125.168.249l.11.191c.05.081.131.162.243.243.112.081.258.15.44.208.181.058.411.087.688.087.255 0 .492-.025.712-.075.22-.05.411-.133.573-.249.162-.116.287-.27.376-.462.089-.193.133-.428.133-.705v-.728c-.154.208-.374.391-.66.549-.285.158-.663.237-1.134.237-.363 0-.7-.064-1.012-.191-.312-.127-.584-.308-.816-.543-.231-.235-.417-.522-.555-.861-.139-.339-.22-.721-.243-1.145l-.012-.382.012-.382zm4.42-.035c-.023-.547-.187-.969-.492-1.266-.305-.297-.7-.445-1.186-.445-.509 0-.91.162-1.203.486-.293.324-.455.763-.486 1.318-.008.216-.008.432 0 .647.031.555.193.994.486 1.318.293.324.694.486 1.203.486.486 0 .881-.15 1.186-.451.305-.301.469-.721.492-1.26l.012-.416-.012-.416zm3.841 3.11c0 .085-.031.158-.093.22s-.135.092-.22.092h-.428c-.085 0-.158-.031-.22-.092-.062-.062-.093-.135-.093-.22v-5.387c0-.085.031-.158.093-.22s.135-.092.22-.092h.428c.085 0 .158.031.22.092.062.062.093.135.093.22v5.387zm.116-6.925c0 .085-.031.158-.093.22s-.135.092-.22.092h-.66c-.085 0-.158-.031-.22-.092-.062-.062-.093-.135-.093-.22v-.659c0-.085.031-.158.093-.22s.135-.092.22-.092h.66c.085 0 .158.031.22.092.062.062.093.135.093.22v.659zm4.084 1.11c.417 0 .787.064 1.111.191.324.127.602.303.833.526.231.224.415.495.55.815.135.32.218.669.249 1.046l.012.249v.601l-.012.237c-.039.385-.123.736-.255 1.052-.131.316-.312.586-.544.809-.231.224-.509.399-.833.526-.324.127-.694.191-1.111.191-.417 0-.787-.064-1.111-.191-.324-.127-.602-.303-.833-.526-.231-.224-.415-.493-.55-.809-.135-.316-.218-.667-.249-1.052l-.017-.237-.006-.301.006-.301.017-.249c.031-.378.114-.726.249-1.046.135-.32.318-.592.55-.815.231-.224.509-.399.833-.526.324-.127.694-.191 1.111-.191zm1.689 3.607c.015-.131.023-.291.023-.48s-.008-.353-.023-.491c-.023-.231-.073-.447-.15-.647s-.185-.374-.324-.52c-.139-.146-.309-.262-.509-.347-.201-.085-.436-.127-.706-.127-.27 0-.505.042-.706.127-.201.085-.37.2-.509.347-.139.146-.247.32-.324.52-.077.2-.127.416-.15.647-.015.139-.023.303-.023.491 0 .189.008.349.023.48.023.231.073.447.15.647s.185.374.324.52c.139.146.309.262.509.347.201.085.436.127.706.127.27 0 .505-.042.706-.127.201-.085.37-.2.509-.347.139-.146.247-.32.324-.52.077-.2.127-.416.15-.647zm7.868 2.208c0 .085-.031.158-.093.22s-.135.092-.22.092h-.428c-.085 0-.158-.031-.22-.092-.062-.062-.093-.135-.093-.22v-3.052c0-.593-.143-1.037-.428-1.33-.285-.293-.683-.439-1.192-.439-.486 0-.877.146-1.174.439-.297.293-.445.736-.445 1.33v3.052c0 .085-.031.158-.093.22s-.135.092-.22.092h-.428c-.085 0-.158-.031-.22-.092-.062-.062-.093-.135-.093-.22v-5.387c0-.085.031-.158.093-.22s.135-.092.22-.092h.428c.085 0 .158.031.22.092.062.062.093.135.093.22v.358c.147-.193.364-.372.654-.538.289-.166.669-.249 1.14-.249.363 0 .698.06 1.007.179.309.119.573.289.793.509.22.22.391.491.515.815.123.324.185.686.185 1.087v3.226zm1.25-1.202c0-.308.062-.578.185-.809.123-.231.293-.428.509-.59.216-.162.469-.293.758-.393.289-.1.596-.177.92-.231l1.631-.266v-.15c0-.393-.129-.688-.388-.884-.258-.197-.58-.295-.966-.295-.339 0-.596.062-.769.185-.174.123-.322.27-.445.439l-.15.127-.22.035h-.347c-.085 0-.16-.031-.226-.092-.066-.062-.094-.135-.087-.22.015-.17.083-.343.202-.52.12-.177.282-.335.486-.474.204-.139.44-.252.706-.341.266-.089.55-.133.85-.133.347 0 .669.05.966.15.297.1.552.247.764.439.212.193.378.432.498.717s.179.613.179.983v3.526c0 .085-.031.158-.093.22s-.135.092-.22.092h-.428c-.085 0-.158-.031-.22-.092-.062-.062-.093-.135-.093-.22v-.474c-.069.146-.177.276-.324.387-.147.112-.314.206-.503.283-.189.077-.386.135-.59.173-.204.039-.395.058-.573.058-.301 0-.577-.042-.827-.127-.251-.085-.463-.198-.636-.341-.174-.143-.309-.314-.405-.514-.096-.2-.145-.416-.145-.647zm2.129.636c.278 0 .532-.042.764-.127.231-.085.43-.202.596-.353.166-.15.293-.329.382-.538.089-.208.133-.439.133-.694v-.289l-1.365.22c-.486.077-.872.2-1.157.37-.285.17-.428.389-.428.659 0 .085.019.17.058.254.039.085.1.166.185.243.085.077.195.139.33.185.135.046.303.069.503.069zm5.67.566c0 .085-.031.158-.093.22s-.135.092-.22.092h-.428c-.085 0-.158-.031-.22-.092-.062-.062-.093-.135-.093-.22v-7.584c0-.085.031-.158.093-.22s.135-.092.22-.092h.428c.085 0 .158.031.22.092.062.062.093.135.093.22v7.584zm8.47-5.989c.139 0 .235.042.289.127l.104.208 1.273 4.578 1.18-6.393c.023-.116.069-.197.139-.243.069-.046.143-.069.22-.069h.463c.069 0 .129.025.179.075.05.05.075.11.075.179l-.012.092-1.423 7.145c-.039.193-.096.341-.174.445-.077.104-.208.156-.393.156h-.463c-.177 0-.309-.056-.393-.168-.085-.112-.15-.256-.197-.434l-1.064-3.861-1.064 3.861c-.046.177-.112.322-.197.434-.085.112-.216.168-.393.168h-.463c-.185 0-.316-.052-.393-.156-.077-.104-.135-.252-.174-.445l-1.423-7.145-.012-.092c0-.069.025-.129.075-.179.05-.05.11-.075.179-.075h.463c.077 0 .15.023.22.069.069.046.116.127.139.243l1.18 6.393 1.273-4.578.104-.208c.054-.085.15-.127.289-.127h.393zm6.306 5.989c0 .085-.031.158-.093.22s-.135.092-.22.092h-.428c-.085 0-.158-.031-.22-.092-.062-.062-.093-.135-.093-.22v-5.387c0-.085.031-.158.093-.22s.135-.092.22-.092h.428c.085 0 .158.031.22.092.062.062.093.135.093.22v5.387zm.116-6.925c0 .085-.031.158-.093.22s-.135.092-.22.092h-.66c-.085 0-.158-.031-.22-.092-.062-.062-.093-.135-.093-.22v-.659c0-.085.031-.158.093-.22s.135-.092.22-.092h.66c.085 0 .158.031.22.092.062.062.093.135.093.22v.659zm6.965 6.925c0 .085-.031.158-.093.22s-.135.092-.22.092h-.428c-.085 0-.158-.031-.22-.092-.062-.062-.093-.135-.093-.22v-3.052c0-.593-.143-1.037-.428-1.33-.285-.293-.683-.439-1.192-.439-.486 0-.877.146-1.174.439-.297.293-.445.736-.445 1.33v3.052c0 .085-.031.158-.093.22s-.135.092-.22.092h-.428c-.085 0-.158-.031-.22-.092-.062-.062-.093-.135-.093-.22v-5.387c0-.085.031-.158.093-.22s.135-.092.22-.092h.428c.085 0 .158.031.22.092.062.062.093.135.093.22v.358c.147-.193.364-.372.654-.538.289-.166.669-.249 1.14-.249.363 0 .698.06 1.007.179.309.119.573.289.793.509.22.22.391.491.515.815.123.324.185.686.185 1.087v3.226zm7.023 0c0 .085-.031.158-.093.22s-.135.092-.22.092h-.428c-.085 0-.158-.031-.22-.092-.062-.062-.093-.135-.093-.22v-3.052c0-.593-.143-1.037-.428-1.33-.285-.293-.683-.439-1.192-.439-.486 0-.877.146-1.174.439-.297.293-.445.736-.445 1.33v3.052c0 .085-.031.158-.093.22s-.135.092-.22.092h-.428c-.085 0-.158-.031-.22-.092-.062-.062-.093-.135-.093-.22v-5.387c0-.085.031-.158.093-.22s.135-.092.22-.092h.428c.085 0 .158.031.22.092.062.062.093.135.093.22v.358c.147-.193.364-.372.654-.538.289-.166.669-.249 1.14-.249.363 0 .698.06 1.007.179.309.119.573.289.793.509.22.22.391.491.515.815.123.324.185.686.185 1.087v3.226zm1.4-3.272c.031-.355.116-.686.255-.994.139-.308.32-.578.544-.809.224-.231.492-.412.804-.543.312-.131.661-.197 1.047-.197.417 0 .789.067 1.117.202.328.135.607.329.839.584.231.254.409.563.532.925.123.362.185.767.185 1.214v.312c0 .085-.031.158-.093.22s-.135.092-.22.092h-3.98v.069c.015.524.175.927.48 1.208.305.281.685.422 1.14.422.424 0 .742-.06.955-.179.212-.119.384-.252.515-.399l.162-.127.208-.035h.347c.085 0 .162.031.231.092.069.062.096.135.081.22-.023.139-.089.291-.197.457-.108.166-.264.32-.469.462-.204.143-.459.262-.764.358-.305.096-.661.145-1.07.145-.386 0-.733-.067-1.041-.202-.309-.135-.577-.32-.804-.555-.228-.235-.411-.513-.55-.832-.139-.32-.224-.669-.255-1.046-.039-.355-.039-.709 0-1.064zm1.03.035h3.251v-.035c0-.47-.148-.846-.445-1.127-.297-.281-.692-.422-1.186-.422-.224 0-.432.037-.625.11-.193.073-.363.177-.509.312-.147.135-.262.299-.347.491-.085.193-.131.405-.139.636v.035zm8.747-2.462c.085 0 .158.031.22.092.062.062.093.135.093.22v.37c0 .085-.031.158-.093.22s-.135.092-.22.092h-.671c-.887 0-1.331.443-1.331 1.33v3.376c0 .085-.031.158-.093.22s-.135.092-.22.092h-.428c-.085 0-.158-.031-.22-.092-.062-.062-.093-.135-.093-.22v-5.387c0-.085.031-.158.093-.22s.135-.092.22-.092h.428c.085 0 .158.031.22.092.062.062.093.135.093.22v.358c.154-.231.339-.401.555-.509.216-.108.498-.162.845-.162h.602z"/></g></svg>