<svg xmlns="http://www.w3.org/2000/svg" viewBox="0 0 100 100" enable-background="new 0 0 100 100"><style type="text/css" id="dark-mode-custom-style"/><style type="text/css">.st0{fill:#FFFFFF;} .st1{fill-rule:evenodd;clip-rule:evenodd;fill:#FFFFFF;}</style><path class="st0" d="M1.8 48.2l23 8.6 8.9 28.7c.6 1.8 2.8 2.5 4.3 1.3l12.8-10.5c1.3-1.1 3.3-1.2 4.7-.1l23.2 16.8c1.6 1.2 3.9.3 4.3-1.6l17-81.6c.4-2.1-1.6-3.9-3.6-3.1l-94.7 36.4c-2.3.9-2.3 4.2.1 5.1zm30.5 4l45-27.7c.8-.5 1.6.6.9 1.2l-37.1 34.6c-1.3 1.2-2.1 2.8-2.4 4.6l-1.3 9.4c-.2 1.3-1.9 1.4-2.3.2l-4.9-17.1c-.4-2 .4-4.1 2.1-5.2zm0 0"/></svg>