<svg width="167" height="158" viewBox="0 0 167 158" xmlns="http://www.w3.org/2000/svg"><title>world-tourism-forum-2015</title><desc>Created with Sketch.</desc><g fill="#A0B0B1"><path d="M161.27 95.365c4.086-2.096 5.361-7.32 5.361-7.32s-6.312-.604-10.114 2.174c-1.191.874-2.292 2.397-3.147 3.83.647-2.924 1.082-5.913 1.295-8.952 1.482-.239 4.829-1.035 8.154-3.533 3.567-2.678 3.849-7.925 3.849-7.925s-6.199.43-9.363 3.72c-1.024 1.066-1.824 2.78-2.394 4.337.16-3.212.054-6.395-.28-9.524 1.406-.481 4.46-1.787 7.194-4.706 2.955-3.152 2.282-8.261 2.282-8.261s-5.909 1.407-8.366 5.087c-.81 1.215-1.273 3.041-1.541 4.656-.513-3.246-1.263-6.426-2.224-9.51 1.187-.625 4.041-2.379 6.239-5.77 2.287-3.517.711-8.339.711-8.339s-5.449 2.302-7.158 6.248c-.633 1.471-.703 3.623-.622 5.347-1.166-3.307-2.569-6.491-4.153-9.53.973-.728 3.52-2.897 5.079-6.643 1.565-3.759-.826-8.163-.826-8.163s-4.838 3.094-5.774 7.177c-.374 1.646.037 3.967.463 5.668-1.816-3.244-3.838-6.298-6.007-9.116.819-.876 2.86-3.369 3.681-7.204.83-3.88-2.272-7.747-2.272-7.747s-4.115 3.761-4.277 7.851c-.063 1.609.71 3.712 1.418 5.276-2.377-2.888-4.898-5.501-7.498-7.773.629-.969 2.154-3.707 2.255-7.553.1-3.878-3.597-7.112-3.597-7.112s-3.288 4.288-2.702 8.26c.241 1.644 1.474 3.667 2.469 5.078-.928-.755-1.861-1.47-2.799-2.134-2.112-1.604-4.193-3.016-6.217-4.273.369-.833 1.531-3.855.891-7.828-.606-3.758-4.759-6.288-4.759-6.288s-2.402 4.663-1.116 8.406c.607 1.774 2.564 3.818 3.808 4.993-3.783-2.259-7.321-3.941-10.419-5.2.192-.77.824-3.935-.545-7.762-1.262-3.529-5.731-5.306-5.731-5.306s-1.466 4.885.449 8.291c.968 1.725 3.484 3.504 4.855 4.39-2.127-.829-4.016-1.448-5.597-1.916-.477-.566-2.804-3.17-5.649-3.628-2.277-.363-6.101 1.015-6.101 1.015s1.834 2.349 5.538 3.546c2.484.802 5.227-.312 6.052-.694 1.921.624 4.314 1.484 7.03 2.673-1.593-.258-4.843-.654-6.877-.029-3.888 1.198-6.439 5.675-6.439 5.675s4.526 1.637 8.041-.082c3.76-1.831 5.636-4.47 6.101-5.196 3.047 1.376 6.473 3.167 10.081 5.487-1.672-.531-4.425-1.257-6.358-.997-4.133.556-7.54 4.629-7.54 4.629s4.242 2.399 8.097 1.259c3.913-1.153 6.265-3.321 7.012-4.099 1.598 1.069 3.227 2.237 4.877 3.527 1.468 1.075 2.926 2.264 4.36 3.558-1.572-.815-4.253-2.038-6.277-2.1-4.26-.132-8.448 3.396-8.448 3.396s3.811 3.116 7.901 2.613c4.188-.513 6.97-2.328 7.838-2.968 2.587 2.444 5.076 5.223 7.39 8.278-1.455-1.067-3.665-2.492-5.504-2.854-4.258-.843-9.128 2.002-9.128 2.002s3.24 3.768 7.442 3.944c4.121.176 7.168-1.063 8.291-1.606 2.014 2.804 3.878 5.816 5.536 9.002-1.253-1.261-2.999-2.787-4.605-3.391-4.118-1.556-9.552.492-9.552.492s2.547 4.325 6.737 5.202c3.94.83 7.137.183 8.478-.188 1.491 3.102 2.787 6.35 3.836 9.708-1.023-1.471-2.482-3.276-3.973-4.148-3.842-2.251-9.689-1.098-9.689-1.098s1.744 4.772 5.789 6.352c3.805 1.489 7.14 1.373 8.559 1.224.923 3.363 1.589 6.827 1.966 10.352-.75-1.672-1.906-3.831-3.284-4.993-3.44-2.9-9.534-2.715-9.534-2.715s.855 5.083 4.624 7.347c3.567 2.146 6.962 2.575 8.399 2.657.224 3.276.192 6.6-.138 9.943-.45-1.74-1.176-3.859-2.254-5.149-2.912-3.491-9.069-4.32-9.069-4.32s-.1 5.251 3.262 8.154c3.094 2.676 6.329 3.693 7.815 4.041-.347 3.21-.958 6.354-1.788 9.411-.127-1.814-.46-4.034-1.294-5.497-2.266-3.992-8.298-5.851-8.298-5.851s-1.091 5.262 1.739 8.735c2.574 3.164 5.586 4.724 7.038 5.341-.946 2.95-2.095 5.815-3.418 8.575.186-1.777.23-3.886-.298-5.396-1.529-4.39-7.237-7.262-7.237-7.262s-2.087 5.104.103 9.068c1.947 3.529 4.601 5.585 5.971 6.481-1.438 2.683-3.034 5.255-4.758 7.696.486-1.702.871-3.682.639-5.209-.708-4.664-5.902-8.503-5.902-8.503s-3.063 4.782-1.609 9.131c1.272 3.815 3.508 6.31 4.734 7.458-1.979 2.537-4.081 4.915-6.274 7.101.853-1.681 1.695-3.73 1.753-5.388.165-4.804-4.335-9.527-4.335-9.527s-3.97 4.295-3.33 8.905c.573 4.139 2.417 7.056 3.416 8.376-2.461 2.23-5.004 4.229-7.578 5.96 1.196-1.56 2.469-3.522 2.842-5.207 1.07-4.801-2.559-10.298-2.559-10.298s-4.802 3.653-5.029 8.396c-.202 4.223 1.086 7.444 1.842 8.951-.989.584-1.977 1.132-2.965 1.634-1.792.987-3.542 1.859-5.251 2.641 1.409-1.321 2.882-2.952 3.529-4.469 1.979-4.65-.63-10.778-.63-10.778s-5.516 2.872-6.637 7.598c-.978 4.119-.34 7.518.135 9.2-3.133 1.257-6.054 2.201-8.681 2.911 1.643-1.087 3.395-2.459 4.318-3.858 2.867-4.342 1.397-10.935 1.397-10.935s-6.081 1.965-8.099 6.53c-1.744 3.948-1.759 7.444-1.604 9.227-4.3.916-7.31.888-8.59 1.014-1.331.114-3.656.22-6.332-.076-1.528-.174-4.243-.164-7.877-.938.155-1.783.143-5.279-1.604-9.227-2.016-4.564-8.098-6.53-8.098-6.53s-1.471 6.593 1.393 10.935c.923 1.399 2.677 2.771 4.321 3.858-2.627-.71-5.549-1.654-8.681-2.911.475-1.682 1.113-5.081.135-9.2-1.121-4.726-6.638-7.598-6.638-7.598s-2.609 6.128-.631 10.778c.648 1.516 2.122 3.148 3.53 4.469-1.709-.782-3.462-1.654-5.254-2.641-.985-.502-1.974-1.05-2.962-1.634.757-1.507 2.044-4.728 1.841-8.951-.225-4.743-5.029-8.396-5.029-8.396s-3.63 5.497-2.559 10.298c.375 1.685 1.646 3.647 2.841 5.209-2.572-1.733-5.116-3.731-7.577-5.962.998-1.32 2.844-4.237 3.414-8.376.643-4.61-3.332-8.905-3.332-8.905s-4.496 4.723-4.334 9.527c.058 1.658.901 3.709 1.754 5.389-2.194-2.186-4.295-4.565-6.271-7.1 1.223-1.15 3.459-3.644 4.73-7.46 1.453-4.349-1.606-9.131-1.606-9.131s-5.196 3.839-5.904 8.503c-.232 1.527.153 3.507.638 5.209-1.721-2.441-3.316-5.012-4.758-7.696 1.37-.896 4.028-2.952 5.971-6.481 2.189-3.964.103-9.068.103-9.068s-5.709 2.873-7.238 7.262c-.526 1.511-.483 3.619-.298 5.396-1.324-2.76-2.472-5.625-3.418-8.575 1.451-.617 4.463-2.177 7.038-5.341 2.829-3.473 1.741-8.735 1.741-8.735s-6.032 1.859-8.298 5.851c-.835 1.462-1.166 3.683-1.293 5.497-.833-3.057-1.444-6.201-1.791-9.411 1.486-.349 4.721-1.365 7.815-4.041 3.362-2.903 3.262-8.154 3.262-8.154s-6.157.829-9.066 4.32c-1.081 1.291-1.805 3.409-2.256 5.147-.331-3.34-.363-6.664-.135-9.94 1.436-.082 4.828-.512 8.395-2.657 3.768-2.264 4.624-7.347 4.624-7.347s-6.095-.185-9.534 2.715c-1.378 1.162-2.534 3.32-3.285 4.993.378-3.525 1.044-6.988 1.967-10.352 1.419.148 4.753.265 8.558-1.224 4.046-1.581 5.792-6.352 5.792-6.352s-5.849-1.153-9.695 1.098c-1.488.871-2.946 2.675-3.97 4.145 1.051-3.357 2.344-6.603 3.835-9.705 1.344.371 4.538 1.018 8.478.188 4.192-.877 6.737-5.202 6.737-5.202s-5.432-2.049-9.554-.492c-1.604.605-3.35 2.13-4.603 3.389 1.658-3.184 3.522-6.196 5.536-8.999 1.125.543 4.17 1.782 8.29 1.606 4.203-.176 7.443-3.944 7.443-3.944s-4.871-2.846-9.129-2.002c-1.836.362-4.045 1.786-5.504 2.854 2.314-3.056 4.804-5.834 7.39-8.277.868.639 3.65 2.454 7.837 2.967 4.091.503 7.903-2.613 7.903-2.613s-4.19-3.528-8.453-3.396c-2.019.062-4.701 1.284-6.272 2.1 1.432-1.294 2.89-2.483 4.361-3.558 1.646-1.29 3.275-2.457 4.875-3.527.749.778 3.1 2.946 7.013 4.099 3.852 1.14 8.095-1.259 8.095-1.259s-3.407-4.073-7.543-4.629c-1.929-.26-4.683.464-6.357.997 3.612-2.32 7.035-4.11 10.082-5.486.466.726 2.342 3.364 6.102 5.196 3.515 1.719 8.041.082 8.041.082s-2.552-4.476-6.44-5.675c-2.031-.625-5.281-.229-6.875.029 2.717-1.189 5.106-2.049 7.027-2.673.828.382 3.57 1.496 6.052.694 3.705-1.197 5.539-3.546 5.539-3.546s-3.825-1.378-6.099-1.015c-2.847.459-5.173 3.062-5.651 3.628-1.581.468-3.47 1.088-5.596 1.916 1.371-.884 3.885-2.664 4.856-4.39 1.917-3.406.448-8.291.448-8.291s-4.468 1.777-5.732 5.306c-1.368 3.827-.735 6.992-.545 7.762-3.095 1.259-6.635 2.941-10.415 5.198 1.241-1.172 3.2-3.217 3.805-4.99 1.286-3.742-1.113-8.406-1.113-8.406s-4.153 2.53-4.758 6.288c-.64 3.973.518 6.994.888 7.828-2.024 1.257-4.105 2.669-6.216 4.273-.939.664-1.872 1.38-2.8 2.134.995-1.411 2.229-3.434 2.472-5.078.585-3.972-2.702-8.26-2.702-8.26s-3.699 3.234-3.6 7.112c.1 3.846 1.626 6.584 2.254 7.553-2.599 2.272-5.123 4.885-7.495 7.773.706-1.565 1.479-3.668 1.416-5.276-.162-4.09-4.278-7.851-4.278-7.851s-3.104 3.866-2.271 7.747c.821 3.835 2.862 6.328 3.68 7.204-2.169 2.817-4.19 5.869-6.007 9.115.427-1.702.84-4.021.463-5.667-.933-4.083-5.774-7.177-5.774-7.177s-2.391 4.404-.825 8.163c1.559 3.746 4.105 5.915 5.078 6.643-1.584 3.039-2.987 6.223-4.153 9.53.08-1.723.01-3.876-.625-5.347-1.707-3.946-7.155-6.248-7.155-6.248s-1.574 4.822.71 8.339c2.199 3.392 5.051 5.145 6.242 5.77-.964 3.084-1.714 6.263-2.227 9.507-.267-1.614-.73-3.44-1.541-4.654-2.457-3.68-8.366-5.087-8.366-5.087s-.673 5.11 2.282 8.261c2.734 2.919 5.789 4.225 7.192 4.706-.332 3.13-.435 6.311-.278 9.524-.57-1.556-1.37-3.273-2.394-4.337-3.165-3.29-9.364-3.72-9.364-3.72s.283 5.248 3.848 7.925c3.325 2.498 6.674 3.293 8.155 3.533.213 3.039.651 6.028 1.296 8.952-.855-1.432-1.956-2.955-3.147-3.83-3.802-2.778-10.114-2.174-10.114-2.174s1.275 5.224 5.363 7.32c3.753 1.926 7.213 2.187 8.786 2.191.826 2.938 1.852 5.801 3.05 8.572-1.138-1.311-2.549-2.693-3.932-3.383-4.345-2.16-10.572-.499-10.572-.499s2.264 5.037 6.765 6.463c4.157 1.315 7.698.992 9.266.735 1.376 2.788 2.924 5.467 4.606 8.022-1.407-1.151-3.115-2.333-4.661-2.801-4.769-1.447-10.717 1.259-10.717 1.259s3.227 4.683 8.018 5.365c4.431.63 7.933-.288 9.457-.807 1.781 2.443 3.68 4.752 5.671 6.91-1.536-.834-3.284-1.607-4.786-1.802-5.066-.658-10.535 3.052-10.535 3.052s4.125 4.169 9.069 4.057c4.403-.102 7.665-1.501 9.182-2.299 2.114 2.055 4.303 3.942 6.532 5.638-1.581-.516-3.294-.913-4.706-.865-5.213.182-10.012 4.822-10.012 4.822s4.931 3.503 9.88 2.565c4.325-.821 7.31-2.715 8.716-3.783 1.579 1.023 3.16 1.953 4.741 2.772 1.001.561 1.989 1.088 2.967 1.583-1.744-.273-3.63-.414-5.101-.117-5.204 1.052-9.151 6.511-9.151 6.511s5.616 2.701 10.413.933c4.253-1.568 6.912-4.022 8.098-5.312 2.882 1.267 5.616 2.277 8.14 3.077-1.778.021-3.657.198-5.053.732-5.034 1.925-7.971 8.071-7.971 8.071s6.152 1.775 10.638-.801c3.957-2.269 6.164-5.155 7.122-6.659l.678.166c2.723.633 13.301 2.75 24.498.501.896-.195 1.847-.415 2.857-.667.958 1.503 3.165 4.389 7.122 6.659 4.486 2.576 10.637.801 10.637.801s-2.937-6.147-7.97-8.071c-1.396-.534-3.275-.711-5.053-.732 2.524-.8 5.258-1.81 8.14-3.077 1.186 1.291 3.845 3.745 8.098 5.312 4.796 1.767 10.412-.933 10.412-.933s-3.948-5.459-9.151-6.511c-1.471-.297-3.355-.156-5.104.117.981-.496 1.969-1.022 2.97-1.583 1.578-.82 3.165-1.749 4.738-2.772 1.406 1.065 4.393 2.962 8.718 3.783 4.949.938 9.88-2.565 9.88-2.565s-4.796-4.64-10.012-4.822c-1.411-.049-3.125.349-4.706.865 2.229-1.696 4.418-3.583 6.535-5.638 1.513.798 4.776 2.198 9.18 2.299 4.943.112 9.069-4.057 9.069-4.057s-5.469-3.71-10.535-3.052c-1.501.195-3.25.968-4.786 1.802 1.991-2.158 3.89-4.466 5.671-6.91 1.523.519 5.023 1.438 9.457.807 4.794-.682 8.02-5.365 8.02-5.365s-5.949-2.706-10.72-1.259c-1.548.468-3.254 1.651-4.661 2.801 1.682-2.555 3.227-5.234 4.606-8.022 1.569.257 5.108.58 9.264-.735 4.504-1.426 6.767-6.463 6.767-6.463s-6.23-1.661-10.572.499c-1.384.69-2.794 2.071-3.933 3.383 1.196-2.771 2.224-5.633 3.05-8.572 1.573-.004 5.034-.265 8.789-2.191"/><g><path d="M41.697 66.461l.569-2.962c.018-.088.053-.149.107-.184l.169-.053h1.165l.138.057.058.136-.009.07-1.148 5.538c-.012.082-.059.158-.142.228-.083.07-.184.105-.302.105h-.738c-.119 0-.215-.035-.289-.105-.074-.07-.126-.146-.156-.228l-.667-1.98-.667 1.98c-.03.082-.082.158-.156.228s-.171.105-.289.105h-.738c-.119 0-.219-.035-.302-.105-.083-.07-.13-.146-.142-.228l-1.148-5.538-.009-.07.058-.136.138-.057h1.165l.169.053c.053.035.089.096.107.184l.569 2.962.525-1.586.08-.158c.042-.064.116-.096.222-.096h.836c.107 0 .181.032.222.096l.08.158.525 1.586zm7.615.324l.009.337-.009.337c-.012.28-.077.543-.196.789-.119.245-.282.46-.489.644-.208.184-.458.329-.752.434-.294.105-.621.158-.983.158s-.689-.053-.983-.158c-.294-.105-.544-.25-.752-.434-.208-.184-.371-.399-.489-.644-.119-.245-.184-.508-.196-.789l-.009-.337.009-.337c.006-.28.068-.543.187-.789.119-.245.283-.46.494-.644.211-.184.463-.33.756-.438.294-.108.621-.162.983-.162s.689.054.983.162c.294.108.546.254.756.438.211.184.374.399.489.644.116.245.179.508.191.789zm-3.238.631c.018.222.099.396.245.521.145.126.337.188.574.188.237 0 .429-.063.574-.188.145-.126.227-.299.245-.521l.018-.298-.018-.298c-.018-.222-.099-.396-.245-.521-.145-.126-.337-.188-.574-.188-.237 0-.429.063-.574.188-.145.126-.227.299-.245.521l-.018.298.018.298zm7.304-2.576c.065 0 .122.023.169.07.047.047.071.102.071.166v.885c0 .064-.024.12-.071.166-.047.047-.104.07-.169.07h-.81c-.546 0-.818.269-.818.806v2.156c0 .064-.024.12-.071.166-.047.047-.104.07-.169.07h-1.121c-.065 0-.122-.023-.169-.07-.047-.047-.071-.102-.071-.166v-4.084c0-.064.024-.12.071-.166.047-.047.104-.07.169-.07h1.032c.065 0 .122.023.169.07.047.047.071.102.071.166v.202c.136-.129.301-.234.494-.315.193-.082.423-.123.689-.123h.534zm2.455 4.32c0 .064-.024.12-.071.166-.047.047-.104.07-.169.07h-1.121c-.065 0-.122-.023-.169-.07-.047-.047-.071-.102-.071-.166v-5.748c0-.064.024-.12.071-.166.047-.047.104-.07.169-.07h1.121c.065 0 .122.023.169.07.047.047.071.102.071.166v5.748zm2.847-4.408c.172 0 .323.018.454.053.13.035.243.079.338.131l.24.171.16.171v-1.866c0-.064.024-.12.071-.166.047-.047.104-.07.169-.07h1.121c.065 0 .122.023.169.07.047.047.071.102.071.166v5.748c0 .064-.024.12-.071.166-.047.047-.104.07-.169.07h-1.076c-.065 0-.122-.023-.169-.07-.047-.047-.071-.102-.071-.166v-.202l-.173.188c-.062.061-.139.117-.231.166-.092.05-.205.091-.338.123-.133.032-.298.048-.494.048-.267 0-.519-.039-.756-.118-.237-.079-.445-.202-.623-.368-.178-.166-.322-.375-.431-.627-.11-.251-.171-.549-.182-.894l-.009-.355.009-.355c.012-.345.073-.643.182-.894.11-.251.254-.46.431-.627.178-.166.386-.291.623-.372.237-.082.489-.123.756-.123zm-.4 2.121c-.018.164-.018.327 0 .491.018.204.086.383.205.535.119.152.317.228.596.228.13 0 .243-.02.338-.061.095-.041.173-.095.236-.162.062-.067.111-.142.147-.223l.071-.254.018-.307-.018-.307-.071-.254c-.036-.082-.085-.156-.147-.223-.062-.067-.141-.121-.236-.162-.095-.041-.208-.061-.338-.061-.279 0-.477.076-.596.228-.119.152-.187.33-.205.535zm10.791-3.61c.065 0 .122.023.169.07.047.047.071.102.071.166v.929c0 .064-.024.12-.071.166-.047.047-.104.07-.169.07h-1.566v4.495c0 .064-.024.12-.071.166-.047.047-.104.07-.169.07h-1.165c-.065 0-.122-.023-.169-.07-.047-.047-.071-.102-.071-.166v-4.495h-1.566c-.065 0-.122-.023-.169-.07-.047-.047-.071-.102-.071-.166v-.929c0-.064.024-.12.071-.166.047-.047.104-.07.169-.07h4.777zm5.578 3.523l.009.337-.009.337c-.012.28-.077.543-.196.789-.119.245-.282.46-.489.644-.208.184-.458.329-.752.434-.294.105-.621.158-.983.158s-.689-.053-.983-.158c-.294-.105-.544-.25-.752-.434-.208-.184-.371-.399-.489-.644-.119-.245-.184-.508-.196-.789l-.009-.337.009-.337c.006-.28.068-.543.187-.789.119-.245.283-.46.494-.644.211-.184.463-.33.756-.438.294-.108.621-.162.983-.162s.689.054.983.162c.294.108.546.254.756.438.211.184.374.399.489.644.116.245.179.508.191.789zm-3.238.631c.018.222.099.396.245.521.145.126.337.188.574.188.237 0 .429-.063.574-.188.145-.126.227-.299.245-.521l.018-.298-.018-.298c-.018-.222-.099-.396-.245-.521-.145-.126-.337-.188-.574-.188-.237 0-.429.063-.574.188-.145.126-.227.299-.245.521l-.018.298.018.298zm4.03-2.34c0-.064.024-.12.071-.166.047-.047.104-.07.169-.07h1.121c.065 0 .122.023.169.07.047.047.071.102.071.166v2.217c0 .251.056.453.169.605.113.152.3.228.56.228.261 0 .446-.076.556-.228.11-.152.165-.353.165-.605v-2.217c0-.064.024-.12.071-.166.047-.047.104-.07.169-.07h1.121c.065 0 .122.023.169.07.047.047.071.102.071.166v4.084c0 .064-.024.12-.071.166-.047.047-.104.07-.169.07h-1.032c-.065 0-.122-.023-.169-.07-.047-.047-.071-.102-.071-.166v-.202l-.173.188c-.068.061-.153.117-.254.166-.101.05-.218.091-.351.123-.133.032-.292.048-.476.048-.575 0-1.033-.161-1.375-.482-.341-.321-.512-.827-.512-1.516v-2.41zm8.914-.237c.065 0 .122.023.169.07.047.047.071.102.071.166v.885c0 .064-.024.12-.071.166-.047.047-.104.07-.169.07h-.81c-.546 0-.818.269-.818.806v2.156c0 .064-.024.12-.071.166-.047.047-.104.07-.169.07h-1.121c-.065 0-.122-.023-.169-.07-.047-.047-.071-.102-.071-.166v-4.084c0-.064.024-.12.071-.166.047-.047.104-.07.169-.07h1.032c.065 0 .122.023.169.07.047.047.071.102.071.166v.202c.136-.129.301-.234.494-.315.193-.082.423-.123.689-.123h.534zm2.455 4.32c0 .064-.024.12-.071.166-.047.047-.104.07-.169.07h-1.121c-.065 0-.122-.023-.169-.07-.047-.047-.071-.102-.071-.166v-4.084c0-.064.024-.12.071-.166.047-.047.104-.07.169-.07h1.121c.065 0 .122.023.169.07.047.047.071.102.071.166v4.084zm0-5.039c0 .064-.024.12-.071.166-.047.047-.104.07-.169.07h-1.121c-.065 0-.122-.023-.169-.07-.047-.047-.071-.102-.071-.166v-.885c0-.064.024-.12.071-.166.047-.047.104-.07.169-.07h1.121c.065 0 .122.023.169.07.047.047.071.102.071.166v.885zm3.648 3.908c0-.064-.022-.114-.067-.149-.044-.035-.12-.064-.227-.088l-.423-.07-.654-.105c-.451-.082-.798-.245-1.041-.491-.243-.245-.365-.567-.365-.964 0-.199.05-.383.151-.552.101-.169.242-.318.423-.447s.399-.229.654-.302c.255-.073.54-.11.854-.11.308 0 .593.037.854.11.261.073.486.166.676.28.19.114.34.245.449.394.11.149.171.296.182.443.006.064-.016.12-.067.166-.05.047-.108.07-.173.07h-1.059l-.156-.044-.138-.096-.209-.096c-.086-.029-.206-.044-.36-.044-.136 0-.251.019-.343.057-.092.038-.138.101-.138.188l.044.149c.03.035.089.063.178.083l.374.066.632.096c.54.088.933.267 1.179.539s.369.583.369.933c0 .199-.05.384-.151.556-.101.172-.249.324-.445.456-.196.131-.433.235-.712.311-.279.076-.596.114-.952.114s-.669-.039-.939-.118c-.27-.079-.497-.18-.681-.302-.184-.123-.325-.257-.423-.403-.098-.146-.153-.289-.165-.429-.006-.064.016-.12.067-.166.05-.047.108-.07.173-.07h1.103l.142.048.116.105.205.105c.089.032.222.048.4.048.178 0 .332-.023.463-.07.13-.047.196-.114.196-.202zm9.679 1.13c0 .064-.024.12-.071.166-.047.047-.104.07-.169.07h-1.076c-.065 0-.122-.023-.169-.07-.047-.047-.071-.102-.071-.166v-2.243c0-.292-.055-.499-.165-.622-.11-.123-.271-.184-.485-.184-.208 0-.366.061-.476.184-.11.123-.165.33-.165.622v2.243c0 .064-.024.12-.071.166-.047.047-.104.07-.169.07h-1.076c-.065 0-.122-.023-.169-.07-.047-.047-.071-.102-.071-.166v-2.243c0-.292-.055-.499-.165-.622-.11-.123-.271-.184-.485-.184-.208 0-.366.06-.476.18-.11.12-.165.32-.165.6v2.27c0 .064-.024.12-.071.166-.047.047-.104.07-.169.07h-1.121c-.065 0-.122-.023-.169-.07-.047-.047-.071-.102-.071-.166v-4.084c0-.064.024-.12.071-.166.047-.047.104-.07.169-.07h1.076c.065 0 .122.023.169.07.047.047.071.102.071.166v.202c.13-.164.289-.292.476-.386.187-.093.405-.14.654-.14.302 0 .577.055.823.166.246.111.446.283.601.517.172-.222.381-.391.627-.508.246-.117.512-.175.796-.175.255 0 .491.039.707.118.216.079.403.2.56.364.157.164.279.371.365.622.086.251.129.549.129.894v2.41zm7.286-5.897c.065 0 .122.023.169.07.047.047.071.102.071.166v.929c0 .064-.024.12-.071.166-.047.047-.104.07-.169.07h-2.66v1.201h2.482c.065 0 .122.023.169.07.047.047.071.102.071.166v.929c0 .064-.024.12-.071.166-.047.047-.104.07-.169.07h-2.482v1.893c0 .064-.024.12-.071.166-.047.047-.104.07-.169.07h-1.165c-.065 0-.122-.023-.169-.07-.047-.047-.071-.102-.071-.166v-5.661c0-.064.024-.12.071-.166.047-.047.104-.07.169-.07h4.066zm5.72 3.523l.009.337-.009.337c-.012.28-.077.543-.196.789-.119.245-.282.46-.489.644-.208.184-.458.329-.752.434-.294.105-.621.158-.983.158s-.689-.053-.983-.158c-.294-.105-.544-.25-.752-.434-.208-.184-.371-.399-.489-.644-.119-.245-.184-.508-.196-.789l-.009-.337.009-.337c.006-.28.068-.543.187-.789.119-.245.283-.46.494-.644.211-.184.463-.33.756-.438.294-.108.621-.162.983-.162s.689.054.983.162c.294.108.546.254.756.438.211.184.374.399.489.644.116.245.179.508.191.789zm-3.238.631c.018.222.099.396.245.521.145.126.337.188.574.188.237 0 .429-.063.574-.188.145-.126.227-.299.245-.521l.018-.298-.018-.298c-.018-.222-.099-.396-.245-.521-.145-.126-.337-.188-.574-.188-.237 0-.429.063-.574.188-.145.126-.227.299-.245.521l-.018.298.018.298zm7.304-2.576c.065 0 .122.023.169.07.047.047.071.102.071.166v.885c0 .064-.024.12-.071.166-.047.047-.104.07-.169.07h-.81c-.546 0-.818.269-.818.806v2.156c0 .064-.024.12-.071.166-.047.047-.104.07-.169.07h-1.121c-.065 0-.122-.023-.169-.07-.047-.047-.071-.102-.071-.166v-4.084c0-.064.024-.12.071-.166.047-.047.104-.07.169-.07h1.032c.065 0 .122.023.169.07.047.047.071.102.071.166v.202c.136-.129.301-.234.494-.315.193-.082.423-.123.689-.123h.534zm.81.237c0-.064.024-.12.071-.166.047-.047.104-.07.169-.07h1.121c.065 0 .122.023.169.07.047.047.071.102.071.166v2.217c0 .251.056.453.169.605.113.152.3.228.56.228.261 0 .446-.076.556-.228.11-.152.165-.353.165-.605v-2.217c0-.064.024-.12.071-.166.047-.047.104-.07.169-.07h1.121c.065 0 .122.023.169.07.047.047.071.102.071.166v4.084c0 .064-.024.12-.071.166-.047.047-.104.07-.169.07h-1.032c-.065 0-.122-.023-.169-.07-.047-.047-.071-.102-.071-.166v-.202l-.173.188c-.068.061-.153.117-.254.166-.101.05-.218.091-.351.123-.133.032-.292.048-.476.048-.575 0-1.033-.161-1.375-.482-.341-.321-.512-.827-.512-1.516v-2.41zm12.98 4.084c0 .064-.024.12-.071.166-.047.047-.104.07-.169.07h-1.076c-.065 0-.122-.023-.169-.07-.047-.047-.071-.102-.071-.166v-2.243c0-.292-.055-.499-.165-.622-.11-.123-.271-.184-.485-.184-.208 0-.366.061-.476.184-.11.123-.165.33-.165.622v2.243c0 .064-.024.12-.071.166-.047.047-.104.07-.169.07h-1.076c-.065 0-.122-.023-.169-.07-.047-.047-.071-.102-.071-.166v-2.243c0-.292-.055-.499-.165-.622-.11-.123-.271-.184-.485-.184-.208 0-.366.06-.476.18-.11.12-.165.32-.165.6v2.27c0 .064-.024.12-.071.166-.047.047-.104.07-.169.07h-1.121c-.065 0-.122-.023-.169-.07-.047-.047-.071-.102-.071-.166v-4.084c0-.064.024-.12.071-.166.047-.047.104-.07.169-.07h1.076c.065 0 .122.023.169.07.047.047.071.102.071.166v.202c.13-.164.289-.292.476-.386.187-.093.405-.14.654-.14.302 0 .577.055.823.166.246.111.446.283.601.517.172-.222.381-.391.627-.508.246-.117.512-.175.796-.175.255 0 .491.039.707.118.216.079.403.2.56.364.157.164.279.371.365.622.086.251.129.549.129.894v2.41zm-93.674 10.752c-.065 0-.122-.023-.169-.07-.047-.047-.071-.102-.071-.166v-5.661c0-.064.024-.12.071-.166.047-.047.104-.07.169-.07h.365c.065 0 .122.023.169.07.047.047.071.102.071.166v5.661c0 .064-.024.12-.071.166-.047.047-.104.07-.169.07h-.365zm6.999 0c-.083 0-.153-.028-.209-.083l-.147-.18-2.891-4.285v4.311c0 .064-.024.12-.071.166-.047.047-.104.07-.169.07h-.365c-.065 0-.122-.023-.169-.07-.047-.047-.071-.102-.071-.166v-5.661c0-.064.024-.12.071-.166.047-.047.104-.07.169-.07h.311c.083 0 .153.028.209.083l.147.18 2.891 4.285v-4.311c0-.064.024-.12.071-.166.047-.047.104-.07.169-.07h.365c.065 0 .122.023.169.07.047.047.071.102.071.166v5.661c0 .064-.024.12-.071.166-.047.047-.104.07-.169.07h-.311zm6.945 0c-.083 0-.153-.028-.209-.083l-.147-.18-2.891-4.285v4.311c0 .064-.024.12-.071.166-.047.047-.104.07-.169.07h-.365c-.065 0-.122-.023-.169-.07-.047-.047-.071-.102-.071-.166v-5.661c0-.064.024-.12.071-.166.047-.047.104-.07.169-.07h.311c.083 0 .153.028.209.083l.147.18 2.891 4.285v-4.311c0-.064.024-.12.071-.166.047-.047.104-.07.169-.07h.365c.065 0 .122.023.169.07.047.047.071.102.071.166v5.661c0 .064-.024.12-.071.166-.047.047-.104.07-.169.07h-.311zm2.621-3.847c.006-.327.064-.635.173-.924.11-.289.268-.54.476-.754.208-.213.463-.383.765-.508.302-.126.649-.188 1.041-.188.391 0 .738.063 1.041.188.302.126.558.295.765.508.208.213.366.464.476.754.11.289.168.597.173.924.018.52.018 1.04 0 1.56-.012.327-.073.635-.182.924-.11.289-.268.542-.476.758-.208.216-.461.386-.761.508-.3.123-.645.184-1.036.184s-.737-.061-1.036-.184c-.3-.123-.553-.292-.761-.508-.208-.216-.366-.469-.476-.758-.11-.289-.171-.597-.182-.924-.018-.52-.018-1.04 0-1.56zm4.066.044c-.012-.275-.058-.514-.138-.719-.08-.204-.191-.374-.334-.508-.142-.134-.31-.235-.503-.302s-.405-.101-.636-.101c-.231 0-.443.034-.636.101s-.36.168-.503.302c-.142.134-.255.304-.338.508-.083.204-.128.444-.133.719-.012.263-.018.508-.018.736 0 .228.006.473.018.736.006.275.05.514.133.719.083.204.196.374.338.508.142.134.31.235.503.302s.405.101.636.101c.231 0 .443-.034.636-.101s.36-.168.503-.302c.142-.134.254-.304.334-.508.08-.204.126-.444.138-.719.012-.263.018-.508.018-.736 0-.228-.006-.473-.018-.736zm6.563-2.112l.098-.145c.047-.05.13-.074.249-.074h.329l.138.057.058.136-.018.088-1.922 5.503c-.036.105-.093.19-.173.254-.08.064-.179.096-.298.096h-.356c-.119 0-.216-.032-.294-.096-.077-.064-.133-.149-.169-.254l-1.931-5.503-.018-.088.058-.136.138-.057h.329c.119 0 .202.025.249.074l.098.145 1.717 5.039 1.717-5.039zm6.082 4.53h-3.087l-.463 1.165-.098.145c-.047.05-.13.074-.249.074h-.329l-.138-.057-.058-.136.036-.123 2.18-5.529.133-.193c.059-.064.148-.096.267-.096h.534c.119 0 .208.032.267.096l.133.193 2.171 5.529.036.123-.058.136-.138.057h-.329c-.119 0-.202-.025-.249-.074l-.098-.145-.463-1.165zm-2.776-.789h2.464l-1.228-3.128-1.237 3.128zm9.009-3.961c.065 0 .122.023.169.07.047.047.071.102.071.166v.315c0 .064-.024.12-.071.166-.047.047-.104.07-.169.07h-1.664v5.109c0 .064-.024.12-.071.166-.047.047-.104.07-.169.07h-.365c-.065 0-.122-.023-.169-.07-.047-.047-.071-.102-.071-.166v-5.109h-1.664c-.065 0-.122-.023-.169-.07-.047-.047-.071-.102-.071-.166v-.315c0-.064.024-.12.071-.166.047-.047.104-.07.169-.07h4.172zm2.221 6.134c-.065 0-.122-.023-.169-.07-.047-.047-.071-.102-.071-.166v-5.661c0-.064.024-.12.071-.166.047-.047.104-.07.169-.07h.365c.065 0 .122.023.169.07.047.047.071.102.071.166v5.661c0 .064-.024.12-.071.166-.047.047-.104.07-.169.07h-.365zm2.675-3.847c.006-.327.064-.635.173-.924.11-.289.268-.54.476-.754.208-.213.463-.383.765-.508.302-.126.649-.188 1.041-.188.391 0 .738.063 1.041.188.302.126.558.295.765.508.208.213.366.464.476.754.11.289.168.597.173.924.018.52.018 1.04 0 1.56-.012.327-.073.635-.182.924-.11.289-.268.542-.476.758-.208.216-.461.386-.761.508-.3.123-.645.184-1.036.184s-.737-.061-1.036-.184c-.3-.123-.553-.292-.761-.508-.208-.216-.366-.469-.476-.758-.11-.289-.171-.597-.182-.924-.018-.52-.018-1.04 0-1.56zm4.066.044c-.012-.275-.058-.514-.138-.719-.08-.204-.191-.374-.334-.508-.142-.134-.31-.235-.503-.302s-.405-.101-.636-.101c-.231 0-.443.034-.636.101s-.36.168-.503.302c-.142.134-.255.304-.338.508-.083.204-.128.444-.133.719-.012.263-.018.508-.018.736 0 .228.006.473.018.736.006.275.05.514.133.719.083.204.196.374.338.508.142.134.31.235.503.302s.405.101.636.101c.231 0 .443-.034.636-.101s.36-.168.503-.302c.142-.134.254-.304.334-.508.08-.204.126-.444.138-.719.012-.263.018-.508.018-.736 0-.228-.006-.473-.018-.736zm7.007 3.803c-.083 0-.153-.028-.209-.083l-.147-.18-2.891-4.285v4.311c0 .064-.024.12-.071.166-.047.047-.104.07-.169.07h-.365c-.065 0-.122-.023-.169-.07-.047-.047-.071-.102-.071-.166v-5.661c0-.064.024-.12.071-.166.047-.047.104-.07.169-.07h.311c.083 0 .153.028.209.083l.147.18 2.891 4.285v-4.311c0-.064.024-.12.071-.166.047-.047.104-.07.169-.07h.365c.065 0 .122.023.169.07.047.047.071.102.071.166v5.661c0 .064-.024.12-.071.166-.047.047-.104.07-.169.07h-.311zm9.353-1.385h-3.087l-.463 1.165-.098.145c-.047.05-.13.074-.249.074h-.329l-.138-.057-.058-.136.036-.123 2.18-5.529.133-.193c.059-.064.148-.096.267-.096h.534c.119 0 .208.032.267.096l.133.193 2.171 5.529.036.123-.058.136-.138.057h-.329c-.119 0-.202-.025-.249-.074l-.098-.145-.463-1.165zm-2.776-.789h2.464l-1.228-3.128-1.237 3.128zm8.404-2.603c.107 0 .181.032.222.096l.08.158.979 3.47.907-4.846c.018-.088.053-.149.107-.184l.169-.053h.356l.138.057.058.136-.009.07-1.094 5.415c-.03.146-.074.259-.133.337-.059.079-.16.118-.302.118h-.356c-.136 0-.237-.042-.302-.127-.065-.085-.116-.194-.151-.329l-.818-2.927-.818 2.927c-.036.134-.086.244-.151.329-.065.085-.166.127-.302.127h-.356c-.142 0-.243-.039-.302-.118-.059-.079-.104-.191-.133-.337l-1.094-5.415-.009-.07.058-.136.138-.057h.356l.169.053c.053.035.089.096.107.184l.907 4.846.979-3.47.08-.158c.042-.064.116-.096.222-.096h.302zm8.404 3.391h-3.087l-.463 1.165-.098.145c-.047.05-.13.074-.249.074h-.329l-.138-.057-.058-.136.036-.123 2.18-5.529.133-.193c.059-.064.148-.096.267-.096h.534c.119 0 .208.032.267.096l.133.193 2.171 5.529.036.123-.058.136-.138.057h-.329c-.119 0-.202-.025-.249-.074l-.098-.145-.463-1.165zm-2.776-.789h2.464l-1.228-3.128-1.237 3.128zm8.191-3.961c.291 0 .565.035.823.105.258.07.485.178.681.324.196.146.351.333.467.561.116.228.173.502.173.824 0 .473-.12.85-.36 1.13-.24.28-.547.479-.921.596l1.343 2.305.027.096-.058.136-.138.057h-.383c-.119 0-.206-.029-.262-.088l-.12-.149-1.29-2.235h-1.53v2.235c0 .064-.024.12-.071.166-.047.047-.104.07-.169.07h-.365c-.065 0-.122-.023-.169-.07-.047-.047-.071-.102-.071-.166v-5.661c0-.064.024-.12.071-.166.047-.047.104-.07.169-.07h2.153zm-1.548 2.874h1.504c.427 0 .758-.083.992-.25.234-.166.351-.437.351-.811 0-.374-.117-.638-.351-.793-.234-.155-.565-.232-.992-.232h-1.504v2.086zm10.548-.499l.009.692-.009.692c-.006.368-.071.7-.196.995-.125.295-.297.545-.516.749-.219.204-.48.361-.783.469-.302.108-.638.162-1.005.162h-2.091c-.065 0-.122-.023-.169-.07-.047-.047-.071-.102-.071-.166v-5.661c0-.064.024-.12.071-.166.047-.047.104-.07.169-.07h2.037c.368 0 .707.054 1.019.162.311.108.58.264.805.469.225.204.402.454.529.749.128.295.194.627.2.995zm-.845.044c-.006-.21-.04-.413-.102-.609-.062-.196-.162-.37-.298-.521-.136-.152-.314-.273-.534-.364-.219-.091-.489-.136-.81-.136h-1.397v4.557h1.441c.32 0 .589-.045.805-.136.216-.091.39-.212.52-.364s.224-.326.28-.521c.056-.196.087-.399.093-.609l.004-.346.004-.298-.004-.298-.004-.355z"/><path d="M56.74 90.36c-.334 0-.501-.15-.501-.449.016-.535.127-1.094.334-1.676.207-.582.521-1.114.942-1.594.421-.48.958-.874 1.61-1.181.652-.307 1.431-.46 2.338-.46s1.678.134 2.314.401c.636.268 1.157.622 1.563 1.063.406.441.7.952.883 1.535.183.582.274 1.181.274 1.794 0 .976-.215 1.842-.644 2.597-.429.756-1.082 1.535-1.956 2.337l-5.583 5.619h7.992c.366 0 .549.181.549.543v.354c0 .346-.183.519-.549.519h-9.782c-.35 0-.525-.173-.525-.519v-.354c0-.157.044-.311.131-.46.087-.15.243-.327.465-.531l6.179-6.115c.445-.409.811-.779 1.097-1.11.286-.331.513-.649.68-.956.167-.307.282-.614.346-.921.064-.307.095-.641.095-1.003 0-1.055-.302-1.881-.907-2.479-.604-.598-1.479-.897-2.624-.897-1.097 0-1.956.311-2.577.933-.62.622-.994 1.444-1.121 2.467-.032.189-.107.327-.227.413-.119.087-.227.13-.322.13h-.477zm15.755 1.157c.016-.866.119-1.692.31-2.479.191-.787.509-1.48.954-2.078.445-.598 1.03-1.074 1.754-1.428.724-.354 1.626-.531 2.708-.531 1.082 0 1.984.177 2.708.531.724.354 1.304.83 1.742 1.428.437.598.755 1.291.954 2.078.199.787.306 1.613.322 2.479.032 1.354.032 2.676 0 3.967-.032.866-.143 1.692-.334 2.479-.191.787-.505 1.48-.942 2.078-.437.598-1.018 1.074-1.742 1.428-.724.354-1.626.531-2.708.531-1.082 0-1.984-.177-2.708-.531-.724-.354-1.304-.83-1.742-1.428-.437-.598-.755-1.291-.954-2.078-.199-.787-.306-1.613-.322-2.479-.032-1.291-.032-2.613 0-3.967zm9.949.118c-.032-1.59-.394-2.857-1.086-3.801-.692-.944-1.738-1.417-3.137-1.417-1.416 0-2.465.472-3.149 1.417-.684.944-1.042 2.212-1.074 3.801-.016.661-.024 1.279-.024 1.853 0 .575.008 1.2.024 1.877.032 1.621.39 2.896 1.074 3.825.684.929 1.734 1.393 3.149 1.393 1.416 0 2.465-.464 3.149-1.393.684-.929 1.042-2.204 1.074-3.825.016-.677.024-1.303.024-1.877 0-.575-.008-1.192-.024-1.853zm13.441 9.61c0 .346-.175.519-.525.519h-.453c-.35 0-.525-.173-.525-.519v-14.072l-4.271 3.258c-.286.205-.533.173-.74-.094l-.262-.331c-.095-.126-.135-.256-.119-.39.016-.134.087-.248.215-.342l5.082-3.872c.111-.079.215-.126.31-.142l.31-.024h.453c.35 0 .525.173.525.519v15.489zm15.612-4.769c0-.614-.111-1.161-.334-1.641-.223-.48-.525-.885-.907-1.216-.382-.331-.831-.582-1.348-.756-.517-.173-1.07-.26-1.658-.26-.604 0-1.093.075-1.467.224-.374.15-.692.311-.954.484s-.493.334-.692.484c-.199.15-.425.224-.68.224h-.429c-.143 0-.27-.051-.382-.153-.111-.102-.159-.224-.143-.366l.716-7.721c.032-.362.207-.543.525-.543h7.778c.35 0 .525.173.525.519v.378c0 .346-.175.519-.525.519h-6.847l-.501 5.336c.159-.11.489-.272.99-.484.501-.213 1.197-.319 2.088-.319.795 0 1.543.114 2.243.342.7.228 1.308.567 1.825 1.015.517.449.926 1 1.229 1.653.302.653.453 1.413.453 2.278 0 .929-.151 1.735-.453 2.42-.302.685-.712 1.259-1.229 1.724-.517.464-1.125.811-1.825 1.039-.7.228-1.447.342-2.243.342-.875 0-1.646-.126-2.314-.378-.668-.252-1.233-.582-1.694-.992-.461-.409-.819-.874-1.074-1.393-.254-.519-.39-1.055-.406-1.606-.016-.142.024-.252.119-.331.095-.079.215-.118.358-.118h.453c.127 0 .243.031.346.094.103.063.187.212.251.449.127.519.322.96.585 1.322.262.362.573.657.93.885.358.228.748.394 1.169.496.421.102.847.153 1.276.153.588 0 1.141-.091 1.658-.272.517-.181.966-.445 1.348-.791.382-.346.684-.775.907-1.287.223-.512.334-1.098.334-1.759z"/></g></g></svg>