<svg width="71" height="34" viewBox="0 0 71 34" xmlns="http://www.w3.org/2000/svg"><title>wsj-wallstreetjournal</title><desc>Created with Sketch.</desc><g fill="#A0B0B1"><path d="M2.155 2.511l-1.996-.255h-.159v-1.255h10.762v1.255h-.299c-1.234-.124-1.848.255-1.848 1.255v.629l4.612 19.347 2.769-12.689-1.536-6.405c-.31-1.633-1.075-2.262-2.462-2.137h-.159v-1.255h10.458v1.255h-.148c-1.692-.124-2.462.379-2.462 1.51l4.615 19.595h.304l4.157-18.591v-.754c0-1.381-.773-1.885-2.462-1.76h-.461v-1.255h9.065v1.255h-.455l-2.155.255-1.382 2.508-7.228 28.011h-2.15l-4.461-18.34-4.618 18.34h-2.306l-6.921-28.637-1.075-1.882"/><path d="M48.127.37v10.924h-1.366v-.372c0-6.207-2.125-9.31-6.38-9.31-2.889-.123-4.407 1.118-4.26 3.849 0 1.368.458 2.732 1.523 3.972l4.559 3.354 5.624 4.594c1.52 1.859 2.279 4.219 2.279 6.826 0 5.216-3.039 7.823-8.969 7.823-2.279 0-4.559-.622-6.838-1.988l-.916 1.867h-1.065v-11.053h1.22v.372c0 3.35.908 5.835 2.583 7.573 1.371 1.241 2.887 1.863 4.561 1.863 3.499 0 5.321-1.613 5.321-4.968 0-3.101-2.282-6.083-6.841-8.937-4.716-2.857-7.145-5.96-7.145-9.561-.152-2.237.764-3.974 2.429-5.215 1.371-1.366 3.198-1.983 5.475-1.983 2.282 0 4.26.617 6.234 1.983l1.062-1.614h.911"/><path d="M58.129 25.021c0 1.875-1.071 2.876-3.37 3.002l1.068 2.378c.765.749 1.838 1.124 3.067 1.124l2.756-1.001.768-3.5v-22.897c-.156-1.249-.768-1.875-2.142-1.875h-1.076v-1.253h11.793v1.253h-1.071c-1.377 0-2.146.626-1.988 1.875v22.019c-.158 4.506-3.07 6.755-8.734 6.884-1.994-.128-3.682-.625-4.752-1.754-1.682-1.376-2.447-3.003-2.447-5.129l1.226-2.501 1.991-.875c1.682 0 2.756.751 2.911 2.252"/></g></svg>